<svg width="20" height="24" viewBox="0 0 20 24" fill="none" xmlns="http://www.w3.org/2000/svg">
<g filter="url(#filter0_d_3919_3247)">
<path d="M10.1316 5.72116C10.1317 5.9838 10.08 6.24389 9.9796 6.48657C9.87917 6.72926 9.73192 6.94978 9.54626 7.13556C9.3606 7.32134 9.14017 7.46873 8.89755 7.56931C8.65493 7.6699 8.39488 7.72171 8.13223 7.7218C7.86959 7.72188 7.6095 7.67024 7.36682 7.5698C7.12414 7.46937 6.90361 7.32213 6.71783 7.13647C6.53206 6.95081 6.38467 6.73038 6.28408 6.48776C6.18349 6.24514 6.13168 5.98509 6.13159 5.72244C6.13142 5.19201 6.34197 4.68323 6.71692 4.30804C7.09188 3.93285 7.60052 3.72197 8.13095 3.7218C8.66138 3.72163 9.17016 3.93218 9.54535 4.30713C9.92054 4.68208 10.1314 5.19072 10.1316 5.72116Z" fill="white"/>
</g>
<g filter="url(#filter1_d_3919_3247)">
<path d="M8.13281 14.1322C9.23738 14.1322 10.1328 13.2368 10.1328 12.1322C10.1328 11.0276 9.23738 10.1322 8.13281 10.1322C7.02824 10.1322 6.13281 11.0276 6.13281 12.1322C6.13281 13.2368 7.02824 14.1322 8.13281 14.1322Z" fill="white"/>
</g>
<g filter="url(#filter2_d_3919_3247)">
<path d="M8.13281 20.5438C9.23738 20.5438 10.1328 19.6484 10.1328 18.5438C10.1328 17.4392 9.23738 16.5438 8.13281 16.5438C7.02824 16.5438 6.13281 17.4392 6.13281 18.5438C6.13281 19.6484 7.02824 20.5438 8.13281 20.5438Z" fill="white"/>
</g>
<defs>
<filter id="filter0_d_3919_3247" x="0.131592" y="-0.2782" width="24" height="24" filterUnits="userSpaceOnUse" color-interpolation-filters="sRGB">
<feFlood flood-opacity="0" result="BackgroundImageFix"/>
<feColorMatrix in="SourceAlpha" type="matrix" values="0 0 0 0 0 0 0 0 0 0 0 0 0 0 0 0 0 0 127 0" result="hardAlpha"/>
<feOffset dx="4" dy="6"/>
<feGaussianBlur stdDeviation="5"/>
<feComposite in2="hardAlpha" operator="out"/>
<feColorMatrix type="matrix" values="0 0 0 0 0 0 0 0 0 0 0 0 0 0 0 0 0 0 0.3 0"/>
<feBlend mode="normal" in2="BackgroundImageFix" result="effect1_dropShadow_3919_3247"/>
<feBlend mode="normal" in="SourceGraphic" in2="effect1_dropShadow_3919_3247" result="shape"/>
</filter>
<filter id="filter1_d_3919_3247" x="0.132812" y="6.1322" width="24" height="24" filterUnits="userSpaceOnUse" color-interpolation-filters="sRGB">
<feFlood flood-opacity="0" result="BackgroundImageFix"/>
<feColorMatrix in="SourceAlpha" type="matrix" values="0 0 0 0 0 0 0 0 0 0 0 0 0 0 0 0 0 0 127 0" result="hardAlpha"/>
<feOffset dx="4" dy="6"/>
<feGaussianBlur stdDeviation="5"/>
<feComposite in2="hardAlpha" operator="out"/>
<feColorMatrix type="matrix" values="0 0 0 0 0 0 0 0 0 0 0 0 0 0 0 0 0 0 0.3 0"/>
<feBlend mode="normal" in2="BackgroundImageFix" result="effect1_dropShadow_3919_3247"/>
<feBlend mode="normal" in="SourceGraphic" in2="effect1_dropShadow_3919_3247" result="shape"/>
</filter>
<filter id="filter2_d_3919_3247" x="0.132812" y="12.5438" width="24" height="24" filterUnits="userSpaceOnUse" color-interpolation-filters="sRGB">
<feFlood flood-opacity="0" result="BackgroundImageFix"/>
<feColorMatrix in="SourceAlpha" type="matrix" values="0 0 0 0 0 0 0 0 0 0 0 0 0 0 0 0 0 0 127 0" result="hardAlpha"/>
<feOffset dx="4" dy="6"/>
<feGaussianBlur stdDeviation="5"/>
<feComposite in2="hardAlpha" operator="out"/>
<feColorMatrix type="matrix" values="0 0 0 0 0 0 0 0 0 0 0 0 0 0 0 0 0 0 0.3 0"/>
<feBlend mode="normal" in2="BackgroundImageFix" result="effect1_dropShadow_3919_3247"/>
<feBlend mode="normal" in="SourceGraphic" in2="effect1_dropShadow_3919_3247" result="shape"/>
</filter>
</defs>
</svg>
