<svg width="46" height="30" viewBox="0 0 46 30" fill="none" xmlns="http://www.w3.org/2000/svg">
<rect width="46" height="30" rx="15" fill="url(#paint0_linear_3993_3947)"/>
<path d="M23 4.5C20.2256 4.53347 17.5743 5.65047 15.6124 7.61239C13.6505 9.57431 12.5335 12.2256 12.5 15C12.5335 17.7744 13.6505 20.4257 15.6124 22.3876C17.5743 24.3495 20.2256 25.4665 23 25.5C25.7744 25.4665 28.4257 24.3495 30.3876 22.3876C32.3495 20.4257 33.4665 17.7744 33.5 15C33.4665 12.2256 32.3495 9.57431 30.3876 7.61239C28.4257 5.65047 25.7744 4.53347 23 4.5ZM29 15.75H23.75V21H22.25V15.75H17V14.25H22.25V9H23.75V14.25H29V15.75Z" fill="white"/>
<defs>
<linearGradient id="paint0_linear_3993_3947" x1="23" y1="0" x2="23" y2="30" gradientUnits="userSpaceOnUse">
<stop stop-color="#450E8B"/>
<stop offset="1" stop-color="#EC8C34"/>
</linearGradient>
</defs>
</svg>
