<svg width="14" height="14" viewBox="0 0 14 14" fill="none" xmlns="http://www.w3.org/2000/svg">
<path d="M12.2501 8.16669V8.75002C12.2501 9.86419 11.6259 10.8325 10.7042 11.3225L11.0834 12.8334H9.91675L9.62508 11.6667H4.37508L4.08341 12.8334H2.91675L3.29591 11.3225C2.82877 11.0747 2.43801 10.7043 2.16564 10.251C1.89328 9.79775 1.74961 9.27882 1.75008 8.75002V8.16669H1.16675V7.00002H11.6667V2.91669C11.6667 2.76198 11.6053 2.6136 11.4959 2.50421C11.3865 2.39481 11.2381 2.33335 11.0834 2.33335C10.7917 2.33335 10.5701 2.53169 10.5001 2.79419C10.8676 3.10919 11.0834 3.57585 11.0834 4.08335H7.58341C7.58341 3.61922 7.76779 3.17411 8.09598 2.84592C8.42417 2.51773 8.86929 2.33335 9.33341 2.33335H9.43258C9.67175 1.65669 10.3192 1.16669 11.0834 1.16669C11.5475 1.16669 11.9927 1.35106 12.3209 1.67925C12.649 2.00744 12.8334 2.45256 12.8334 2.91669V8.16669H12.2501ZM11.0834 8.16669H2.91675V8.75002C2.91675 9.21415 3.10112 9.65927 3.42931 9.98746C3.7575 10.3156 4.20262 10.5 4.66675 10.5H9.33341C9.79754 10.5 10.2427 10.3156 10.5709 9.98746C10.899 9.65927 11.0834 9.21415 11.0834 8.75002V8.16669Z" fill="#A3A3A4"/>
</svg>
