<svg width="50" height="50" viewBox="0 0 50 50" fill="none" xmlns="http://www.w3.org/2000/svg">
<path d="M34.781 6.664H27.83C26.574 6.668 26.621 8.54 27.83 8.529H34.781V9.486H27.83C26.581 9.475 26.627 11.346 27.83 11.351H34.781V12.329H27.83C26.581 12.329 26.627 14.199 27.83 14.194H34.781V15.126H27.83C26.607 15.135 26.627 17.007 27.83 17.013H34.781V17.947H27.83C26.607 17.943 26.602 19.812 27.83 19.812H34.781V20.744H27.83C26.607 20.748 26.602 22.619 27.83 22.61H34.781V23.565H27.83C26.607 23.554 26.602 25.423 27.83 25.43H34.781V26.36H27.83C26.607 26.359 26.627 28.232 27.83 28.226H34.781V46.385C34.785 49.152 38.988 49.102 39 46.385V3.89C38.988 2.626 37.95 1.028 36.242 1.023H27.83C26.574 1.024 26.621 2.896 27.83 2.888L34.781 2.911V3.841H27.83C26.576 3.835 26.623 5.706 27.83 5.707H34.781V6.664ZM27.352 38.858C27.348 35.628 24 32.154 20 34.404V22.05L17.413 1.675C17.359 1.136 16.902 1.009 16.595 1C16.278 1.009 15.643 1.136 15.574 1.675L13 22.05V34.404C9.00003 32.154 5.76003 35.65 5.75903 38.833C5.76003 41.665 7.94003 43.991 10.89 43.984C13.862 43.991 16 41.384 16 38.833V26H17V38.833C17 41.689 19.212 43.803 21.67 43.937C21.629 45.503 22.14 47.737 23.102 48.623C24.23 49.663 25.573 48.333 25.022 47.25C24.49 46.242 23.968 45.645 24.392 43.444C26.164 42.624 27.348 40.898 27.352 38.858ZM11.004 41.399C10.3297 41.399 9.68303 41.1311 9.20621 40.6543C8.7294 40.1775 8.46153 39.5308 8.46153 38.8565C8.46153 38.1822 8.7294 37.5355 9.20621 37.0587C9.68303 36.5819 10.3297 36.314 11.004 36.314C12.39 36.322 13.519 37.459 13.529 38.858C13.5262 39.5283 13.2597 40.1705 12.7873 40.646C12.3148 41.1214 11.6743 41.3919 11.004 41.399ZM19.575 38.858C19.5774 38.1871 19.8437 37.5441 20.3164 37.068C20.7891 36.592 21.4302 36.3211 22.101 36.314C22.7721 36.3201 23.4137 36.5906 23.8865 37.067C24.3593 37.5433 24.625 38.1869 24.626 38.858C24.625 39.5288 24.3591 40.1721 23.8863 40.648C23.4134 41.1238 22.7718 41.3937 22.101 41.399C21.4304 41.3929 20.7891 41.1228 20.3163 40.6472C19.8434 40.1715 19.5771 39.5287 19.575 38.858Z" fill="#988FC4"/>
</svg>
