<svg width="10" height="10" viewBox="0 0 10 10" fill="none" xmlns="http://www.w3.org/2000/svg">
<path d="M2.66659 0.916687C2.37492 0.916687 2.08325 1.03919 1.85575 1.26669C1.62825 1.49419 1.49992 1.76252 1.49992 2.08335V3.83335C1.19075 3.83335 0.916585 3.94419 0.677419 4.17752C0.438252 4.41085 0.333252 4.69085 0.333252 5.00002V7.91669H1.11492L1.49992 9.08335H2.08325L2.48575 7.91669H7.54325L7.91659 9.08335H8.49992L8.88492 7.91669H9.66659V5.00002C9.66659 4.69085 9.55575 4.41669 9.32242 4.17752C9.08909 3.93835 8.80909 3.83335 8.49992 3.83335V2.08335C8.49992 1.76252 8.38325 1.50002 8.14409 1.26669C7.90492 1.03335 7.62492 0.916687 7.33325 0.916687M2.66659 2.08335H4.41659V3.83335H2.66659M5.58325 2.08335H7.33325V3.83335H5.58325M1.49992 5.00002H8.49992V6.75002H1.49992V5.00002Z" fill="#A3A3A4"/>
</svg>
