<svg width="50" height="50" viewBox="0 0 50 50" fill="none" xmlns="http://www.w3.org/2000/svg">
<g clip-path="url(#clip0_3919_939)">
<path d="M42.8907 31.0156L48.5938 36.9531L23.5157 49.5313C23.5157 49.5313 20.2345 51.1719 18.672 48.5938C12.422 38.4375 42.8907 31.0156 42.8907 31.0156Z" fill="#256382"/>
<path d="M22.8124 42.1094C22.8124 42.1094 18.0468 43.9062 18.9062 47.2656C19.8437 50.7812 23.6718 48.6719 23.6718 48.6719L47.4999 36.9531C47.4999 36.9531 46.1718 33.2031 48.5937 30.7031L22.8124 42.1094Z" fill="#D9E3E8"/>
<path d="M26.875 6.95312L49.6875 30.4688L22.7344 41.6406L5.46875 13.0469L26.875 6.95312Z" fill="#42ADE2"/>
<path d="M47.4219 33.2812L31.4844 40.1563L47.1094 32.5781L47.4219 33.2812ZM47.1875 35.3125L30.2344 42.7344L46.875 34.6094L47.1875 35.3125ZM47.3437 36.4844L25.7031 46.4063L47.0312 35.7812L47.3437 36.4844Z" fill="#94989B"/>
<path d="M18.5938 48.5156C15.9375 42.6562 22.7344 41.6406 22.7344 41.6406L5.46875 13.0469C5.46875 13.0469 1.5625 12.9687 1.5625 17.2656C1.5625 19.0625 2.34375 20.3906 2.34375 20.3906L18.5938 48.5156Z" fill="#428BC1"/>
<path d="M6.79688 25.1562L1.09375 31.0937L26.1719 43.6719C26.1719 43.6719 29.4531 45.3125 31.0156 42.7344C37.2656 32.5781 6.79688 25.1562 6.79688 25.1562Z" fill="#547725"/>
<path d="M26.7969 36.25C26.7969 36.25 31.5625 38.0469 30.7031 41.4062C29.7656 44.9219 26.0156 42.8125 26.0156 42.8125L2.1875 31.0937C2.1875 31.0937 3.51562 27.3437 1.09375 24.8438L26.7969 36.25Z" fill="#D9E3E8"/>
<path d="M22.8125 1.09375L0 24.6094L26.9531 35.7812L44.2187 7.1875L22.8125 1.09375Z" fill="#83BF4F"/>
<path d="M2.5 26.7188L18.125 34.2969L2.1875 27.4219L2.5 26.7188ZM2.8125 28.75L19.375 36.875L2.42187 29.4531L2.8125 28.75ZM2.65625 29.9219L23.9063 40.5469L2.26563 30.625L2.65625 29.9219Z" fill="#94989B"/>
<path d="M31.0937 42.6562C33.75 36.7969 26.9531 35.7812 26.9531 35.7812L44.2187 7.1875C44.2187 7.1875 48.125 7.10937 48.125 11.4062C48.125 13.2031 47.3437 14.5312 47.3437 14.5312L31.0937 42.6562Z" fill="#699635"/>
<path d="M44.2969 20.3125L49.0625 25.3125L27.8907 35.8594C27.8907 35.8594 25.0782 37.1875 23.75 35.0781C18.5938 26.5625 44.2969 20.3125 44.2969 20.3125Z" fill="#962C2C"/>
<path d="M27.3437 29.6875C27.3437 29.6875 23.2812 31.1719 24.0624 34.0625C24.8437 37.0312 28.0468 35.2344 28.0468 35.2344L48.1249 25.3125C48.1249 25.3125 47.0312 22.1875 49.0624 20.0781L27.3437 29.6875Z" fill="#D9E3E8"/>
<path d="M30.7812 0L50 19.8438L27.2656 29.2969L12.6562 5.15625L30.7812 0Z" fill="#ED4C5C"/>
<path d="M31.3281 4.53125L35.0781 8.67188L21.25 13.9062L17.9688 8.59375L31.3281 4.53125Z" fill="white"/>
<path d="M48.125 22.2656L34.6875 27.9687L47.8125 21.5625L48.125 22.2656ZM47.9688 23.9844L33.5937 30.1562L47.6562 23.2812L47.9688 23.9844ZM48.125 24.9219L29.8438 33.2812L47.7344 24.2187L48.125 24.9219Z" fill="#94989B"/>
<path d="M23.8281 35.0781C21.6406 30.1562 27.3438 29.2969 27.3438 29.2969L12.6563 5.15625C12.6563 5.15625 9.29688 5.07812 9.29688 8.67187C9.29688 10.1562 9.92188 11.3281 9.92188 11.3281L23.8281 35.0781Z" fill="#C94747"/>
</g>
<defs>
<clipPath id="clip0_3919_939">
<rect width="50" height="50" fill="white"/>
</clipPath>
</defs>
</svg>
