<svg width="24" height="24" viewBox="0 0 24 24" fill="none" xmlns="http://www.w3.org/2000/svg">
<path d="M8.04999 14.72L7.04999 13.72L3.94999 14.71H3.84999C3.80126 14.7131 3.75244 14.7057 3.70676 14.6885C3.66107 14.6712 3.61957 14.6445 3.58499 14.61L2.85999 13.895C2.80143 13.8393 2.76395 13.7651 2.75392 13.6848C2.7439 13.6046 2.76194 13.5234 2.80499 13.455L3.64999 12C4.17338 11.1043 4.90355 10.3469 5.77949 9.79107C6.65543 9.23524 7.65168 8.89714 8.68499 8.80502L9.92999 8.69502M9.92999 8.69502C10.6533 7.83502 11.32 7.09836 11.93 6.48502C13.0874 5.25905 14.469 4.26615 16 3.56002C17.5605 2.97671 19.2198 2.70328 20.885 2.75502C20.9857 2.75592 21.0823 2.79527 21.155 2.86502C21.1896 2.89683 21.2173 2.93546 21.2362 2.97849C21.2551 3.02152 21.2649 3.06801 21.265 3.11502C21.2991 4.78519 21.0017 6.44555 20.39 8.00002C19.7021 9.53555 18.7203 10.9216 17.5 12.08C16.885 12.7 16.145 13.365 15.29 14.08L15.18 15.32C15.0903 16.3528 14.7548 17.3492 14.2016 18.2259C13.6484 19.1027 12.8936 19.8344 12 20.36L10.555 21.205C10.498 21.2351 10.4344 21.2505 10.37 21.25C10.2743 21.2481 10.1823 21.2127 10.11 21.15L9.38499 20.42C9.33818 20.3753 9.30491 20.3182 9.289 20.2555C9.27308 20.1927 9.27516 20.1267 9.29499 20.065L10.26 16.93M9.92999 8.69502L7.07499 13.745M10.26 16.93L9.28999 15.96M10.26 16.93L15.31 14.08M18.71 7.35002C18.7113 6.80719 18.4973 6.28599 18.1149 5.90075C17.7324 5.51551 17.2128 5.29767 16.67 5.29502C16.3919 5.2813 16.114 5.32421 15.853 5.42116C15.592 5.51811 15.3535 5.66708 15.1518 5.85902C14.9502 6.05097 14.7896 6.28188 14.6799 6.53776C14.5702 6.79363 14.5137 7.06913 14.5137 7.34752C14.5137 7.62592 14.5702 7.90142 14.6799 8.15729C14.7896 8.41317 14.9502 8.64408 15.1518 8.83602C15.3535 9.02797 15.592 9.17694 15.853 9.27389C16.114 9.37084 16.3919 9.41375 16.67 9.40002C17.209 9.40081 17.7265 9.18878 18.11 8.81002C18.3029 8.61968 18.4551 8.39211 18.5574 8.14113C18.6597 7.89015 18.7099 7.621 18.705 7.35002H18.71Z" stroke="#A3A3A4" stroke-width="1.5" stroke-linecap="round" stroke-linejoin="round"/>
<path d="M6.5 17.5C8.5 17.13 12.05 13.8 12.465 11.535C10.185 11.97 6.855 15.5 6.5 17.5Z" stroke="#A3A3A4" stroke-width="1.5" stroke-linecap="round" stroke-linejoin="round"/>
</svg>
