<svg width="24" height="24" viewBox="0 0 24 24" fill="none" xmlns="http://www.w3.org/2000/svg">
<path fill-rule="evenodd" clip-rule="evenodd" d="M9.778 21H14.222C17.343 21 18.904 21 20.025 20.265C20.5087 19.948 20.9253 19.5389 21.251 19.061C22 17.961 22 16.428 22 13.364C22 10.299 22 8.767 21.251 7.667C20.9253 7.18911 20.5087 6.78 20.025 6.463C19.305 5.99 18.403 5.821 17.022 5.761C16.363 5.761 15.796 5.271 15.667 4.636C15.5684 4.17087 15.3123 3.75404 14.9418 3.45595C14.5714 3.15787 14.1095 2.99681 13.634 3H10.366C9.378 3 8.527 3.685 8.333 4.636C8.204 5.271 7.637 5.761 6.978 5.761C5.598 5.821 4.696 5.991 3.975 6.463C3.49162 6.78006 3.07537 7.18917 2.75 7.667C2 8.767 2 10.299 2 13.364C2 16.428 2 17.96 2.749 19.061C3.073 19.537 3.489 19.946 3.975 20.265C5.096 21 6.657 21 9.778 21ZM12 9.273C9.699 9.273 7.833 11.104 7.833 13.363C7.833 15.623 9.699 17.454 12 17.454C14.301 17.454 16.167 15.623 16.167 13.364C16.167 11.104 14.301 9.273 12 9.273ZM12 10.909C10.62 10.909 9.5 12.008 9.5 13.364C9.5 14.719 10.62 15.818 12 15.818C13.38 15.818 14.5 14.719 14.5 13.364C14.5 12.008 13.38 10.909 12 10.909ZM16.722 10.091C16.722 9.639 17.095 9.273 17.556 9.273H18.666C19.126 9.273 19.5 9.639 19.5 10.091C19.4979 10.3099 19.409 10.519 19.2528 10.6724C19.0966 10.8258 18.8859 10.9109 18.667 10.909H17.556C17.4475 10.9101 17.3399 10.8897 17.2393 10.8492C17.1387 10.8087 17.047 10.7487 16.9696 10.6727C16.8921 10.5968 16.8304 10.5063 16.7879 10.4065C16.7454 10.3067 16.723 10.1995 16.722 10.091Z" fill="white"/>
</svg>
