<svg width="20" height="20" viewBox="0 0 20 20" fill="none" xmlns="http://www.w3.org/2000/svg">
<path d="M9.99993 0.25C8.31662 0.249633 6.66188 0.685083 5.19679 1.51396C3.7317 2.34285 2.50616 3.53692 1.63947 4.97997C0.772772 6.42301 0.294445 8.06587 0.251045 9.74862C0.207644 11.4314 0.600649 13.0967 1.39181 14.5825L0.327743 17.7747C0.239604 18.039 0.226813 18.3226 0.290804 18.5938C0.354795 18.8649 0.493039 19.1129 0.690042 19.3099C0.887044 19.5069 1.13502 19.6451 1.40618 19.7091C1.67733 19.7731 1.96095 19.7603 2.22524 19.6722L5.41743 18.6081C6.72503 19.3036 8.17388 19.6921 9.65402 19.744C11.1342 19.7959 12.6067 19.51 13.9598 18.9079C15.3129 18.3057 16.5111 17.4033 17.4634 16.269C18.4156 15.1346 19.097 13.7983 19.4557 12.3613C19.8144 10.9244 19.841 9.42456 19.5335 7.97578C19.226 6.52701 18.5925 5.16732 17.6811 3.99992C16.7697 2.83253 15.6043 1.88811 14.2733 1.23836C12.9424 0.588614 11.481 0.250608 9.99993 0.25ZM12.9999 12.25H6.99993C6.80102 12.25 6.61025 12.171 6.4696 12.0303C6.32895 11.8897 6.24993 11.6989 6.24993 11.5C6.24993 11.3011 6.32895 11.1103 6.4696 10.9697C6.61025 10.829 6.80102 10.75 6.99993 10.75H12.9999C13.1988 10.75 13.3896 10.829 13.5303 10.9697C13.6709 11.1103 13.7499 11.3011 13.7499 11.5C13.7499 11.6989 13.6709 11.8897 13.5303 12.0303C13.3896 12.171 13.1988 12.25 12.9999 12.25ZM12.9999 9.25H6.99993C6.80102 9.25 6.61025 9.17098 6.4696 9.03033C6.32895 8.88968 6.24993 8.69891 6.24993 8.5C6.24993 8.30109 6.32895 8.11032 6.4696 7.96967C6.61025 7.82902 6.80102 7.75 6.99993 7.75H12.9999C13.1988 7.75 13.3896 7.82902 13.5303 7.96967C13.6709 8.11032 13.7499 8.30109 13.7499 8.5C13.7499 8.69891 13.6709 8.88968 13.5303 9.03033C13.3896 9.17098 13.1988 9.25 12.9999 9.25Z" fill="url(#paint0_linear_3919_719)"/>
<defs>
<linearGradient id="paint0_linear_3919_719" x1="9.99687" y1="0.25" x2="9.99687" y2="19.75" gradientUnits="userSpaceOnUse">
<stop stop-color="#450E8B"/>
<stop offset="1" stop-color="#EC8C34"/>
</linearGradient>
</defs>
</svg>
