<svg width="20" height="20" viewBox="0 0 20 20" fill="none" xmlns="http://www.w3.org/2000/svg">
<path d="M10.0002 0.25C8.31686 0.249633 6.66213 0.685083 5.19704 1.51396C3.73194 2.34285 2.50641 3.53692 1.63971 4.97997C0.773016 6.42301 0.294689 8.06587 0.251289 9.74862C0.207888 11.4314 0.600893 13.0967 1.39205 14.5825L0.327988 17.7747C0.239848 18.039 0.227057 18.3226 0.291048 18.5938C0.355039 18.8649 0.493283 19.1129 0.690286 19.3099C0.887288 19.5069 1.13526 19.6451 1.40642 19.7091C1.67757 19.7731 1.96119 19.7603 2.22549 19.6722L5.41768 18.6081C6.72527 19.3036 8.17413 19.6921 9.65426 19.744C11.1344 19.7959 12.6069 19.51 13.9601 18.9079C15.3132 18.3057 16.5114 17.4033 17.4636 16.269C18.4159 15.1346 19.0972 13.7983 19.4559 12.3613C19.8146 10.9244 19.8412 9.42456 19.5337 7.97578C19.2263 6.52701 18.5928 5.16732 17.6813 3.99992C16.7699 2.83253 15.6045 1.88811 14.2736 1.23836C12.9427 0.588614 11.4812 0.250608 10.0002 0.25ZM13.0002 12.25H7.00017C6.80126 12.25 6.6105 12.171 6.46984 12.0303C6.32919 11.8897 6.25017 11.6989 6.25017 11.5C6.25017 11.3011 6.32919 11.1103 6.46984 10.9697C6.6105 10.829 6.80126 10.75 7.00017 10.75H13.0002C13.1991 10.75 13.3899 10.829 13.5305 10.9697C13.6712 11.1103 13.7502 11.3011 13.7502 11.5C13.7502 11.6989 13.6712 11.8897 13.5305 12.0303C13.3899 12.171 13.1991 12.25 13.0002 12.25ZM13.0002 9.25H7.00017C6.80126 9.25 6.6105 9.17098 6.46984 9.03033C6.32919 8.88968 6.25017 8.69891 6.25017 8.5C6.25017 8.30109 6.32919 8.11032 6.46984 7.96967C6.6105 7.82902 6.80126 7.75 7.00017 7.75H13.0002C13.1991 7.75 13.3899 7.82902 13.5305 7.96967C13.6712 8.11032 13.7502 8.30109 13.7502 8.5C13.7502 8.69891 13.6712 8.88968 13.5305 9.03033C13.3899 9.17098 13.1991 9.25 13.0002 9.25Z" fill="#A3A3A4"/>
</svg>
