<svg width="50" height="50" viewBox="0 0 50 50" fill="none" xmlns="http://www.w3.org/2000/svg">
<path d="M11.6145 4.32082C11.8798 4.44835 12.1036 4.64821 12.2603 4.89736C12.4169 5.14652 12.5 5.43485 12.5 5.72916C12.5 7.45832 13.15 8.45416 13.9645 9.66666L14.025 9.75416C14.7166 10.7833 15.625 12.1312 15.625 14.0625C15.625 16.0333 14.6312 17.7708 13.1166 18.8021C13.5145 19.1354 13.8666 19.5458 14.1708 20.0375C15.1625 21.6417 15.625 24.0937 15.625 27.6146C15.625 31.1812 15.1458 35.4646 14.3645 38.8854C13.977 40.5854 13.4958 42.1542 12.9229 43.3312C12.6524 43.9169 12.2941 44.4579 11.8604 44.9354C11.4312 45.375 10.7708 45.8437 9.89579 45.8437C9.02079 45.8437 8.36038 45.375 7.93329 44.9354C7.49832 44.4588 7.13989 43.9177 6.87079 43.3312C6.29579 42.1521 5.81454 40.5854 5.42704 38.8833C4.61443 35.1807 4.19199 31.4031 4.16663 27.6125C4.16663 24.0917 4.62913 21.6417 5.62079 20.0375C5.9037 19.5719 6.25964 19.1547 6.67496 18.8021C5.90157 18.277 5.26858 17.5705 4.83132 16.7443C4.39406 15.918 4.16585 14.9973 4.16663 14.0625C4.16663 13.2958 4.16663 11.9771 4.96454 10.275C5.74579 8.60832 7.23121 6.69374 9.96038 4.50832C10.1904 4.32433 10.4677 4.2091 10.7604 4.17593C11.0531 4.14275 11.3492 4.19298 11.6145 4.32082ZM20.8333 31.0771C19.7296 30.8919 18.6559 30.5584 17.6416 30.0854C17.6854 29.2396 17.7083 28.4104 17.7083 27.6146C17.7083 26.7687 17.6833 25.9604 17.6291 25.1896C18.552 25.95 19.6416 26.5146 20.8333 26.8208V21.875C20.8333 21.0462 21.1625 20.2513 21.7486 19.6653C22.3346 19.0792 23.1295 18.75 23.9583 18.75H31.25C31.2502 17.1604 30.7957 15.6039 29.9402 14.2642C29.0848 12.9244 27.8639 11.8573 26.4218 11.1887C24.9797 10.52 23.3764 10.2778 21.8011 10.4906C20.2258 10.7034 18.7443 11.3623 17.5312 12.3896C17.1708 10.6937 16.3333 9.45207 15.7979 8.65832L15.7145 8.53332C17.5863 7.21384 19.7846 6.43392 22.0695 6.27871C24.3543 6.12351 26.6379 6.59898 28.6709 7.65322C30.704 8.70746 32.4083 10.3 33.5979 12.2569C34.7875 14.2138 35.4166 16.4599 35.4166 18.75H42.7083C43.5371 18.75 44.332 19.0792 44.918 19.6653C45.5041 20.2513 45.8333 21.0462 45.8333 21.875V40.625C45.8333 41.4538 45.5041 42.2486 44.918 42.8347C44.332 43.4207 43.5371 43.75 42.7083 43.75H23.9583C23.1295 43.75 22.3346 43.4207 21.7486 42.8347C21.1625 42.2486 20.8333 41.4538 20.8333 40.625V31.0771ZM25 31.0771V39.5833H41.6666V22.9167H34.7062C33.9615 25.0183 32.6689 26.8828 30.9621 28.3175C29.2553 29.7522 27.1963 30.7049 24.9979 31.0771H25ZM30.1354 22.9167H25V26.8208C26.0721 26.5431 27.0783 26.055 27.9599 25.3847C28.8416 24.7144 29.5811 23.8755 30.1354 22.9167Z" fill="#EB996E"/>
</svg>
