<svg width="50" height="50" viewBox="0 0 50 50" fill="none" xmlns="http://www.w3.org/2000/svg">
<g clip-path="url(#clip0_3919_929)">
<path fill-rule="evenodd" clip-rule="evenodd" d="M44.1173 7.82032C42.5072 5.98751 41.6048 3.5961 39.1978 2.39376C37.9494 1.76563 36.572 1.35626 35.2416 0.867977C34.5283 0.607821 33.7986 0.393758 33.0744 0.151571C32.4689 -0.0546795 31.9501 -0.121086 31.4587 0.435946C30.0712 2.01407 28.2744 3.16641 26.1376 3.6547C25.6139 3.77156 25.0813 3.84421 24.5455 3.87188C24.0096 3.84425 23.477 3.7716 22.9533 3.6547C20.8158 3.16641 19.0158 2.01485 17.633 0.435946C17.1384 -0.121086 16.6197 -0.0538982 16.0134 0.151571C15.2939 0.394539 14.5611 0.608602 13.8486 0.867977C12.5166 1.35626 11.1369 1.76563 9.88921 2.39376C7.48296 3.5961 6.57983 5.98751 4.97124 7.82032C4.81733 7.99141 4.9939 8.50391 5.17124 8.77813C5.32671 9.00782 5.6978 9.12345 5.97827 9.29063C7.65015 10.275 9.57202 10.9016 11.0041 12.243C11.4134 12.6234 12.0791 12.768 12.5595 13.1055C12.8244 13.2922 13.0626 13.6367 13.1033 13.9359C13.2189 14.7367 17.2791 15.0555 17.4072 18.2078C17.5408 21.5 8.99312 35.0172 8.10015 38.2867C7.63062 40.0055 5.89077 41.7375 5.55171 43.4813C5.19937 45.2734 5.00796 47.0906 4.75562 48.8289C5.45327 49.0828 5.87827 49.3461 6.31812 49.3773C8.37515 49.5242 11.7181 49.6859 13.7806 49.6859C15.665 49.6859 22.6564 49.6539 24.5423 49.6156C26.4244 49.6539 28.3103 49.6859 30.1923 49.6859C32.2556 49.6859 41.9814 49.5242 44.0431 49.3773C44.4869 49.3461 44.9103 49.0828 45.6056 48.8289C45.3533 47.0906 45.1619 45.2734 44.8103 43.4813C44.4697 41.7375 42.7314 40.0055 42.2619 38.2867C41.3712 35.018 30.2673 21.5016 30.3978 18.2094C30.4564 16.7805 34.5017 14.0797 34.7017 12.6609C34.7447 12.3609 36.2603 13.2938 36.5252 13.1063C37.0025 12.768 37.6736 12.6242 38.0806 12.2438C39.5126 10.9024 41.4361 10.2758 43.1064 9.29141C43.3853 9.12501 43.7595 9.00938 43.9119 8.77891C44.09 8.50391 44.2634 7.98985 44.1134 7.82032" fill="#2780B2"/>
<path fill-rule="evenodd" clip-rule="evenodd" d="M24.6767 42.7961C24.3978 40.6359 24.5306 38.4609 24.172 36.3016L24.1337 36.0664C24.1244 36.025 24.1181 35.9813 24.1072 35.9266C24.0642 35.7141 24.0166 35.5016 23.9689 35.2891C23.8486 34.7508 24.6884 24.1086 24.5416 23.5727C24.3087 22.7289 24.1291 22.0375 23.9658 21.1781C23.7548 20.0328 23.747 19.0898 24.1384 17.9383C24.5853 16.6234 23.9337 15.0977 24.9041 14.0383C25.1798 13.7406 25.5001 13.4961 25.8173 13.2328L25.8447 13.2141C25.8278 13.0549 25.8064 12.8963 25.7806 12.7383C25.7189 12.3641 25.6392 11.993 25.5955 11.6188C25.3353 9.38907 24.8251 7.1625 25.258 4.91875C25.3353 4.52032 25.4431 4.13751 25.5783 3.76094C25.2376 3.81485 24.8916 3.85157 24.5416 3.87032C24.0057 3.84269 23.4731 3.77003 22.9494 3.65313C20.8119 3.16485 19.0119 2.01329 17.6291 0.43438C17.1345 -0.122651 16.6158 -0.0554635 16.0095 0.150005C15.29 0.392974 14.5572 0.607037 13.8447 0.866412C12.5126 1.35469 11.133 1.76407 9.8853 2.39219C7.47905 3.59454 6.57593 5.98594 4.96733 7.81876C4.81343 7.98985 4.98999 8.50235 5.16733 8.77657C5.3228 9.00626 5.6939 9.12188 5.97437 9.28907C7.64624 10.2734 9.56812 10.9 11.0001 12.2414C11.4095 12.6219 12.0751 12.7664 12.5556 13.1039C12.8205 13.2906 13.0587 13.6352 13.0994 13.9344C13.215 14.7352 17.2751 15.0539 17.4033 18.2063C17.5369 21.4984 8.98921 35.0156 8.09624 38.2852C7.62671 40.0039 5.88687 41.7359 5.5478 43.4797C5.19546 45.2719 5.00405 47.0891 4.75171 48.8273C5.44937 49.0813 5.87437 49.3445 6.31421 49.3758C8.37124 49.5227 11.7142 49.6844 13.7767 49.6844C15.6611 49.6844 22.6525 49.6523 24.5384 49.6141C25.4947 49.6328 26.4494 49.6492 27.4072 49.6617C26.0048 47.507 24.9806 45.1594 24.6744 42.7961" fill="#2E8ECD"/>
<path fill-rule="evenodd" clip-rule="evenodd" d="M6.22896 6.08438C6.69849 5.51016 7.11567 4.89376 7.53755 4.28282C7.06724 4.85704 6.64927 5.47188 6.22896 6.08438ZM12.5547 13.0391C12.8196 13.2266 13.0579 13.5688 13.0985 13.8703C13.1219 14.0289 14.4243 12.9094 14.4469 13.068L14.5719 12.6875C14.7508 12.1453 13.7649 12.9281 14.1422 12.5125C14.1407 12.4984 14.1391 12.4836 14.136 12.4664C14.0946 12.168 13.854 11.8211 13.5907 11.6352C13.1133 11.2977 12.4422 11.1547 12.0352 10.7742C10.6047 9.43282 8.68208 8.80469 7.00942 7.81798C6.7313 7.65391 6.35708 7.53985 6.20317 7.3086C6.05864 7.08673 5.91411 6.70079 5.95396 6.47423C5.64458 6.91485 5.32114 7.35001 4.96567 7.75391C4.81177 7.92657 4.98833 8.43751 5.16567 8.71016C5.32114 8.94141 5.69224 9.05704 5.97271 9.22032C7.64458 10.207 9.56646 10.8313 10.9985 12.1781C11.4079 12.5578 12.0743 12.7031 12.5547 13.0391ZM42.8579 6.12188C42.3836 5.54766 41.9641 4.93282 41.5446 4.32032C42.0141 4.89141 42.4329 5.5086 42.8579 6.12188ZM36.5258 13.0773C36.261 13.2648 34.7454 12.332 34.7024 12.6305C34.6805 12.7891 34.6571 12.9461 34.6321 13.1031C34.5902 12.9778 34.5496 12.852 34.5102 12.7258C34.3297 12.182 35.3141 12.9672 34.9383 12.55C34.9399 12.5352 34.9454 12.5195 34.9454 12.5055C34.9852 12.2055 35.2258 11.8617 35.4922 11.6742C35.9688 11.3367 36.6391 11.1953 37.0477 10.8102C38.4766 9.46876 40.4001 8.84219 42.0719 7.85704C42.3501 7.69219 42.7235 7.57813 42.8751 7.34454C43.0258 7.12266 43.1657 6.73907 43.129 6.51251C43.4368 6.95157 43.7602 7.38438 44.1141 7.79063C44.2641 7.96173 44.0907 8.47423 43.9126 8.74844C43.7602 8.97969 43.386 9.0961 43.1071 9.25938C41.4368 10.2461 39.5133 10.8719 38.0813 12.2156C37.6743 12.5977 37.0032 12.7399 36.5258 13.0773ZM16.3383 0.92735C17.986 3.05938 20.111 4.61641 22.6508 5.27891C23.2563 5.43751 23.8961 5.52891 24.543 5.57032C25.1883 5.52891 25.8258 5.43751 26.4313 5.27891C28.9704 4.61563 31.0985 3.0586 32.7516 0.92735C33.0461 0.543757 33.3508 0.378913 33.6727 0.343756C33.4735 0.279694 33.2751 0.216413 33.0751 0.150007C32.4696 -0.0562435 31.9508 -0.12265 31.4594 0.434382C30.0719 2.01251 28.2751 3.16485 26.1383 3.65313C25.6146 3.77 25.082 3.84265 24.5461 3.87032C24.0103 3.84269 23.4777 3.77004 22.954 3.65313C20.8165 3.16485 19.0165 2.01329 17.6336 0.434382C17.1391 -0.12265 16.6204 -0.0554622 16.0141 0.150007C15.8165 0.216413 15.618 0.280475 15.418 0.343756C15.7422 0.378132 16.0446 0.542975 16.343 0.92735M44.0391 47.3922C41.9805 47.532 32.2501 47.6969 30.1883 47.6969C28.3048 47.6928 26.4214 47.6697 24.5383 47.6274C22.6532 47.6688 15.661 47.6938 13.7774 47.6969C11.7141 47.6969 8.37192 47.532 6.31489 47.3922C5.92974 47.3641 5.55864 47.157 5.0063 46.9383C4.92427 47.5758 4.83989 48.2039 4.74927 48.8289C5.44692 49.0828 5.87192 49.3461 6.31177 49.3773C8.3688 49.5242 11.7118 49.6859 13.7743 49.6859C15.6586 49.6859 22.65 49.6539 24.536 49.6156C26.418 49.6539 28.304 49.6859 30.186 49.6859C32.2493 49.6859 41.9751 49.5242 44.0368 49.3773C44.4805 49.3461 44.904 49.0828 45.5993 48.8289C45.5086 48.2039 45.4243 47.5758 45.3422 46.9383C44.7922 47.157 44.4204 47.3641 44.0352 47.3922" fill="#1A698C"/>
<path d="M17.3203 17.5781L17.0632 19.8078L17.1007 19.8141C26.0515 21.2727 30.6179 19.3125 30.6179 19.3125V17.5781C21.6281 20.575 17.3203 17.5781 17.3203 17.5781Z" fill="#405967"/>
</g>
<defs>
<clipPath id="clip0_3919_929">
<rect width="50" height="50" fill="white"/>
</clipPath>
</defs>
</svg>
