<svg width="21" height="20" viewBox="0 0 21 20" fill="none" xmlns="http://www.w3.org/2000/svg">
<path d="M6.59131 5.83333H5.75798C5.31595 5.83333 4.89202 6.00892 4.57946 6.32148C4.2669 6.63404 4.09131 7.05797 4.09131 7.49999V15C4.09131 15.442 4.2669 15.8659 4.57946 16.1785C4.89202 16.4911 5.31595 16.6667 5.75798 16.6667H13.258C13.7 16.6667 14.1239 16.4911 14.4365 16.1785C14.749 15.8659 14.9246 15.442 14.9246 15V14.1667" stroke="#450E8B" stroke-width="2" stroke-linecap="round" stroke-linejoin="round"/>
<path d="M14.0911 4.16666L16.5911 6.66666M17.7453 5.4875C18.0735 5.15929 18.2579 4.71415 18.2579 4.25C18.2579 3.78585 18.0735 3.3407 17.7453 3.0125C17.4171 2.68429 16.972 2.49991 16.5078 2.49991C16.0437 2.49991 15.5985 2.68429 15.2703 3.0125L8.25781 10V12.5H10.7578L17.7453 5.4875Z" stroke="#450E8B" stroke-width="2" stroke-linecap="round" stroke-linejoin="round"/>
</svg>
