<svg width="50" height="50" viewBox="0 0 50 50" fill="none" xmlns="http://www.w3.org/2000/svg">
<path d="M20.0725 27.3839V16.7075C20.0725 15.3229 21.1989 14.1965 22.5836 14.1965H29.7055V13.2264C29.7055 11.8412 28.5772 10.7144 27.1906 10.7144H6.14717C4.76045 10.7144 3.63232 11.8412 3.63232 13.2264V27.3839H20.0725Z" fill="#8BDEC5"/>
<path d="M20.0726 30.4567V27.3839H3.63244H3.00969C2.48898 27.3839 2.03039 27.6736 1.75119 28.1788C1.36691 28.8741 1.38781 29.82 1.80197 30.4789C1.83566 30.5326 1.87453 30.5828 1.91799 30.629C1.92306 30.6344 2.42648 31.1683 2.94084 31.6954C4.04845 32.8303 4.27238 33.044 4.75715 33.044H20.0726V30.4567Z" fill="#988FC4"/>
<path d="M22.5836 14.1965C21.199 14.1965 20.0725 15.323 20.0725 16.7075V27.3839V30.4567H30.4404V30.1668C30.4404 29.0458 31.3525 28.1338 32.4735 28.1338H37.3854V16.7075C37.3854 15.323 36.2589 14.1965 34.8743 14.1965H29.7055H22.5836Z" fill="#99F2D5"/>
<path d="M30.4404 30.4567H20.0725V33.0439V33.9264C20.0725 35.3599 21.2387 36.526 22.6721 36.526H30.4403V30.4567H30.4404Z" fill="#9D9ACC"/>
<path d="M42.9599 28.1338H37.3854H32.4735C31.3525 28.1338 30.4404 29.0458 30.4404 30.1668V30.4567V36.526V37.2524C30.4404 38.3734 31.3525 39.2854 32.4735 39.2854H42.9599V28.1338Z" fill="#8BDEC5"/>
<path d="M46.3685 28.1338H42.9597V39.2855H46.3685C47.5554 39.2855 48.5211 38.3199 48.5211 37.133V30.2863C48.5211 29.0994 47.5555 28.1338 46.3685 28.1338Z" fill="#988FC4"/>
</svg>
