<svg width="300" height="236" viewBox="0 0 300 236" fill="none" xmlns="http://www.w3.org/2000/svg">
<path d="M300 208.44H0V208.59H300V208.44Z" fill="#EBEBEB"/>
<path d="M269.94 218.094H261V218.244H269.94V218.094Z" fill="#EBEBEB"/>
<path d="M198.732 219.726H193.518V219.876H198.732V219.726Z" fill="#EBEBEB"/>
<path d="M258.468 212.526H237.954V212.676H258.468V212.526Z" fill="#EBEBEB"/>
<path d="M65.778 215.622H39.864V215.772H65.778V215.622Z" fill="#EBEBEB"/>
<path d="M80.466 215.622H71.118V215.772H80.466V215.622Z" fill="#EBEBEB"/>
<path d="M152.856 213.606H96.648V213.756H152.856V213.606Z" fill="#EBEBEB"/>
<path d="M142.2 181.68H26.346C25.4384 181.678 24.5686 181.317 23.9274 180.674C23.2862 180.032 22.926 179.162 22.926 178.254V15.396C22.9339 14.4936 23.2975 13.6308 23.9379 12.9949C24.5782 12.3591 25.4436 12.0015 26.346 12H142.2C143.109 12 143.98 12.361 144.623 13.0035C145.265 13.646 145.626 14.5174 145.626 15.426V178.254C145.626 179.163 145.265 180.034 144.623 180.677C143.98 181.319 143.109 181.68 142.2 181.68ZM26.346 12.12C25.4782 12.1216 24.6465 12.4674 24.0334 13.0816C23.4204 13.6958 23.076 14.5282 23.076 15.396V178.254C23.076 179.122 23.4204 179.954 24.0334 180.568C24.6465 181.183 25.4782 181.528 26.346 181.53H142.2C143.068 181.528 143.901 181.183 144.515 180.569C145.129 179.955 145.474 179.122 145.476 178.254V15.396C145.474 14.5276 145.129 13.6953 144.515 13.0813C143.901 12.4672 143.068 12.1216 142.2 12.12H26.346Z" fill="#EBEBEB"/>
<path d="M271.986 181.68H156.126C155.218 181.678 154.347 181.317 153.705 180.675C153.063 180.033 152.702 179.162 152.7 178.254V15.396C152.709 14.4931 153.074 13.6302 153.716 12.9946C154.357 12.3589 155.223 12.0015 156.126 12H271.986C272.887 12.0031 273.751 12.3613 274.39 12.997C275.029 13.6327 275.392 14.4947 275.4 15.396V178.254C275.4 179.161 275.041 180.03 274.401 180.672C273.761 181.314 272.893 181.677 271.986 181.68ZM156.126 12.12C155.258 12.1216 154.425 12.4672 153.811 13.0813C153.197 13.6953 152.852 14.5276 152.85 15.396V178.254C152.852 179.122 153.197 179.955 153.811 180.569C154.425 181.183 155.258 181.528 156.126 181.53H271.986C272.854 181.528 273.687 181.183 274.301 180.569C274.915 179.955 275.26 179.122 275.262 178.254V15.396C275.26 14.5276 274.915 13.6953 274.301 13.0813C273.687 12.4672 272.854 12.1216 271.986 12.12H156.126Z" fill="#EBEBEB"/>
<path d="M101.544 48.6H44.742V208.44H101.544V48.6Z" fill="#E0E0E0"/>
<path d="M101.538 208.44L252.144 208.44L252.144 48.6L101.538 48.6L101.538 208.44Z" fill="#F5F5F5"/>
<path d="M107.544 68.598H38.742V72.6H107.544V68.598Z" fill="#EBEBEB"/>
<path d="M107.538 72.6L258.144 72.6V68.598L107.538 68.598V72.6Z" fill="#E0E0E0"/>
<path d="M107.544 92.598H38.742V96.6H107.544V92.598Z" fill="#EBEBEB"/>
<path d="M107.538 96.6L258.144 96.6V92.598L107.538 92.598V96.6Z" fill="#E0E0E0"/>
<path d="M107.544 116.598H38.742V120.6H107.544V116.598Z" fill="#EBEBEB"/>
<path d="M107.538 120.6L258.144 120.6V116.598L107.538 116.598V120.6Z" fill="#E0E0E0"/>
<path d="M107.544 140.598H38.742V144.6H107.544V140.598Z" fill="#EBEBEB"/>
<path d="M107.538 144.6L258.144 144.6V140.598L107.538 140.598V144.6Z" fill="#E0E0E0"/>
<path d="M107.544 164.598H38.742V168.6H107.544V164.598Z" fill="#EBEBEB"/>
<path d="M107.538 168.6L258.144 168.6V164.598L107.538 164.598V168.6Z" fill="#E0E0E0"/>
<path d="M107.544 188.598H38.742V192.6H107.544V188.598Z" fill="#EBEBEB"/>
<path d="M107.538 192.6L258.144 192.6V188.598L107.538 188.598V192.6Z" fill="#E0E0E0"/>
<path d="M147.078 0H60.678V42.6H147.078V0Z" fill="#F5F5F5"/>
<path d="M107.538 42.6H100.206V48.6H107.538V42.6Z" fill="#E0E0E0"/>
<path d="M147.078 37.968H60.678V42.6H147.078V37.968Z" fill="#F0F0F0"/>
<path d="M147.078 0H60.678V4.632H147.078V0Z" fill="#F0F0F0"/>
<path d="M225.678 17.76H182.844V44.796H225.678V17.76Z" fill="#F5F5F5"/>
<path d="M206.586 44.79H201.93V48.6H206.586V44.79Z" fill="#E0E0E0"/>
<path d="M225.678 41.856H182.844V44.796H225.678V41.856Z" fill="#F0F0F0"/>
<path d="M225.678 17.76H182.844V20.7H225.678V17.76Z" fill="#F0F0F0"/>
<path d="M229.128 53.448H213.978V68.598H229.128V53.448Z" fill="#E6E6E6"/>
<path d="M229.122 68.604H243.774V53.454H229.122V68.604Z" fill="white"/>
<path d="M211.128 53.448H195.978V68.598H211.128V53.448Z" fill="#E6E6E6"/>
<path d="M211.122 68.604H225.774V53.454H211.122V68.604Z" fill="white"/>
<path d="M193.128 53.448H177.978V68.598H193.128V53.448Z" fill="#E6E6E6"/>
<path d="M193.122 68.604H207.774V53.454H193.122V68.604Z" fill="white"/>
<path d="M175.128 53.448H159.978V68.598H175.128V53.448Z" fill="#E6E6E6"/>
<path d="M175.122 68.604H189.774V53.454H175.122V68.604Z" fill="white"/>
<path d="M55.506 92.604H61.854V76.668H55.506V92.604Z" fill="#F0F0F0"/>
<path d="M55.512 76.662H49.374V92.598H55.512V76.662Z" fill="white"/>
<path d="M63.048 92.604H69.396V76.668H63.048V92.604Z" fill="#F0F0F0"/>
<path d="M63.048 76.662H56.91V92.598H63.048V76.662Z" fill="white"/>
<path d="M70.584 92.604H76.932V76.668H70.584V92.604Z" fill="#F0F0F0"/>
<path d="M70.59 76.662H64.452V92.598H70.59V76.662Z" fill="white"/>
<path d="M78.132 92.604H84.48V76.668H78.132V92.604Z" fill="#F0F0F0"/>
<path d="M78.132 76.662H71.994V92.598H78.132V76.662Z" fill="white"/>
<path d="M60.702 164.604H69.246V153.87H60.702V164.604Z" fill="#F0F0F0"/>
<path d="M60.702 153.864H52.44V164.598H60.702V153.864Z" fill="white"/>
<path d="M70.854 164.604H79.398V153.87H70.854V164.604Z" fill="#F0F0F0"/>
<path d="M70.854 153.864H62.592V164.598H70.854V153.864Z" fill="white"/>
<path d="M81.006 164.604H89.55V153.87H81.006V164.604Z" fill="#F0F0F0"/>
<path d="M81.006 153.864H72.744V164.598H81.006V153.864Z" fill="white"/>
<path d="M91.152 164.604H99.696V153.87H91.152V164.604Z" fill="#F0F0F0"/>
<path d="M91.158 153.864H82.896V164.598H91.158V153.864Z" fill="white"/>
<path d="M231.954 101.448H223.56V116.598H231.954V101.448Z" fill="#E6E6E6"/>
<path d="M231.96 116.604H240.078V101.454H231.96V116.604Z" fill="white"/>
<path d="M221.976 101.448H213.582V116.598H221.976V101.448Z" fill="#E6E6E6"/>
<path d="M221.976 116.604H230.094V101.454H221.976V116.604Z" fill="white"/>
<path d="M211.998 101.448H203.604V116.598H211.998V101.448Z" fill="#E6E6E6"/>
<path d="M212.004 116.604H220.122V101.454H212.004V116.604Z" fill="white"/>
<path d="M202.026 101.448H193.632V116.598H202.026V101.448Z" fill="#E6E6E6"/>
<path d="M202.032 116.604H210.15V101.454H202.032V116.604Z" fill="white"/>
<path d="M180.198 101.448H171.804V116.598H180.198V101.448Z" fill="#E6E6E6"/>
<path d="M180.204 116.604H188.322V101.454H180.204V116.604Z" fill="white"/>
<path d="M170.22 101.448H161.826V116.598H170.22V101.448Z" fill="#E6E6E6"/>
<path d="M170.226 116.604H178.344V101.454H170.226V116.604Z" fill="white"/>
<path d="M160.248 101.448H151.854V116.598H160.248V101.448Z" fill="#E6E6E6"/>
<path d="M160.248 116.604H168.366V101.454H160.248V116.604Z" fill="white"/>
<path d="M150.27 101.448H141.876V116.598H150.27V101.448Z" fill="#E6E6E6"/>
<path d="M150.276 116.604H158.394V101.454H150.276V116.604Z" fill="white"/>
<path d="M218.274 153.87H197.814V164.568H218.274V153.87Z" fill="#E6E6E6"/>
<path d="M218.274 164.562H238.056V153.864H218.274V164.562Z" fill="white"/>
<path d="M193.962 153.87H173.502V164.568H193.962V153.87Z" fill="#E6E6E6"/>
<path d="M193.968 164.562H213.75V153.864H193.968V164.562Z" fill="white"/>
<path d="M169.656 153.87H149.196V164.568H169.656V153.87Z" fill="#E6E6E6"/>
<path d="M169.656 164.562H189.438V153.864H169.656V164.562Z" fill="white"/>
<path d="M145.35 153.87H124.89V164.568H145.35V153.87Z" fill="#E6E6E6"/>
<path d="M145.35 164.562H165.132V153.864H145.35V164.562Z" fill="white"/>
<path d="M125.226 92.598C128.954 92.598 131.976 89.5759 131.976 85.848C131.976 82.1201 128.954 79.098 125.226 79.098C121.498 79.098 118.476 82.1201 118.476 85.848C118.476 89.5759 121.498 92.598 125.226 92.598Z" fill="#E6E6E6"/>
<path d="M143.226 92.598C146.954 92.598 149.976 89.5759 149.976 85.848C149.976 82.1201 146.954 79.098 143.226 79.098C139.498 79.098 136.476 82.1201 136.476 85.848C136.476 89.5759 139.498 92.598 143.226 92.598Z" fill="#E6E6E6"/>
<path d="M161.226 92.598C164.954 92.598 167.976 89.5759 167.976 85.848C167.976 82.1201 164.954 79.098 161.226 79.098C157.498 79.098 154.476 82.1201 154.476 85.848C154.476 89.5759 157.498 92.598 161.226 92.598Z" fill="#E6E6E6"/>
<path d="M179.226 92.598C182.954 92.598 185.976 89.5759 185.976 85.848C185.976 82.1201 182.954 79.098 179.226 79.098C175.498 79.098 172.476 82.1201 172.476 85.848C172.476 89.5759 175.498 92.598 179.226 92.598Z" fill="#E6E6E6"/>
<path d="M53.9291 140.49C56.3221 139.925 57.8042 137.527 57.2394 135.134C56.6746 132.741 54.2768 131.259 51.8838 131.824C49.4907 132.389 48.0087 134.786 48.5735 137.179C49.1383 139.572 51.5361 141.054 53.9291 140.49Z" fill="#E6E6E6"/>
<path d="M65.7977 140.487C68.1907 139.923 69.6728 137.525 69.108 135.132C68.5432 132.739 66.1454 131.257 63.7524 131.822C61.3594 132.386 59.8773 134.784 60.4421 137.177C61.0069 139.57 63.4047 141.052 65.7977 140.487Z" fill="#E6E6E6"/>
<path d="M80.7633 137.854C81.7042 135.582 80.6255 132.978 78.3539 132.037C76.0823 131.096 73.478 132.175 72.5371 134.446C71.5961 136.718 72.6749 139.322 74.9465 140.263C77.2181 141.204 79.8224 140.125 80.7633 137.854Z" fill="#E6E6E6"/>
<path d="M91.6647 139.302C93.4033 137.563 93.4033 134.744 91.6647 133.006C89.9261 131.267 87.1073 131.267 85.3686 133.006C83.63 134.744 83.63 137.563 85.3687 139.302C87.1073 141.04 89.9261 141.04 91.6647 139.302Z" fill="#E6E6E6"/>
<path d="M204.003 185.751C204.981 183.391 203.86 180.685 201.5 179.707C199.139 178.729 196.433 179.85 195.456 182.211C194.478 184.571 195.599 187.277 197.959 188.255C200.32 189.233 203.026 188.112 204.003 185.751Z" fill="white"/>
<path d="M212.481 187.747C214.959 187.159 216.492 184.674 215.904 182.195C215.317 179.717 212.831 178.185 210.353 178.772C207.875 179.36 206.342 181.845 206.93 184.323C207.518 186.802 210.003 188.334 212.481 187.747Z" fill="white"/>
<path d="M228.662 185.75C229.64 183.39 228.519 180.684 226.159 179.706C223.798 178.729 221.092 179.849 220.115 182.21C219.137 184.57 220.258 187.276 222.618 188.254C224.979 189.232 227.685 188.111 228.662 185.75Z" fill="white"/>
<path d="M240.995 185.747C241.973 183.387 240.852 180.681 238.491 179.703C236.131 178.725 233.425 179.846 232.447 182.206C231.469 184.567 232.59 187.273 234.951 188.251C237.311 189.228 240.017 188.107 240.995 185.747Z" fill="white"/>
<path d="M209.349 180.792C211.156 178.985 211.156 176.056 209.349 174.249C207.542 172.443 204.613 172.443 202.807 174.249C201 176.056 201 178.985 202.807 180.792C204.613 182.598 207.542 182.598 209.349 180.792Z" fill="white"/>
<path d="M222.683 179.29C223.66 176.93 222.539 174.224 220.179 173.246C217.819 172.269 215.113 173.39 214.135 175.75C213.157 178.11 214.278 180.816 216.638 181.794C218.999 182.772 221.705 181.651 222.683 179.29Z" fill="white"/>
<path d="M231.1 181.304C233.578 180.717 235.111 178.231 234.523 175.753C233.936 173.275 231.45 171.742 228.972 172.33C226.494 172.917 224.961 175.403 225.549 177.881C226.136 180.359 228.622 181.892 231.1 181.304Z" fill="white"/>
<path d="M143.134 187.25C144.941 185.444 144.941 182.515 143.134 180.708C141.328 178.902 138.399 178.902 136.592 180.708C134.786 182.515 134.786 185.444 136.592 187.25C138.399 189.057 141.328 189.057 143.134 187.25Z" fill="white"/>
<path d="M156.465 185.751C157.443 183.39 156.322 180.684 153.962 179.707C151.601 178.729 148.895 179.85 147.918 182.21C146.94 184.571 148.061 187.277 150.421 188.254C152.782 189.232 155.488 188.111 156.465 185.751Z" fill="white"/>
<path d="M165.579 188.491C168.065 187.904 169.605 185.413 169.018 182.926C168.432 180.44 165.94 178.9 163.453 179.486C160.967 180.073 159.427 182.565 160.014 185.051C160.601 187.538 163.092 189.078 165.579 188.491Z" fill="white"/>
<path d="M181.124 185.744C182.102 183.384 180.981 180.677 178.621 179.7C176.26 178.722 173.554 179.843 172.577 182.203C171.599 184.564 172.72 187.27 175.08 188.247C177.441 189.225 180.147 188.104 181.124 185.744Z" fill="white"/>
<path d="M150.48 179.291C151.457 176.93 150.336 174.224 147.976 173.247C145.616 172.269 142.91 173.39 141.932 175.75C140.954 178.111 142.075 180.817 144.435 181.794C146.796 182.772 149.502 181.651 150.48 179.291Z" fill="white"/>
<path d="M161.809 180.794C163.615 178.987 163.615 176.058 161.809 174.252C160.002 172.445 157.073 172.445 155.266 174.252C153.46 176.058 153.46 178.987 155.266 180.794C157.073 182.601 160.002 182.601 161.809 180.794Z" fill="white"/>
<path d="M175.139 179.29C176.116 176.929 174.995 174.223 172.635 173.246C170.275 172.268 167.569 173.389 166.591 175.749C165.613 178.11 166.734 180.816 169.094 181.793C171.455 182.771 174.161 181.65 175.139 179.29Z" fill="white"/>
<path d="M226.176 128.52L229.566 140.598H211.806L226.176 128.52Z" fill="#E0E0E0"/>
<path d="M226.176 128.52L220.002 140.598H238.74L226.176 128.52Z" fill="white"/>
<path d="M198.09 128.52L201.48 140.598H183.714L198.09 128.52Z" fill="#E0E0E0"/>
<path d="M198.09 128.52L191.916 140.598H210.654L198.09 128.52Z" fill="white"/>
<path d="M169.998 128.52L173.394 140.598H155.628L169.998 128.52Z" fill="#E0E0E0"/>
<path d="M169.998 128.52L163.824 140.598H182.568L169.998 128.52Z" fill="white"/>
<path d="M54.42 104.868L52.53 116.598H62.436L54.42 104.868Z" fill="#F5F5F5"/>
<path d="M54.42 104.868L57.864 116.598H47.412L54.42 104.868Z" fill="white"/>
<path d="M70.086 104.868L68.196 116.598H78.102L70.086 104.868Z" fill="#F5F5F5"/>
<path d="M70.086 104.868L73.53 116.598H63.078L70.086 104.868Z" fill="white"/>
<path d="M85.752 104.868L83.856 116.598H93.768L85.752 104.868Z" fill="#F5F5F5"/>
<path d="M85.752 104.868L89.196 116.598H78.744L85.752 104.868Z" fill="white"/>
<path d="M141.912 128.52L145.302 140.598H127.542L141.912 128.52Z" fill="#E0E0E0"/>
<path d="M141.912 128.52L135.738 140.598H154.482L141.912 128.52Z" fill="white"/>
<path d="M150 235.536C214.249 235.536 266.334 232.495 266.334 228.744C266.334 224.993 214.249 221.952 150 221.952C85.7505 221.952 33.666 224.993 33.666 228.744C33.666 232.495 85.7505 235.536 150 235.536Z" fill="#F5F5F5"/>
<path d="M175.2 150.414H224.874C225.888 150.414 226.86 150.817 227.577 151.533C228.293 152.25 228.696 153.222 228.696 154.236C228.696 155.25 228.293 156.222 227.577 156.939C226.86 157.655 225.888 158.058 224.874 158.058H175.2V150.414Z" fill="#450E8B"/>
<path opacity="0.6" d="M175.2 150.414H224.874C225.888 150.414 226.86 150.817 227.577 151.533C228.293 152.25 228.696 153.222 228.696 154.236C228.696 155.25 228.293 156.222 227.577 156.939C226.86 157.655 225.888 158.058 224.874 158.058H175.2V150.414Z" fill="white"/>
<path d="M225.592 127.893C226.32 124.807 224.409 121.714 221.323 120.986C218.236 120.257 215.144 122.169 214.415 125.255C213.687 128.342 215.598 131.434 218.685 132.163C221.771 132.891 224.864 130.98 225.592 127.893Z" fill="#450E8B"/>
<path opacity="0.8" d="M225.592 127.893C226.32 124.807 224.409 121.714 221.323 120.986C218.236 120.257 215.144 122.169 214.415 125.255C213.687 128.342 215.598 131.434 218.685 132.163C221.771 132.891 224.864 130.98 225.592 127.893Z" fill="white"/>
<path d="M180.486 127.35H227.952L223.404 150.414H185.028L180.486 127.35Z" fill="#263238"/>
<path d="M179.16 125.136H229.272C229.382 125.135 229.491 125.16 229.59 125.209C229.689 125.258 229.775 125.329 229.841 125.417C229.908 125.505 229.953 125.608 229.973 125.716C229.993 125.825 229.987 125.936 229.956 126.042L229.356 128.088C229.312 128.235 229.222 128.365 229.099 128.456C228.975 128.548 228.826 128.598 228.672 128.598H179.754C179.6 128.598 179.451 128.548 179.327 128.456C179.204 128.365 179.114 128.235 179.07 128.088L178.47 126.042C178.439 125.936 178.433 125.824 178.454 125.715C178.474 125.606 178.519 125.503 178.586 125.415C178.654 125.327 178.74 125.256 178.84 125.207C178.94 125.159 179.049 125.134 179.16 125.136Z" fill="#450E8B"/>
<path opacity="0.6" d="M179.16 125.136H229.272C229.382 125.135 229.491 125.16 229.59 125.209C229.689 125.258 229.775 125.329 229.841 125.417C229.908 125.505 229.953 125.608 229.973 125.716C229.993 125.825 229.987 125.936 229.956 126.042L229.356 128.088C229.312 128.235 229.222 128.365 229.099 128.456C228.975 128.548 228.826 128.598 228.672 128.598H179.754C179.6 128.598 179.451 128.548 179.327 128.456C179.204 128.365 179.114 128.235 179.07 128.088L178.47 126.042C178.439 125.936 178.433 125.824 178.454 125.715C178.474 125.606 178.519 125.503 178.586 125.415C178.654 125.327 178.74 125.256 178.84 125.207C178.94 125.159 179.049 125.134 179.16 125.136Z" fill="white"/>
<path d="M207.918 122.4H185.118V125.136H207.918V122.4Z" fill="#450E8B"/>
<path opacity="0.2" d="M207.918 122.4H185.118V125.136H207.918V122.4Z" fill="black"/>
<path d="M198.216 130.128C198.163 130.292 198.054 130.432 197.908 130.524C197.762 130.616 197.589 130.654 197.418 130.632C195.618 130.326 194.73 128.688 195.384 126.714L199.974 112.86C200.7 110.67 203.07 108.894 205.254 108.894H213.384C215.568 108.894 216.756 110.694 216.036 112.86L211.962 125.136H210.6L214.668 112.86C215.148 111.426 214.368 110.256 212.934 110.256H204.804C204.036 110.306 203.298 110.58 202.683 111.042C202.067 111.504 201.599 112.136 201.336 112.86L196.746 126.714C196.356 127.884 196.806 128.88 197.76 129.204C197.851 129.234 197.935 129.283 198.007 129.346C198.079 129.409 198.138 129.485 198.18 129.571C198.223 129.657 198.248 129.75 198.254 129.846C198.26 129.942 198.247 130.037 198.216 130.128Z" fill="#450E8B"/>
<path d="M185.274 123.372H107.994C105.128 123.372 102.804 125.696 102.804 128.562V223.554C102.804 226.42 105.128 228.744 107.994 228.744H185.274C188.14 228.744 190.464 226.42 190.464 223.554V128.562C190.464 125.696 188.14 123.372 185.274 123.372Z" fill="#450E8B"/>
<path d="M124.14 162.732H52.14C51.1258 162.734 50.1537 163.138 49.4371 163.855C48.7205 164.573 48.318 165.546 48.318 166.56C48.3156 167.063 48.4127 167.562 48.6038 168.028C48.7948 168.494 49.0759 168.917 49.4311 169.274C49.7862 169.631 50.2083 169.914 50.6732 170.107C51.1381 170.301 51.6366 170.4 52.14 170.4H124.14V162.732Z" fill="#450E8B"/>
<path opacity="0.3" d="M124.14 172.5L102.894 182.118V170.376H124.14V172.5Z" fill="#263238"/>
<path opacity="0.7" d="M124.14 162.732H78.282C77.2678 162.734 76.2957 163.138 75.5791 163.855C74.8625 164.573 74.46 165.546 74.46 166.56C74.4616 167.573 74.8648 168.544 75.5812 169.261C76.2976 169.977 77.2688 170.38 78.282 170.382H124.14V162.732Z" fill="white"/>
<path opacity="0.7" d="M185.274 123.372H131.934C129.068 123.372 126.744 125.696 126.744 128.562V223.554C126.744 226.42 129.068 228.744 131.934 228.744H185.274C188.14 228.744 190.464 226.42 190.464 223.554V128.562C190.464 125.696 188.14 123.372 185.274 123.372Z" fill="white"/>
<path d="M83.274 170.382H76.764V228.744H83.274V170.382Z" fill="#450E8B"/>
<path opacity="0.7" d="M83.274 170.382H76.764V228.744H83.274V170.382Z" fill="white"/>
<path opacity="0.3" d="M83.274 172.914L76.764 174.324V170.376H83.274V172.914Z" fill="#450E8B"/>
<path opacity="0.3" d="M183.012 135.828H134.19C133.372 135.828 132.708 136.492 132.708 137.31V153.984C132.708 154.803 133.372 155.466 134.19 155.466H183.012C183.83 155.466 184.494 154.803 184.494 153.984V137.31C184.494 136.492 183.83 135.828 183.012 135.828Z" fill="#450E8B"/>
<path d="M95.694 113.046H60.114L56.508 162.738H99.3L95.694 113.046Z" fill="#450E8B"/>
<path opacity="0.3" d="M64.836 113.046H60.114L56.508 162.738H66.084L64.836 113.046Z" fill="#263238"/>
<path d="M80.07 119.106C76.746 119.106 73.77 116.772 73.272 113.664C73.1494 112.912 73.1842 112.142 73.3742 111.403C73.5643 110.665 73.9054 109.974 74.376 109.374C74.9227 108.696 75.6024 108.137 76.3732 107.732C77.144 107.326 77.9896 107.083 78.858 107.016C82.428 106.692 85.764 109.122 86.292 112.416C86.4139 113.17 86.3782 113.941 86.1871 114.68C85.9961 115.42 85.6538 116.112 85.182 116.712C84.6369 117.39 83.9584 117.95 83.1885 118.355C82.4186 118.761 81.5737 119.004 80.706 119.07C80.49 119.094 80.28 119.106 80.07 119.106ZM79.5 108.042C79.32 108.042 79.134 108.042 78.954 108.042C78.2298 108.097 77.5243 108.298 76.8806 108.635C76.2369 108.971 75.6685 109.435 75.21 109.998C74.8287 110.485 74.5523 111.045 74.3985 111.644C74.2446 112.243 74.2165 112.868 74.316 113.478C74.754 116.244 77.58 118.278 80.61 118.002C81.3342 117.947 82.0397 117.746 82.6834 117.41C83.3271 117.073 83.8955 116.609 84.354 116.046C84.7353 115.559 85.0116 114.999 85.1655 114.4C85.3194 113.801 85.3475 113.176 85.248 112.566C84.834 109.992 82.314 108.042 79.5 108.042Z" fill="#450E8B"/>
<path d="M77.4 119.106C77.19 119.106 76.98 119.106 76.764 119.106C75.8963 119.04 75.0514 118.797 74.2815 118.391C73.5116 117.986 72.8331 117.426 72.288 116.748C71.8156 116.148 71.4735 115.456 71.2834 114.716C71.0933 113.977 71.0594 113.205 71.184 112.452C71.706 109.152 75.042 106.722 78.612 107.052C79.4806 107.118 80.3264 107.361 81.0973 107.767C81.8682 108.172 82.5478 108.731 83.094 109.41C83.5659 110.009 83.9078 110.7 84.0979 111.439C84.288 112.177 84.3221 112.947 84.198 113.7C83.682 116.772 80.7 119.106 77.4 119.106ZM78 108.042C75.18 108.042 72.66 109.992 72.246 112.59C72.1465 113.2 72.1746 113.825 72.3285 114.424C72.4824 115.023 72.7587 115.583 73.14 116.07C73.5985 116.633 74.1669 117.097 74.8106 117.433C75.4543 117.77 76.1598 117.971 76.884 118.026C79.914 118.296 82.74 116.268 83.184 113.502C83.2841 112.891 83.2558 112.266 83.1008 111.667C82.9459 111.068 82.6677 110.508 82.284 110.022C81.8267 109.459 81.2593 108.995 80.6166 108.659C79.9739 108.322 79.2693 108.121 78.546 108.066C78.312 108.048 78.132 108.042 77.952 108.042H78Z" fill="#450E8B"/>
<path d="M141.606 45.3361H131.046V123.378H141.606V45.3361Z" fill="#450E8B"/>
<path opacity="0.3" d="M141.606 87.12H131.046V107.514L141.606 106.212V87.12Z" fill="#263238"/>
<path opacity="0.3" d="M141.606 45.87H131.046V51.804L141.606 50.502V45.87Z" fill="#263238"/>
<path d="M108.75 101.634L105.804 58.884C105.779 58.5238 105.829 58.1623 105.95 57.8221C106.071 57.4818 106.26 57.1701 106.507 56.9062C106.753 56.6423 107.051 56.4319 107.383 56.288C107.714 56.1442 108.071 56.07 108.432 56.07H174.078C174.745 56.0684 175.387 56.3205 175.875 56.775C176.363 57.2296 176.66 57.8527 176.706 58.518L179.646 101.268C179.672 101.628 179.623 101.99 179.502 102.331C179.381 102.672 179.192 102.984 178.945 103.248C178.699 103.512 178.4 103.722 178.069 103.866C177.737 104.009 177.379 104.083 177.018 104.082H111.372C110.706 104.083 110.064 103.831 109.577 103.377C109.09 102.922 108.794 102.299 108.75 101.634Z" fill="#263238"/>
<path d="M173.322 58.02H109.296C109.092 58.0203 108.891 58.0625 108.704 58.144C108.517 58.2254 108.349 58.3444 108.21 58.4934C108.071 58.6425 107.964 58.8185 107.896 59.0106C107.828 59.2027 107.8 59.4067 107.814 59.61L110.646 100.746C110.672 101.122 110.839 101.474 111.114 101.731C111.389 101.988 111.751 102.131 112.128 102.132H176.154C176.358 102.132 176.561 102.091 176.748 102.01C176.936 101.929 177.104 101.81 177.244 101.661C177.384 101.512 177.491 101.335 177.559 101.143C177.628 100.95 177.656 100.746 177.642 100.542L174.81 59.4C174.783 59.0244 174.614 58.6731 174.338 58.417C174.062 58.1609 173.699 58.019 173.322 58.02Z" fill="#450E8B"/>
<path opacity="0.8" d="M173.322 58.02H109.296C109.092 58.0203 108.891 58.0625 108.704 58.144C108.517 58.2254 108.349 58.3444 108.21 58.4934C108.071 58.6425 107.964 58.8185 107.896 59.0106C107.828 59.2027 107.8 59.4067 107.814 59.61L110.646 100.746C110.672 101.122 110.839 101.474 111.114 101.731C111.389 101.988 111.751 102.131 112.128 102.132H176.154C176.358 102.132 176.561 102.091 176.748 102.01C176.936 101.929 177.104 101.81 177.244 101.661C177.384 101.512 177.491 101.335 177.559 101.143C177.628 100.95 177.656 100.746 177.642 100.542L174.81 59.4C174.783 59.0244 174.614 58.6731 174.338 58.417C174.062 58.1609 173.699 58.019 173.322 58.02Z" fill="white"/>
<path d="M173.97 121.944H117.774V123.372H173.97V121.944Z" fill="#263238"/>
<path opacity="0.3" d="M158.328 97.314H116.04L113.694 63.258H155.982L158.328 97.314Z" fill="#450E8B"/>
<path opacity="0.3" d="M170.418 66.306H159.024L158.814 63.258H170.208L170.418 66.306Z" fill="#450E8B"/>
<path opacity="0.3" d="M171.258 78.5881H159.864L159.27 69.9001H170.664L171.258 78.5881Z" fill="#450E8B"/>
<path d="M146.634 33.066H125.388V48.924H146.634V33.066Z" fill="#450E8B"/>
<path opacity="0.3" d="M134.226 33.066H125.388V48.924H134.226V33.066Z" fill="#263238"/>
<path d="M192.48 101.286L193.65 99.7921C193.867 99.5149 194.148 99.294 194.469 99.1478C194.789 99.0017 195.14 98.9345 195.492 98.9521L198.828 99.1021C199.485 99.1347 200.124 99.3231 200.694 99.6518C201.264 99.9804 201.747 100.44 202.104 100.992L202.548 101.688C200.748 104.298 196.926 105.81 196.926 105.81L195.882 106.362C195.67 106.482 195.437 106.558 195.196 106.587C194.954 106.616 194.71 106.597 194.476 106.531C194.242 106.464 194.024 106.352 193.833 106.2C193.643 106.049 193.485 105.861 193.368 105.648L192.246 103.584C192.058 103.22 191.979 102.808 192.021 102.4C192.063 101.992 192.222 101.605 192.48 101.286Z" fill="#FF8B7B"/>
<path d="M204.09 71.3641C204.438 71.7901 204.69 72.0901 204.942 72.4501C205.194 72.8101 205.446 73.1401 205.692 73.4821C206.184 74.1781 206.634 74.8861 207.084 75.5941C207.958 77.0289 208.759 78.5068 209.484 80.0221C209.856 80.7781 210.192 81.5581 210.534 82.3381C210.876 83.1181 211.164 83.9161 211.44 84.7381C212.015 86.371 212.48 88.0408 212.832 89.7361L212.898 90.0121C212.94 90.2092 212.961 90.4104 212.958 90.6121C212.955 91.6844 212.752 92.7467 212.358 93.7441C212.023 94.5709 211.59 95.3545 211.068 96.0781C210.185 97.2668 209.138 98.3252 207.96 99.2221C206.906 100.031 205.786 100.749 204.612 101.37C203.456 101.984 202.252 102.504 201.012 102.924C200.527 103.09 200 103.087 199.518 102.914C199.035 102.742 198.625 102.411 198.356 101.975C198.086 101.539 197.972 101.025 198.033 100.516C198.093 100.007 198.325 99.534 198.69 99.1741L198.84 99.0301C199.578 98.2921 200.43 97.4941 201.168 96.7141C201.9 95.9631 202.589 95.1719 203.232 94.3441C203.793 93.6549 204.266 92.8992 204.642 92.0941C204.942 91.4221 204.906 90.8941 204.816 90.8941L204.942 91.7461C204.492 90.4501 204.012 89.1661 203.43 87.8881C202.848 86.6101 202.23 85.3561 201.534 84.1081C200.838 82.8601 200.124 81.6361 199.35 80.4361C198.966 79.8361 198.57 79.2361 198.15 78.6361L197.55 77.7721L196.998 76.9921L196.854 76.7881C196.202 75.8343 195.941 74.6661 196.127 73.5255C196.312 72.385 196.929 71.3595 197.85 70.6615C198.771 69.9635 199.925 69.6465 201.073 69.7762C202.222 69.9059 203.276 70.4723 204.018 71.3581L204.09 71.3641Z" fill="#FF8B7B"/>
<path d="M195.858 66.2761C194.166 70.1161 194.274 74.9101 199.458 82.2421C202.902 82.6201 209.274 78.1441 209.274 78.1441C209.274 78.1441 204.9 65.8741 195.858 66.2761Z" fill="#263238"/>
<path d="M192.972 52.9261C191.97 56.6461 190.734 63.4621 193.146 65.9401C193.146 65.9401 189.624 65.4121 182.148 70.0381C179.982 66.9301 181.59 65.9401 181.59 65.9401C185.79 64.9501 185.934 61.8781 185.424 58.9861L192.972 52.9261Z" fill="#FF8B7B"/>
<path d="M177.756 68.7061C178.866 66.3061 181.482 64.0201 183.288 64.3621C185.094 64.7041 186.192 65.2681 187.26 64.3621C188.328 63.4561 190.968 62.1361 192.312 63.6301C194.202 65.7181 197.064 64.2301 195.984 66.5161C194.82 69.0001 177.756 68.7061 177.756 68.7061Z" fill="#450E8B"/>
<path d="M179.454 46.098C179.382 46.608 179.058 47.004 178.734 46.98C178.41 46.956 178.206 46.524 178.278 46.014C178.35 45.504 178.674 45.114 178.998 45.138C179.322 45.162 179.532 45.6 179.454 46.098Z" fill="#263238"/>
<path d="M179.136 45.1741L177.996 44.7361C177.996 44.7361 178.47 45.7321 179.136 45.1741Z" fill="#263238"/>
<path d="M179.346 47.058C178.734 48.1878 177.98 49.2344 177.102 50.172C177.672 50.844 178.83 50.64 178.83 50.64L179.346 47.058Z" fill="#FF5652"/>
<path d="M178.608 42.0541C178.569 41.9892 178.556 41.912 178.572 41.8381C178.597 41.7637 178.649 41.7017 178.718 41.6648C178.788 41.628 178.868 41.6191 178.944 41.6401C179.415 41.7451 179.855 41.9581 180.23 42.2621C180.605 42.5661 180.904 42.9529 181.104 43.3921C181.119 43.4277 181.126 43.4662 181.124 43.5048C181.123 43.5434 181.113 43.5812 181.095 43.6155C181.077 43.6499 181.052 43.6799 181.022 43.7035C180.991 43.7271 180.956 43.7437 180.918 43.7521C180.841 43.7745 180.759 43.7679 180.687 43.7336C180.616 43.6992 180.559 43.6396 180.528 43.5661C180.364 43.2212 180.122 42.9187 179.823 42.6815C179.523 42.4444 179.173 42.279 178.8 42.1981C178.72 42.1753 178.652 42.1241 178.608 42.0541Z" fill="#263238"/>
<path d="M196.152 45.4621C195.018 51.4621 194.67 54.0241 191.244 56.9041C186.09 61.2421 179.004 58.9501 178.332 52.8241C177.732 47.3161 179.67 38.4241 185.856 36.4381C187.171 35.9562 188.591 35.8374 189.968 36.0939C191.345 36.3504 192.627 36.9729 193.681 37.8961C194.734 38.8192 195.519 40.0088 195.954 41.3401C196.389 42.6714 196.457 44.0952 196.152 45.4621Z" fill="#FF8B7B"/>
<path d="M182.7 47.4001C180.528 43.9981 178.176 39.7501 179.652 36.7981C181.128 33.8461 184.482 34.5481 184.482 34.5481C184.482 34.5481 190.98 30.9001 196.8 35.6521C204.516 41.9701 196.242 48.9241 194.196 54.9481C191.934 61.5781 180.27 53.5501 182.7 47.4001Z" fill="#263238"/>
<path d="M215.952 36.372C212.814 24.702 199.05 30.066 195.048 36.972L196.68 37.398C213.102 26.802 205.014 42.12 205.152 48.366C205.29 54.612 211.482 58.458 211.482 58.458C211.482 58.458 219.084 48.036 215.952 36.372Z" fill="#263238"/>
<path d="M211.8 57.0001C210.048 57.0001 207.6 56.6701 206.004 55.0561C204.564 53.5981 204.114 51.3721 204.678 48.4561C204.858 47.5321 205.146 46.4461 205.446 45.3001C206.394 41.7001 207.576 37.2721 205.716 35.7001C204.408 34.5901 201.654 34.9801 197.526 36.8461C197.508 36.855 197.489 36.8603 197.469 36.8615C197.45 36.8627 197.43 36.8599 197.411 36.8531C197.393 36.8464 197.376 36.8359 197.361 36.8223C197.347 36.8087 197.336 36.7923 197.328 36.7741C197.32 36.7559 197.316 36.7364 197.315 36.7167C197.315 36.6969 197.319 36.6772 197.326 36.6588C197.333 36.6404 197.344 36.6236 197.358 36.6094C197.371 36.5952 197.388 36.5839 197.406 36.5761C201.702 34.6261 204.486 34.2661 205.908 35.4721C207.912 37.1641 206.76 41.5261 205.74 45.3781C205.434 46.5181 205.14 47.5981 204.972 48.5161C204.432 51.3481 204.852 53.4841 206.22 54.8701C208.77 57.4501 213.834 56.5741 213.888 56.5621C213.908 56.5589 213.928 56.5597 213.947 56.5643C213.967 56.5689 213.985 56.5773 214.001 56.589C214.017 56.6007 214.031 56.6155 214.041 56.6325C214.052 56.6495 214.059 56.6684 214.062 56.6881C214.065 56.7078 214.064 56.7279 214.06 56.7473C214.055 56.7667 214.047 56.785 214.035 56.8012C214.023 56.8173 214.009 56.831 213.992 56.8415C213.975 56.8519 213.956 56.8589 213.936 56.8621C213.229 56.9634 212.515 57.0096 211.8 57.0001Z" fill="#263238"/>
<path d="M197.034 34.404C197.184 33.642 195.264 33.96 195.174 34.638C195.084 35.316 194.832 34.938 194.082 35.928C193.332 36.918 193.23 38.082 195.69 38.85C197.25 39.336 197.49 38.136 198.288 37.536C198.726 37.212 199.218 37.044 199.536 36.798C199.614 36.7371 199.673 36.6543 199.703 36.56C199.734 36.4658 199.736 36.3645 199.709 36.2692C199.682 36.1738 199.627 36.0886 199.551 36.0247C199.476 35.9607 199.383 35.9208 199.284 35.91C198.276 35.826 196.878 35.154 197.034 34.404Z" fill="#450E8B"/>
<path d="M183.804 49.5361C183.534 50.0553 183.159 50.5125 182.702 50.8782C182.246 51.244 181.718 51.5103 181.152 51.6601C179.742 51.9721 179.208 50.3461 179.742 48.7621C180.222 47.3461 181.542 45.4681 182.886 45.8761C184.23 46.2841 184.566 48.1621 183.804 49.5361Z" fill="#FF8B7B"/>
<path d="M209.478 231.702C214.14 231.006 214.23 230.232 216.732 229.356C218.874 228.6 219.474 228.708 221.202 228.126C222.648 227.64 222.156 226.266 221.202 224.802C220.728 224.07 220.656 223.374 220.134 222.072L213.048 223.122C212.364 225.102 212.118 227.634 208.074 229.08C205.668 229.944 207.6 231.978 209.478 231.702Z" fill="#263238"/>
<path d="M166.266 231.72C170.904 231.72 171.792 231.414 174.402 231.324C176.634 231.246 177 231.72 179.262 231.72C180.762 231.72 180.972 230.028 180.42 228.762C179.994 227.778 179.928 226.596 179.616 225.318H173.226C172.074 227.34 168.93 228.84 165.426 229.092C162.906 229.278 164.4 231.72 166.266 231.72Z" fill="#263238"/>
<path d="M171.684 105.378C171.684 105.378 170.76 138.726 172.74 159.906C172.614 179.784 173.226 225.306 173.226 225.306C173.382 226.32 178.71 225.906 179.616 225.306C179.616 225.306 189.606 192.144 185.172 159.906C196.266 126.27 193.872 105.378 193.872 105.378H171.684Z" fill="#263238"/>
<path d="M178.338 105.378C178.338 105.378 189.174 143.016 193.566 161.502C198.186 180.912 211.914 210.258 213.054 223.122C214.254 223.596 218.088 223.068 220.14 222.072C220.14 222.072 218.262 181.05 207.102 162.36C209.622 116.376 197.142 105.36 197.142 105.36L178.338 105.378Z" fill="#263238"/>
<path d="M212.13 220.548C212.239 221.43 212.285 222.318 212.268 223.206C212.262 223.283 212.272 223.36 212.298 223.433C212.323 223.505 212.363 223.572 212.416 223.628C212.468 223.684 212.532 223.729 212.602 223.76C212.673 223.791 212.749 223.806 212.826 223.806C215.478 223.806 219.144 222.678 220.302 222.282C220.41 222.247 220.504 222.179 220.57 222.087C220.637 221.996 220.673 221.885 220.674 221.772V219.258C220.673 219.178 220.655 219.098 220.621 219.025C220.587 218.952 220.537 218.888 220.476 218.836C220.414 218.784 220.342 218.746 220.264 218.725C220.187 218.703 220.105 218.699 220.026 218.712L212.562 219.966C212.431 219.992 212.314 220.066 212.234 220.174C212.154 220.281 212.117 220.415 212.13 220.548Z" fill="#450E8B"/>
<path d="M172.494 222.516C172.494 223.206 172.434 224.436 172.368 225.342C172.366 225.487 172.417 225.627 172.511 225.737C172.605 225.848 172.735 225.92 172.878 225.942C175.225 226.135 177.586 226.109 179.928 225.864C180.04 225.854 180.146 225.808 180.23 225.732C180.313 225.656 180.369 225.555 180.39 225.444L180.87 222.966C180.881 222.885 180.875 222.803 180.853 222.725C180.831 222.646 180.794 222.573 180.743 222.51C180.692 222.446 180.628 222.394 180.556 222.356C180.484 222.318 180.405 222.295 180.324 222.288L173.04 222C172.97 221.996 172.899 222.006 172.833 222.03C172.767 222.054 172.707 222.092 172.656 222.14C172.604 222.188 172.564 222.247 172.536 222.311C172.508 222.376 172.494 222.446 172.494 222.516Z" fill="#450E8B"/>
<path d="M170.244 75.408C170.102 79.2904 170.158 83.1774 170.412 87.054C170.61 92.112 170.958 97.086 171.684 105.378H197.142C196.632 98.208 197.466 90.036 202.038 73.902C202.308 73.0582 202.386 72.1646 202.266 71.2868C202.146 70.409 201.831 69.5691 201.344 68.8287C200.858 68.0883 200.211 67.4662 199.453 67.0079C198.695 66.5496 197.844 66.2668 196.962 66.18C195.954 66.078 194.88 65.994 193.782 65.94C189.935 65.6668 186.073 65.6668 182.226 65.94C180.966 66.054 179.664 66.216 178.422 66.39C176.226 66.7161 174.212 67.7928 172.721 69.437C171.23 71.0812 170.354 73.1912 170.244 75.408Z" fill="#263238"/>
<path d="M197.016 102.228C191.922 103.53 184.17 103.902 171.444 102.546C171.75 109.296 168.78 154.686 168.78 154.686C168.78 154.686 194.58 160.356 209.166 152.658C210.108 118.356 197.016 102.228 197.016 102.228Z" fill="#450E8B"/>
<path opacity="0.2" d="M187.278 129.6C187.278 129.6 194.28 123.078 197.736 118.626C197.46 123.294 193.29 127.482 187.278 129.6Z" fill="black"/>
<path d="M148.65 75.3721L150.342 76.2301C150.659 76.3878 150.934 76.6194 151.143 76.9056C151.352 77.1917 151.489 77.5239 151.542 77.8741L152.04 81.1741C152.143 81.8264 152.088 82.4941 151.88 83.1206C151.671 83.7472 151.314 84.3143 150.84 84.7741L150.24 85.3741C147.336 84.1381 145.104 80.6641 145.104 80.6641L144.36 79.7461C144.2 79.5618 144.079 79.3476 144.003 79.116C143.927 78.8844 143.898 78.64 143.918 78.3971C143.937 78.1541 144.005 77.9175 144.117 77.701C144.229 77.4845 144.383 77.2925 144.57 77.1361L146.37 75.6361C146.684 75.377 147.066 75.2142 147.471 75.1673C147.876 75.1205 148.285 75.1916 148.65 75.3721Z" fill="#FF8B7B"/>
<path d="M179.04 75.972C178.854 76.488 178.716 76.848 178.554 77.262C178.392 77.676 178.218 78.048 178.05 78.462C177.714 79.242 177.342 79.9921 176.964 80.7421C176.199 82.2427 175.354 83.7008 174.432 85.1101C173.976 85.8181 173.49 86.514 172.998 87.204C172.506 87.894 171.978 88.566 171.42 89.22C170.324 90.5603 169.138 91.8233 167.868 93L167.7 93.162C167.548 93.3068 167.381 93.4355 167.202 93.546C166.467 94.0026 165.653 94.3161 164.802 94.47C164.094 94.6002 163.37 94.6285 162.654 94.554C161.564 94.4235 160.5 94.1281 159.498 93.678C157.94 92.9598 156.482 92.0422 155.16 90.948C153.958 89.9658 152.823 88.9034 151.764 87.768C150.717 86.6586 149.741 85.4842 148.842 84.252C148.531 83.8253 148.379 83.3027 148.413 82.7755C148.448 82.2484 148.666 81.75 149.03 81.3672C149.394 80.9845 149.881 80.7417 150.406 80.6812C150.931 80.6207 151.46 80.7462 151.902 81.036L152.004 81.102C153.12 81.828 154.302 82.62 155.454 83.328C156.606 84.036 157.77 84.726 158.91 85.308C159.931 85.8589 161.009 86.2956 162.126 86.6101C162.45 86.7113 162.791 86.744 163.128 86.706C163.206 86.706 163.2 86.646 163.128 86.646C162.986 86.6505 162.846 86.6875 162.72 86.754L162.06 87.306C162.936 86.25 163.788 85.17 164.574 84.012C165.36 82.854 166.122 81.666 166.824 80.412C167.526 79.158 168.21 77.922 168.84 76.638C169.158 76.002 169.44 75.354 169.758 74.712L170.184 73.752L170.568 72.882L170.67 72.654C171.142 71.5927 172.007 70.7551 173.083 70.3166C174.158 69.878 175.362 69.8725 176.442 70.3011C177.521 70.7298 178.394 71.5594 178.876 72.6163C179.358 73.6733 179.412 74.8757 179.028 75.972H179.04Z" fill="#FF8B7B"/>
<path d="M179.124 66.294C174.966 66.834 170.922 69.414 167.34 77.658C168.804 80.802 175.932 83.94 175.932 83.94C175.932 83.94 184.152 73.8 179.124 66.294Z" fill="#263238"/>
</svg>
