<svg width="46" height="30" viewBox="0 0 46 30" fill="none" xmlns="http://www.w3.org/2000/svg">
<rect width="46" height="30" rx="15" fill="url(#paint0_linear_10_4264)"/>
<path fill-rule="evenodd" clip-rule="evenodd" d="M13.52 10.823C13 11.77 13 12.915 13 15.203V16.725C13 20.625 13 22.576 14.172 23.788C15.343 25 17.229 25 21 25H25C28.771 25 30.657 25 31.828 23.788C33 22.576 33 20.626 33 16.725V15.204C33 12.915 33 11.771 32.48 10.823C31.962 9.874 31.013 9.286 29.116 8.108L27.116 6.867C25.111 5.622 24.108 5 23 5C21.892 5 20.89 5.622 18.884 6.867L16.884 8.108C14.987 9.286 14.039 9.874 13.52 10.823ZM22.25 21C22.25 21.1989 22.329 21.3897 22.4697 21.5303C22.6103 21.671 22.8011 21.75 23 21.75C23.1989 21.75 23.3897 21.671 23.5303 21.5303C23.671 21.3897 23.75 21.1989 23.75 21V18C23.75 17.8011 23.671 17.6103 23.5303 17.4697C23.3897 17.329 23.1989 17.25 23 17.25C22.8011 17.25 22.6103 17.329 22.4697 17.4697C22.329 17.6103 22.25 17.8011 22.25 18V21Z" fill="white"/>
<defs>
<linearGradient id="paint0_linear_10_4264" x1="23" y1="0" x2="23" y2="30" gradientUnits="userSpaceOnUse">
<stop stop-color="#450E8B"/>
<stop offset="1" stop-color="#EC8C34"/>
</linearGradient>
</defs>
</svg>
