<svg width="24" height="24" viewBox="0 0 24 24" fill="none" xmlns="http://www.w3.org/2000/svg">
<path d="M9.60039 5.39999C9.60039 5.24086 9.6636 5.08825 9.77613 4.97573C9.88865 4.86321 10.0413 4.79999 10.2004 4.79999H21.0004C21.1595 4.79999 21.3121 4.86321 21.4247 4.97573C21.5372 5.08825 21.6004 5.24086 21.6004 5.39999C21.6004 5.55912 21.5372 5.71174 21.4247 5.82426C21.3121 5.93678 21.1595 5.99999 21.0004 5.99999H10.2004C10.0413 5.99999 9.88865 5.93678 9.77613 5.82426C9.6636 5.71174 9.60039 5.55912 9.60039 5.39999ZM9.60039 12.6C9.60039 12.4409 9.6636 12.2883 9.77613 12.1757C9.88865 12.0632 10.0413 12 10.2004 12H21.0004C21.1595 12 21.3121 12.0632 21.4247 12.1757C21.5372 12.2883 21.6004 12.4409 21.6004 12.6C21.6004 12.7591 21.5372 12.9117 21.4247 13.0243C21.3121 13.1368 21.1595 13.2 21.0004 13.2H10.2004C10.0413 13.2 9.88865 13.1368 9.77613 13.0243C9.6636 12.9117 9.60039 12.7591 9.60039 12.6ZM9.60039 19.8C9.60039 19.6409 9.6636 19.4883 9.77613 19.3757C9.88865 19.2632 10.0413 19.2 10.2004 19.2H21.0004C21.1595 19.2 21.3121 19.2632 21.4247 19.3757C21.5372 19.4883 21.6004 19.6409 21.6004 19.8C21.6004 19.9591 21.5372 20.1117 21.4247 20.2243C21.3121 20.3368 21.1595 20.4 21.0004 20.4H10.2004C10.0413 20.4 9.88865 20.3368 9.77613 20.2243C9.6636 20.1117 9.60039 19.9591 9.60039 19.8ZM2.40039 18.6C2.40039 18.1226 2.59003 17.6648 2.9276 17.3272C3.26516 16.9896 3.723 16.8 4.20039 16.8H5.40039C5.87778 16.8 6.33562 16.9896 6.67318 17.3272C7.01075 17.6648 7.20039 18.1226 7.20039 18.6V19.8C7.20039 20.2774 7.01075 20.7352 6.67318 21.0728C6.33562 21.4104 5.87778 21.6 5.40039 21.6H4.20039C3.723 21.6 3.26516 21.4104 2.9276 21.0728C2.59003 20.7352 2.40039 20.2774 2.40039 19.8V18.6ZM2.40039 11.4C2.40039 10.9226 2.59003 10.4648 2.9276 10.1272C3.26516 9.78964 3.723 9.59999 4.20039 9.59999H5.40039C5.87778 9.59999 6.33562 9.78964 6.67318 10.1272C7.01075 10.4648 7.20039 10.9226 7.20039 11.4V12.6C7.20039 13.0774 7.01075 13.5352 6.67318 13.8728C6.33562 14.2104 5.87778 14.4 5.40039 14.4H4.20039C3.723 14.4 3.26516 14.2104 2.9276 13.8728C2.59003 13.5352 2.40039 13.0774 2.40039 12.6V11.4ZM2.40039 4.19999C2.40039 3.7226 2.59003 3.26477 2.9276 2.9272C3.26516 2.58964 3.723 2.39999 4.20039 2.39999H5.40039C5.87778 2.39999 6.33562 2.58964 6.67318 2.9272C7.01075 3.26477 7.20039 3.7226 7.20039 4.19999V5.39999C7.20039 5.87738 7.01075 6.33522 6.67318 6.67279C6.33562 7.01035 5.87778 7.19999 5.40039 7.19999H4.20039C3.723 7.19999 3.26516 7.01035 2.9276 6.67279C2.59003 6.33522 2.40039 5.87738 2.40039 5.39999V4.19999Z" fill="#A3A3A4"/>
</svg>
