<svg width="46" height="30" viewBox="0 0 46 30" fill="none" xmlns="http://www.w3.org/2000/svg">
<rect width="46" height="30" rx="15" fill="url(#paint0_linear_3993_3054)"/>
<path d="M20.5999 8.39999C20.5999 8.24086 20.6631 8.08825 20.7756 7.97573C20.8882 7.86321 21.0408 7.79999 21.1999 7.79999H31.9999C32.159 7.79999 32.3116 7.86321 32.4242 7.97573C32.5367 8.08825 32.5999 8.24086 32.5999 8.39999C32.5999 8.55912 32.5367 8.71174 32.4242 8.82426C32.3116 8.93678 32.159 8.99999 31.9999 8.99999H21.1999C21.0408 8.99999 20.8882 8.93678 20.7756 8.82426C20.6631 8.71174 20.5999 8.55912 20.5999 8.39999ZM20.5999 15.6C20.5999 15.4409 20.6631 15.2883 20.7756 15.1757C20.8882 15.0632 21.0408 15 21.1999 15H31.9999C32.159 15 32.3116 15.0632 32.4242 15.1757C32.5367 15.2883 32.5999 15.4409 32.5999 15.6C32.5999 15.7591 32.5367 15.9117 32.4242 16.0243C32.3116 16.1368 32.159 16.2 31.9999 16.2H21.1999C21.0408 16.2 20.8882 16.1368 20.7756 16.0243C20.6631 15.9117 20.5999 15.7591 20.5999 15.6ZM20.5999 22.8C20.5999 22.6409 20.6631 22.4883 20.7756 22.3757C20.8882 22.2632 21.0408 22.2 21.1999 22.2H31.9999C32.159 22.2 32.3116 22.2632 32.4242 22.3757C32.5367 22.4883 32.5999 22.6409 32.5999 22.8C32.5999 22.9591 32.5367 23.1117 32.4242 23.2243C32.3116 23.3368 32.159 23.4 31.9999 23.4H21.1999C21.0408 23.4 20.8882 23.3368 20.7756 23.2243C20.6631 23.1117 20.5999 22.9591 20.5999 22.8ZM13.3999 21.6C13.3999 21.1226 13.5895 20.6648 13.9271 20.3272C14.2647 19.9896 14.7225 19.8 15.1999 19.8H16.3999C16.8773 19.8 17.3351 19.9896 17.6727 20.3272C18.0103 20.6648 18.1999 21.1226 18.1999 21.6V22.8C18.1999 23.2774 18.0103 23.7352 17.6727 24.0728C17.3351 24.4104 16.8773 24.6 16.3999 24.6H15.1999C14.7225 24.6 14.2647 24.4104 13.9271 24.0728C13.5895 23.7352 13.3999 23.2774 13.3999 22.8V21.6ZM13.3999 14.4C13.3999 13.9226 13.5895 13.4648 13.9271 13.1272C14.2647 12.7896 14.7225 12.6 15.1999 12.6H16.3999C16.8773 12.6 17.3351 12.7896 17.6727 13.1272C18.0103 13.4648 18.1999 13.9226 18.1999 14.4V15.6C18.1999 16.0774 18.0103 16.5352 17.6727 16.8728C17.3351 17.2104 16.8773 17.4 16.3999 17.4H15.1999C14.7225 17.4 14.2647 17.2104 13.9271 16.8728C13.5895 16.5352 13.3999 16.0774 13.3999 15.6V14.4ZM13.3999 7.19999C13.3999 6.7226 13.5895 6.26477 13.9271 5.9272C14.2647 5.58964 14.7225 5.39999 15.1999 5.39999H16.3999C16.8773 5.39999 17.3351 5.58964 17.6727 5.9272C18.0103 6.26477 18.1999 6.7226 18.1999 7.19999V8.39999C18.1999 8.87738 18.0103 9.33522 17.6727 9.67279C17.3351 10.0104 16.8773 10.2 16.3999 10.2H15.1999C14.7225 10.2 14.2647 10.0104 13.9271 9.67279C13.5895 9.33522 13.3999 8.87738 13.3999 8.39999V7.19999Z" fill="white"/>
<defs>
<linearGradient id="paint0_linear_3993_3054" x1="23" y1="0" x2="23" y2="30" gradientUnits="userSpaceOnUse">
<stop stop-color="#450E8B"/>
<stop offset="1" stop-color="#EC8C34"/>
</linearGradient>
</defs>
</svg>
