<svg width="193" height="340" viewBox="0 0 193 340" fill="none" xmlns="http://www.w3.org/2000/svg">
<path d="M93.5847 0.410964C94.8095 0.229366 96.1501 0.0642759 96.5639 0.031258C96.9777 -0.018269 97.7225 -0.00176001 98.219 0.031258C98.7155 0.0807849 99.2617 0.179839 99.4106 0.262384C99.5762 0.344929 99.9237 0.410964 100.205 0.410964C100.486 0.410964 101.132 0.526527 101.645 0.658599C102.175 0.790671 103.317 1.15387 104.177 1.45103C105.038 1.7647 106.379 2.32601 107.157 2.6892C107.934 3.06891 108.977 3.61371 109.474 3.89436C109.97 4.17501 110.831 4.71981 111.377 5.08301C111.923 5.4462 112.9 6.15609 113.529 6.66787C114.158 7.16314 115.515 8.3848 116.508 9.39185C117.517 10.3989 118.709 11.7031 119.156 12.2974C119.603 12.8918 120.083 13.4861 120.215 13.6181C120.348 13.7502 121.059 14.7903 121.821 15.9294C122.582 17.0685 123.194 18.0426 123.211 18.1086C123.211 18.1911 123.525 18.7855 123.923 19.4293C124.32 20.0897 125.032 21.4434 125.512 22.4505C126.008 23.441 126.654 24.8938 126.968 25.6697C127.283 26.4456 127.762 27.6673 128.027 28.3937C128.309 29.1201 128.706 30.2757 128.938 30.9526C129.153 31.6294 129.368 32.4054 129.401 32.686C129.434 32.9667 129.583 33.4785 129.732 33.8416C129.898 34.2048 130.162 35.0633 130.361 35.7402C130.543 36.417 130.858 37.6882 131.073 38.5467C131.288 39.4052 131.503 40.4452 131.586 40.858C131.652 41.2707 131.702 41.6999 131.685 41.799C131.669 41.9145 131.735 42.0466 131.817 42.0961C131.9 42.1457 131.983 42.3768 131.983 42.6244C131.983 42.8886 132.082 43.615 132.215 44.2423C132.347 44.8696 132.612 46.5536 132.794 47.9568C132.993 49.3601 133.208 51.1761 133.274 52.0015C133.34 52.8105 133.373 54.0652 133.307 56.0462H125.114L124.998 55.1878C124.916 54.709 124.783 53.4873 124.701 52.4968C124.601 51.4897 124.452 50.3836 124.353 50.0205C124.254 49.6573 124.105 48.8318 124.039 48.2045C123.972 47.5771 123.823 46.6031 123.724 46.0583C123.608 45.5135 123.41 44.589 123.261 43.9947C123.112 43.4003 122.896 42.4758 122.764 41.931C122.632 41.3863 122.483 40.6103 122.433 40.1976C122.383 39.7849 122.284 39.3722 122.201 39.2896C122.135 39.1906 121.92 38.5632 121.738 37.8863C121.556 37.2095 121.076 35.6411 120.662 34.4195C120.265 33.1978 119.702 31.6294 119.421 30.9526C119.139 30.2757 118.908 29.6649 118.908 29.5823C118.908 29.5163 118.428 28.4432 117.832 27.1885C117.236 25.9504 116.756 24.9103 116.756 24.8773C116.756 24.8608 116.26 24.0023 115.664 22.9787C115.068 21.9717 113.959 20.2713 113.214 19.2312C112.486 18.1911 111.096 16.5402 110.136 15.5827C109.176 14.6252 108.1 13.6181 107.736 13.3375C107.372 13.0734 106.71 12.5781 106.246 12.2644C105.799 11.9507 104.707 11.3399 103.846 10.9272C102.986 10.5145 101.794 10.0192 101.198 9.82108C100.602 9.63948 99.9568 9.4909 99.7582 9.4909C99.5431 9.4909 99.3444 9.44138 99.3113 9.35883C99.2782 9.2928 98.4672 9.19374 97.5404 9.1112C96.5142 9.04516 95.0081 9.06167 93.833 9.16072C91.9131 9.34232 91.8138 9.35883 90.6055 10.0852C89.9269 10.498 88.7022 11.3234 87.8746 11.9342C87.0636 12.5451 85.6733 13.7502 84.7961 14.6087C83.9189 15.4672 82.7935 16.6558 82.2969 17.2501C81.817 17.8444 80.9398 18.9671 80.377 19.7595C79.8143 20.5684 79.3509 21.2453 79.3509 21.2948C79.3509 21.3444 79.1357 21.691 78.8709 22.0707C78.6061 22.467 77.8778 23.7382 77.2489 24.9268C76.6365 26.1154 75.8255 27.7333 75.4779 28.5588C75.1138 29.3842 74.6504 30.4903 74.4352 31.0351C74.2201 31.5799 73.6408 33.2143 73.1608 34.6671C72.6808 36.1199 72.085 37.9359 71.8533 38.7118C71.605 39.4877 71.4064 40.2141 71.4064 40.3132C71.4064 40.4287 71.3071 40.8745 71.1747 41.3037C71.0423 41.7495 70.8437 42.6574 70.7444 43.3343C70.6285 44.0112 70.4299 44.9852 70.2975 45.4805C70.1651 45.9757 69.8837 47.4285 69.6685 48.6997C69.4699 49.9709 69.172 52.0511 69.0231 53.3222C68.8741 54.5934 68.7582 55.8811 68.7582 56.7066H60.069L60.2014 54.4449C60.2676 53.1902 60.4 51.7539 60.4993 51.2586C60.5821 50.7634 60.731 49.7233 60.8138 48.9474C60.8965 48.1714 61.0786 47.1644 61.211 46.7187C61.3599 46.2564 61.4758 45.6786 61.4758 45.3979C61.4758 45.1173 61.6248 44.3083 61.8068 43.5819C61.9723 42.8556 62.2206 41.8155 62.3199 41.2707C62.4358 40.7259 62.6675 39.7188 62.833 39.042C62.9985 38.3651 63.2468 37.4241 63.3792 36.9784C63.5116 36.5161 63.8591 35.377 64.1405 34.4195C64.4219 33.4619 64.8357 32.1247 65.0674 31.4478C65.2991 30.771 65.5473 30.0611 65.6135 29.8795C65.6798 29.6979 65.8618 29.2522 65.9942 28.889C66.1432 28.5258 66.5239 27.5187 66.8549 26.6602C67.2024 25.8018 68.1293 23.7547 68.9403 22.1203C69.7513 20.4859 70.645 18.7359 70.9264 18.2407C71.2078 17.7454 71.6547 17.019 71.9195 16.6228C72.1843 16.2431 72.3995 15.8964 72.3995 15.8469C72.3995 15.7973 72.7801 15.2195 73.2436 14.5592C73.7235 13.9153 74.5676 12.7762 75.1304 12.0498C75.6931 11.3234 76.4213 10.531 76.7524 10.2668C77.0999 10.0192 77.3647 9.72203 77.3647 9.60647C77.3482 9.50741 77.9771 8.81404 78.7219 8.08764C79.4833 7.36124 80.6915 6.30467 81.4197 5.75987C82.148 5.21508 83.1576 4.50519 83.6541 4.19152C84.1506 3.86134 84.6803 3.54767 84.8127 3.48163C84.9451 3.43211 85.392 3.18447 85.8057 2.95335C86.2195 2.72222 87.1464 2.29299 87.8746 1.99583C88.6029 1.69867 89.6787 1.28594 90.2745 1.08783C90.8703 0.906234 92.3599 0.592563 93.5847 0.410964Z" fill="#ED1383"/>
<path fill-rule="evenodd" clip-rule="evenodd" d="M167.328 68.0889C167.261 68.4237 166.939 68.7585 166.263 69.1991C165.722 69.5516 163.542 71.2082 161.395 72.8647C159.266 74.5213 156.139 76.8828 154.465 78.134C152.792 79.3853 149.749 81.5705 147.704 82.998C145.659 84.4255 142.583 86.5226 140.859 87.6329C139.135 88.7431 136.548 90.3821 135.112 91.2632C133.675 92.1267 131.004 93.6952 129.196 94.7173C127.387 95.7571 124.091 97.5194 121.894 98.6649L119.037 100.129C119.017 100.028 118.989 99.9689 118.957 99.9767C118.875 99.9767 118.262 100.241 117.584 100.555C116.905 100.885 115.118 101.677 113.611 102.338C112.105 103.014 109.54 104.087 107.901 104.748C106.263 105.408 103.764 106.366 102.357 106.894C100.95 107.422 98.4508 108.314 96.8122 108.859C95.1737 109.42 92.2276 110.361 90.2746 110.955C88.3215 111.55 85.3424 112.408 83.6542 112.854C81.966 113.299 78.9868 114.042 77.0338 114.488C75.0808 114.934 72.3498 115.528 70.9927 115.792C69.6189 116.073 67.3846 116.486 66.0274 116.717C64.6536 116.948 62.32 117.328 60.8138 117.542C59.3077 117.757 56.8085 118.087 55.2692 118.269C53.73 118.467 51.2308 118.714 49.7247 118.846C48.2185 118.995 45.6531 119.193 44.0146 119.309C42.1112 119.441 37.6755 119.523 31.6841 119.523C26.5367 119.523 21.4556 119.474 20.3798 119.408L18.4433 119.276V120.266C37.7207 120.266 54.3111 120.267 68.5869 120.269C33.4748 120.281 18.1056 120.334 18.0627 120.448C18.0296 120.53 17.9138 121.025 17.798 121.521L17.7979 121.521C17.6986 122.016 17.5331 122.842 17.4503 123.37C17.351 123.882 17.2683 124.575 17.2683 124.889C17.2683 125.202 17.1193 126.094 16.9373 126.87C16.7552 127.646 16.5566 128.752 16.5069 129.346C16.4738 129.94 16.358 130.65 16.2752 130.914C16.1925 131.195 16.0104 132.186 15.878 133.143C15.7621 134.101 15.5801 135.207 15.4973 135.619C15.4861 135.675 15.4743 135.736 15.462 135.801H15.2981V136.437C15.2981 136.783 15.2144 137.074 15.1307 137.074C15.047 137.074 14.9633 137.31 14.9633 137.619C14.9633 137.928 14.8796 138.765 14.7792 139.492C14.6788 140.201 14.4779 141.456 14.344 142.256C14.1934 143.056 14.026 144.238 13.959 144.892C13.8921 145.547 13.7247 146.729 13.574 147.529C13.4234 148.329 13.189 149.765 13.0551 150.711C12.9212 151.656 12.7204 153.165 12.6199 154.074C12.596 154.291 12.5711 154.513 12.5466 154.73H12.0688C11.7506 155.466 11.6501 156.018 11.6501 156.441C11.6501 156.882 11.4994 157.894 11.3152 158.704C11.131 159.514 10.9803 160.452 10.9803 160.765C10.9803 161.096 10.863 161.924 10.7123 162.605C10.5616 163.304 10.3774 164.445 10.3104 165.144C10.2267 165.844 10.0592 166.966 9.90847 167.628C9.7745 168.291 9.65727 169.211 9.64052 169.689C9.64052 170.186 9.57353 170.72 9.4898 170.885C9.40607 171.069 9.20511 172.339 9.05439 173.701C8.9592 174.561 8.85066 175.406 8.7625 175.977L8.51127 175.977L8.39522 177.143C8.34549 177.789 8.22943 178.507 8.12996 178.758C8.04707 179.01 7.89786 179.799 7.81497 180.517C7.73207 181.217 7.54971 182.545 7.38392 183.425L7.2706 184.094L7.27057 184.095L7.27049 184.095C7.12182 184.974 6.92926 186.113 6.78709 186.925C6.6213 187.966 6.47209 189.114 6.47209 189.491C6.47209 189.85 6.40578 190.299 6.32289 190.46C6.23999 190.64 6.04105 191.824 5.90842 193.117C5.75921 194.409 5.52711 195.97 5.41106 196.616C5.27843 197.262 5.09606 198.393 4.99659 199.129C4.91782 199.712 4.82865 200.351 4.77025 200.725C4.70664 200.733 4.67778 200.741 4.67406 200.75V200.767C4.64059 200.868 4.57366 201.307 4.54019 201.73C4.50673 202.152 4.35613 203.098 4.20553 203.842C4.05494 204.585 3.78721 206.106 3.60315 207.221C3.40235 208.336 3.25176 209.502 3.25176 209.79C3.25176 210.094 3.16809 210.516 3.08443 210.719C2.98403 210.938 2.79997 211.902 2.6661 212.882C2.53224 213.862 2.34818 215.112 2.24778 215.67C2.14738 216.227 1.99679 217.173 1.91312 217.782C1.82946 218.39 1.67886 219.302 1.57846 219.809C1.47807 220.316 1.32747 221.229 1.24381 221.837C1.17687 222.445 0.992812 223.544 0.858948 224.287C0.708352 225.031 0.52429 226.163 0.423892 226.822C0.323495 227.464 0.172898 228.528 0.0892338 229.187C-0.0613626 230.184 -0.0278967 230.573 0.23983 231.722C0.423892 232.465 0.658153 233.293 0.758551 233.58C0.812098 233.704 0.9216 233.972 1.05988 234.311L1.06002 234.312C1.22419 234.714 1.42889 235.216 1.62866 235.693C2.01352 236.571 2.6661 237.906 3.08443 238.65C3.51948 239.393 4.1888 240.491 4.60712 241.1C5.00871 241.708 6.06289 242.924 6.933 243.82C7.80311 244.716 9.05808 245.78 9.69393 246.202C10.3298 246.625 11.317 247.166 11.8692 247.402C12.4214 247.639 13.1576 247.875 13.509 247.926L14.1282 248.027C13.9441 246.338 13.9776 246.033 14.1449 245.898C14.2788 245.797 15.7011 245.121 17.3074 244.378C18.9138 243.651 22.5281 241.894 25.3392 240.474C28.1504 239.072 31.4635 237.365 32.7017 236.689C33.9399 236.03 36.316 234.713 37.9726 233.783C39.6291 232.854 42.2227 231.367 43.7454 230.488C45.2681 229.593 47.9287 228.004 49.6856 226.94C51.4426 225.875 54.1868 224.152 55.7931 223.138C57.3995 222.107 60.4449 220.114 62.57 218.711C64.6951 217.292 67.707 215.23 69.2632 214.132C70.8193 213.051 73.5802 211.074 75.3707 209.756C77.1611 208.438 80.1061 206.241 81.8965 204.872C83.1759 203.882 84.3869 202.936 85.0595 202.389L85.2209 202.539C86.3146 201.642 88.0046 200.171 89.6948 198.7L89.696 198.699L89.6965 198.699L89.6969 198.698L89.6971 198.698C91.3882 197.227 93.0958 195.701 93.5102 195.324C93.9247 194.947 94.4221 194.624 94.6376 194.642C94.9857 194.642 95.0023 194.588 94.9194 193.511C94.8834 193.18 94.8228 192.572 94.7537 191.879L94.7535 191.876C94.6956 191.295 94.6317 190.654 94.5713 190.065C94.4459 188.844 94.2018 186.659 94.0215 185.044L93.991 184.771C93.8292 183.322 93.6153 181.323 93.4764 180.025L93.4273 179.566C93.3611 179.016 93.3014 178.456 93.2526 177.973C93.2929 177.97 93.3008 177.969 93.3008 177.969V176.143C93.3008 176.143 93.2237 173.406 93.0395 171.585C92.8385 169.763 92.5706 167.352 92.4198 166.248C92.2859 165.144 92.1017 163.396 92.0347 162.384C91.9509 161.372 91.817 160.176 91.7165 159.716C91.6328 159.256 91.482 158.078 91.415 157.066C91.3836 156.6 91.3412 156.167 91.2963 155.834C91.3157 154.634 91.4019 154.459 91.6599 154.256C91.8775 154.111 92.3294 153.983 92.6642 153.983C93.0157 153.983 93.5514 154.111 93.8359 154.274C94.1372 154.438 94.9239 154.929 95.56 155.347C96.1961 155.765 97.5854 156.693 98.6064 157.42C99.4933 158.026 100.27 158.539 100.509 158.675C100.56 158.738 100.655 158.782 100.833 158.867L100.834 158.867C101.177 159.03 101.832 159.339 103.096 160.205C104.586 161.217 106.416 162.197 106.416 162.197L108.574 163.359L109.902 164.189L111.064 164.854L111.729 165.352L113.223 166.34L114.717 167.344L115.879 168.174L118.535 170.332L120.029 171.585C120.029 171.585 122.715 168.512 124.523 166.34C126.332 164.169 128.978 160.894 130.402 159.072C131.001 158.305 131.565 157.576 132.022 156.981C132.775 157.009 133.134 157.046 133.232 157.094C133.283 157.174 133.329 157.199 133.255 157.111C133.251 157.105 133.243 157.1 133.232 157.094C133.168 156.993 133.096 156.801 133.255 156.638C133.304 156.59 133.427 156.505 133.6 156.386C134.142 156.011 135.172 155.299 135.883 154.347C136.821 153.092 138.712 150.474 140.102 148.529C141.491 146.583 143.6 143.51 144.788 141.71C145.921 140.019 147.068 138.247 147.466 137.632L147.467 137.631L147.467 137.631L147.534 137.528L148.086 136.619L147.952 136.496C148.132 136.233 148.322 135.956 148.518 135.669C149.593 134.051 151.282 131.426 152.291 129.841C153.284 128.256 154.741 125.879 155.519 124.558C156.114 123.547 156.671 122.584 156.951 122.099L156.952 122.098L156.953 122.096C157.038 121.95 157.097 121.848 157.124 121.801C157.254 121.514 157.258 121.402 157.038 121.181C157.126 121.234 157.213 121.265 157.273 121.257C157.372 121.257 158.018 120.266 158.696 119.078C159.358 117.872 160.649 115.512 161.543 113.828C162.437 112.144 163.794 109.469 164.555 107.885C165.317 106.3 166.244 104.368 166.591 103.592C166.701 103.358 166.804 103.132 166.893 102.93H167.227C168.782 99.176 169.627 97.0964 170.117 95.8805L170.996 93.6776C170.81 89.307 170.726 87.439 170.692 86.7165C170.641 85.9939 170.506 84.7603 170.354 83.9849C170.219 83.2095 170.066 82.1345 170.016 81.6058C169.982 81.0771 169.88 80.3193 169.779 79.9316C169.695 79.5439 169.661 79.1209 169.695 79.0152C169.728 78.8918 169.695 78.6803 169.61 78.5746C169.526 78.4512 169.424 77.9049 169.373 77.3762C169.323 76.8475 169.187 75.8078 169.086 75.0852C168.985 74.3627 168.866 73.7283 168.833 73.6754C168.799 73.6225 168.697 73.1114 168.596 72.5299C168.529 72.0706 168.357 71.1828 168.196 70.3523C168.153 70.1311 168.111 69.914 168.072 69.7102C167.869 68.7409 167.649 67.8598 167.565 67.7717C167.48 67.6659 167.379 67.7893 167.328 68.0889ZM156.032 120.481C156.276 120.596 156.583 120.785 156.746 120.93C156.532 120.772 156.24 120.597 156.015 120.497C155.941 120.466 155.643 120.438 154.952 120.414C155.696 120.434 155.968 120.456 156.032 120.481Z" fill="url(#paint0_linear_1433_5709)"/>
<path d="M132.115 157.494C132.413 157.131 133.373 155.958 134.25 154.885C135.657 153.168 135.872 152.97 136.104 153.168C136.286 153.334 136.981 153.449 138.107 153.515C139.149 153.565 139.944 153.697 140.076 153.812C140.192 153.928 140.358 154.176 140.424 154.357C140.523 154.588 140.424 154.852 140.126 155.265C139.894 155.579 138.802 156.999 137.71 158.402C136.617 159.805 135.69 160.994 135.641 161.043C135.574 161.093 135.094 161.687 134.548 162.364C134.002 163.041 132.943 164.345 132.181 165.253C131.42 166.161 130.477 167.267 130.096 167.729C129.699 168.175 128.838 169.182 128.176 169.958C127.514 170.734 126.918 171.394 126.869 171.444C126.802 171.493 126.273 172.071 125.694 172.748C125.098 173.408 124.452 174.019 124.254 174.102C123.939 174.217 123.807 174.168 123.542 173.838C123.36 173.607 123.095 173.425 122.963 173.425C122.83 173.425 122.714 173.375 122.714 173.293C122.731 173.227 122.267 172.88 121.688 172.517C121.125 172.154 120.513 171.807 120.364 171.725C120.199 171.659 120.066 171.493 120.066 171.361C120.066 171.229 121.539 169.496 123.343 167.515C125.147 165.55 127.729 162.628 129.086 161.043C130.46 159.458 131.817 157.857 132.115 157.494Z" fill="#C6281C"/>
<path d="M88.6193 199.905C90.1255 198.7 91.9792 197.198 92.7571 196.554C93.5846 195.861 94.3128 195.382 94.5446 195.382C94.8259 195.382 94.9418 195.514 95.0576 195.993C95.1404 196.339 95.3225 197.776 95.7693 201.738L95.0576 202.398C94.6604 202.761 93.8991 203.422 93.3529 203.884C92.8233 204.33 92.2605 204.792 92.1116 204.908C91.9626 205.023 91.7474 205.122 91.6481 205.122C91.5323 205.122 89.331 206.658 86.7656 208.54C84.1836 210.405 81.3038 212.518 80.3438 213.212C79.3839 213.905 78.0929 214.846 77.4474 215.308C76.8185 215.771 75.1799 216.91 73.8062 217.867C72.449 218.808 69.9995 220.476 68.3609 221.565C66.7389 222.638 64.3225 224.223 62.9818 225.065C61.6578 225.907 59.9861 226.947 59.2744 227.376C58.5627 227.806 57.7517 228.284 57.4538 228.466C57.1559 228.631 56.1794 229.225 55.2691 229.77C54.3588 230.315 53.465 230.893 53.283 231.041C53.1009 231.206 51.5617 232.164 49.8569 233.171C48.1356 234.178 46.7122 235.003 46.6626 235.003C46.6129 235.003 45.4047 235.664 43.9813 236.473C42.5414 237.282 39.9925 238.685 38.3043 239.593C36.6161 240.484 34.1335 241.789 32.7597 242.482C31.4026 243.159 28.6717 244.463 26.7186 245.371C24.7656 246.279 22.5643 247.27 21.8361 247.567C21.1079 247.864 20.4789 248.161 20.4293 248.211C20.3796 248.26 19.7341 248.508 17.6156 249.201L16.755 248.706C16.0598 248.326 15.6791 248.211 13.9744 248.211L13.8751 247.253C13.8089 246.741 13.8254 246.213 13.9082 246.098C13.9909 245.965 15.2157 245.355 16.6225 244.727C18.0294 244.083 21.654 242.35 24.6498 240.864C27.662 239.378 31.1212 237.628 32.346 236.968C33.5707 236.324 35.921 235.037 37.5595 234.129C39.1981 233.221 41.7635 231.768 43.2696 230.909C44.7758 230.034 47.4239 228.482 49.1452 227.442C50.8831 226.402 53.5643 224.751 55.1036 223.777C56.6594 222.803 59.3737 221.053 61.1447 219.898C62.9156 218.726 65.5638 216.959 67.0203 215.952C68.4768 214.962 70.976 213.212 72.5649 212.089C74.1538 210.95 77.0998 208.804 79.1025 207.301C81.1052 205.799 83.4554 204.016 84.3161 203.323C85.1767 202.646 87.1132 201.111 88.6193 199.905Z" fill="#C6281C"/>
<path fill-rule="evenodd" clip-rule="evenodd" d="M171.308 99.3328C171.176 99.6299 170.861 100.406 170.63 101.033C170.484 101.401 170.293 101.899 170.113 102.369C169.986 102.7 169.865 103.016 169.769 103.262C169.554 103.856 169.107 104.962 168.776 105.738C168.461 106.514 168.13 107.274 168.048 107.422C167.965 107.587 167.899 107.868 167.899 108.05C167.899 108.231 167.849 108.413 167.783 108.446C167.7 108.479 167.601 108.693 167.534 108.941C167.452 109.172 166.839 110.608 166.144 112.127C165.449 113.663 163.86 116.948 162.602 119.441C161.361 121.934 159.573 125.351 158.63 127.035C157.703 128.719 156.412 130.98 155.767 132.07C155.121 133.16 153.847 135.273 152.92 136.775C151.993 138.277 150.586 140.49 149.792 141.678C149.014 142.883 148.402 143.957 148.451 144.039C148.465 144.072 148.905 144.099 149.759 144.122H148.203L147.591 145.03C147.447 145.234 147.163 145.641 146.802 146.157L146.787 146.179L146.785 146.182C146.275 146.912 145.617 147.853 144.992 148.744C143.9 150.279 142.592 152.112 142.096 152.789C141.583 153.466 140.888 154.357 140.557 154.77C140.226 155.183 139.001 156.734 137.842 158.237C136.684 159.739 135.691 160.994 135.641 161.043C135.591 161.093 135.095 161.687 134.549 162.364C134.002 163.041 132.943 164.345 132.182 165.253C131.825 165.679 131.456 166.116 131.142 166.489L131.138 166.494C130.785 166.913 130.5 167.251 130.378 167.399C130.146 167.68 129.749 168.142 129.484 168.439C129.219 168.72 129.037 169.05 129.087 169.133C129.095 169.152 129.375 169.17 129.922 169.186L128.822 169.215L127.978 170.206C127.514 170.751 127.051 171.262 126.952 171.361C126.852 171.46 126.24 172.121 125.594 172.847C124.618 173.937 124.419 174.251 124.469 174.63C124.502 174.878 124.618 175.076 124.701 175.076C124.783 175.076 125.214 175.324 125.661 175.621C126.091 175.918 127.316 176.71 128.375 177.387C128.847 177.684 129.305 177.971 129.684 178.208L129.686 178.209C130.171 178.513 130.526 178.735 130.609 178.79C130.775 178.89 131.321 179.22 131.818 179.55C132.314 179.88 134.002 180.953 135.542 181.927C136.568 182.576 137.66 183.262 138.421 183.741L138.422 183.741C138.803 183.98 139.1 184.167 139.266 184.271C139.762 184.602 140.375 184.998 140.639 185.163C140.888 185.345 141.119 185.477 141.169 185.477C141.219 185.477 141.682 185.757 142.212 186.12C142.725 186.467 144.016 187.293 145.058 187.953C145.704 188.362 146.438 188.821 147.022 189.186C147.381 189.411 147.683 189.6 147.872 189.719C148.369 190.05 148.981 190.446 149.246 190.611C149.494 190.793 149.726 190.925 149.775 190.925C149.825 190.925 150.206 191.172 150.653 191.469C150.756 191.536 150.862 191.606 150.967 191.676C151.055 191.733 151.142 191.79 151.225 191.845C151.458 191.998 151.659 192.131 151.762 192.196C151.892 192.267 152.474 192.635 153.209 193.1L153.21 193.101C153.498 193.284 153.811 193.481 154.128 193.682L154.216 193.738C155.307 194.436 156.592 195.259 157.108 195.58C157.621 195.91 158.614 196.538 159.292 196.95C159.971 197.363 161.229 198.139 162.073 198.684C162.9 199.229 163.629 199.674 163.678 199.674C163.725 199.674 163.921 199.482 164.138 199.223C163.943 199.576 163.843 199.831 163.877 199.856C163.943 199.906 164.969 200.549 166.161 201.276C168.047 202.448 168.345 202.696 168.61 203.29C168.776 203.686 168.891 204.363 168.891 204.924C168.875 205.799 168.842 205.915 168.263 206.443C167.799 206.889 167.418 207.07 166.657 207.219C166.275 207.3 165.779 207.397 165.374 207.476L165.371 207.477L165.37 207.477L165.367 207.478L165.365 207.478L165.117 207.527L164.919 207.566C164.505 207.665 163.546 207.945 162.768 208.193C161.99 208.441 160.616 208.886 159.706 209.184C158.795 209.481 156.892 210.141 155.485 210.636L154.704 210.911L154.696 210.914L154.691 210.916C153.463 211.348 152.15 211.81 151.513 212.04C150.824 212.274 149.836 212.637 149.182 212.878L149.182 212.878L149.18 212.879L149.179 212.879L148.948 212.964C148.385 213.186 147.664 213.446 147.258 213.594L147.127 213.641C146.763 213.79 146.299 213.938 146.084 213.971C145.886 214.004 145.67 214.202 145.621 214.417C145.538 214.681 145.786 215.193 146.581 216.431C146.913 216.937 147.573 217.939 148.338 219.101L148.344 219.109L148.36 219.134C148.964 220.05 149.632 221.064 150.255 222.011C150.914 223.012 151.46 223.874 151.897 224.564L151.897 224.564C152.68 225.799 153.116 226.488 153.232 226.445C153.239 226.443 153.266 226.441 153.314 226.439C153.563 226.907 154.007 227.642 154.525 228.433C155.199 229.494 156.925 232.109 158.678 234.764L158.682 234.77L158.685 234.774L158.687 234.777L158.689 234.781L159.152 235.482L159.871 236.572C163.496 242.036 163.761 242.383 164.605 242.878C165.102 243.175 166.128 243.704 166.906 244.067C167.683 244.43 168.908 244.909 169.636 245.14C170.365 245.371 171.523 245.668 172.202 245.8C173.046 245.965 174.155 246.032 175.678 245.982C177.084 245.949 178.309 245.833 178.988 245.652C179.584 245.503 180.626 245.123 181.305 244.793C181.984 244.48 182.993 243.902 183.539 243.506C184.085 243.109 184.88 242.466 185.294 242.069C185.707 241.673 186.452 240.831 186.965 240.204C187.478 239.56 188.207 238.52 188.587 237.893C188.985 237.249 189.547 236.209 189.862 235.581C190.176 234.937 190.689 233.749 191.02 232.94C191.335 232.131 191.732 231.041 191.881 230.546C192.047 230.051 192.262 229.308 192.344 228.895C192.427 228.482 192.46 227.624 192.411 226.997L192.363 226.445H192.412C192.276 224.297 192.03 222.565 191.924 221.822L191.924 221.822C191.914 221.748 191.905 221.685 191.897 221.631C191.815 221.037 191.633 219.601 191.484 218.412C191.335 217.223 191.086 215.341 190.904 214.202C190.836 213.733 190.751 213.154 190.664 212.562L190.662 212.546C190.538 211.708 190.412 210.847 190.325 210.24C190.246 209.687 190.143 208.995 190.047 208.345L190.047 208.345C189.962 207.773 189.883 207.235 189.828 206.856C189.696 206.047 189.58 205.122 189.58 204.842C189.58 204.545 189.514 204.264 189.415 204.214C189.315 204.165 189.282 204.033 189.315 203.934C189.349 203.818 189.299 203.158 189.166 202.481C189.051 201.804 188.918 201.127 188.869 200.995C188.819 200.863 188.736 200.335 188.686 199.84C188.656 199.535 188.509 198.863 188.396 198.355L188.422 198.354C188.306 196.62 188.19 195.91 188.108 195.63C188.025 195.349 187.909 194.606 187.859 193.979C187.81 193.351 187.644 192.394 187.512 191.866C187.379 191.354 187.263 190.644 187.263 190.314C187.263 189.967 187.164 189.092 187.032 188.366C186.899 187.639 186.668 186.236 186.519 185.229C186.436 184.671 186.328 183.98 186.228 183.344C186.148 182.832 186.074 182.355 186.022 182.01C185.955 181.618 185.859 181.019 185.754 180.369L185.754 180.368C185.651 179.732 185.541 179.048 185.443 178.46C185.363 177.939 185.264 177.318 185.167 176.71L185.166 176.708L185.166 176.706C185.042 175.929 184.921 175.172 184.847 174.663C184.715 173.755 184.483 172.418 184.35 171.692C184.218 170.965 184.119 170.173 184.119 169.925C184.119 169.766 184.032 169.302 183.941 168.947C183.91 168.691 183.826 168.138 183.721 167.564C183.589 166.838 183.357 165.468 183.208 164.51C183.145 164.104 183.067 163.617 182.989 163.132L182.989 163.13L182.988 163.123C182.883 162.468 182.778 161.818 182.712 161.374C182.596 160.598 182.331 159.014 182.133 157.825L182.133 157.824C181.951 156.635 181.686 155.051 181.553 154.275C181.487 153.829 181.382 153.175 181.276 152.518L181.276 152.517C181.198 152.032 181.12 151.545 181.057 151.138C180.967 150.562 180.848 149.838 180.742 149.194L180.741 149.19L180.741 149.19C180.671 148.763 180.606 148.373 180.56 148.084C180.428 147.357 180.246 146.169 180.146 145.442L179.948 144.122H178.675C179.569 144.078 179.713 144.01 179.749 143.907C179.815 143.758 179.782 143.329 179.666 142.966C179.567 142.603 179.451 141.827 179.402 141.233C179.335 140.638 179.253 140.077 179.203 139.994C179.137 139.912 179.037 139.351 178.971 138.756C178.918 138.275 178.842 137.654 178.789 137.216C178.777 137.112 178.766 137.019 178.756 136.94C178.706 136.528 178.508 135.273 178.309 134.134C178.127 132.995 177.862 131.476 177.713 130.749C177.581 130.023 177.449 129.214 177.432 128.933C177.415 128.653 177.3 127.811 177.184 127.035C177.068 126.259 176.902 125.5 176.82 125.334C176.737 125.186 176.671 124.773 176.671 124.426C176.671 124.096 176.571 123.403 176.439 122.908C176.306 122.412 176.158 121.471 176.091 120.844C176.042 120.217 175.942 119.606 175.876 119.523C175.827 119.441 175.727 118.83 175.661 118.203C175.595 117.575 175.413 116.221 175.264 115.231C175.115 114.24 174.916 113.25 174.833 113.035C174.751 112.837 174.684 112.391 174.684 112.045C174.684 111.715 174.536 110.658 174.37 109.7C174.188 108.743 173.956 107.422 173.857 106.762C173.774 106.118 173.691 105.359 173.691 105.078C173.691 104.797 173.625 104.55 173.526 104.5C173.427 104.451 173.36 104.17 173.36 103.873C173.36 103.592 173.245 102.635 173.112 101.776C172.98 100.918 172.798 99.9106 172.731 99.5474C172.632 98.9531 172.549 98.887 172.086 98.8375C171.623 98.788 171.523 98.854 171.308 99.3328ZM93.2535 203.95C93.5997 203.651 94.0666 203.263 94.4578 202.939L94.4599 202.937C94.629 202.797 94.7839 202.668 94.9086 202.563C95.5707 202.019 95.6534 201.986 95.7527 202.266C95.8189 202.431 95.8851 203.009 95.9182 203.554C95.9348 204.099 96.0175 204.726 96.0837 204.957C96.1499 205.188 96.2989 206.179 96.3982 207.186C96.4496 207.707 96.5055 208.286 96.5543 208.792L96.5545 208.795L96.5573 208.824L96.5592 208.843C96.6026 209.293 96.6399 209.68 96.663 209.91C96.6961 210.405 96.8451 211.445 96.9775 212.221C97.1099 212.997 97.3747 214.846 97.5733 216.348C97.7554 217.851 97.9706 219.601 98.0533 220.228C98.1361 220.855 98.2685 221.829 98.3512 222.374C98.4338 222.827 98.5279 223.555 98.6429 224.784H98.9141V226.584C98.9969 227.079 99.1624 228.268 99.2948 229.225C99.4278 230.08 99.6532 231.593 99.8295 232.777L99.8906 233.188C100.073 234.409 100.338 236.044 100.47 236.819C100.602 237.595 100.834 238.9 100.983 239.709C101.132 240.517 101.43 241.904 101.645 242.763C101.91 243.819 102.175 244.513 102.506 244.909C102.754 245.223 103.217 245.652 103.532 245.866C103.929 246.131 104.326 246.23 105.667 246.23L111.675 240.154L112.807 239.008C115.762 236.017 118.814 232.927 121.308 230.381H123.79L124.651 231.834C124.912 232.28 125.32 232.962 125.742 233.668C126.069 234.215 126.405 234.775 126.687 235.251C127.349 236.341 128.027 237.496 128.209 237.81C128.275 237.914 128.354 238.042 128.438 238.178C128.606 238.451 128.794 238.756 128.938 238.966C129.153 239.279 129.335 239.61 129.335 239.709C129.335 239.808 129.517 240.138 129.716 240.451C129.931 240.765 130.212 241.442 130.328 241.937C130.477 242.532 130.51 243.324 130.427 244.249C130.361 245.19 130.195 245.916 129.947 246.477C129.732 246.923 129.236 247.616 128.871 247.996C128.491 248.392 127.779 248.888 127.316 249.102C126.836 249.333 126.141 249.581 125.776 249.663C125.412 249.763 123.923 249.911 122.466 250.01C121.01 250.109 116.872 250.274 113.28 250.373C108.646 250.522 99.2121 250.538 80.8405 250.456C66.5901 250.406 53.3327 250.324 51.3797 250.291C49.4267 250.258 45.5538 250.142 42.7732 250.043C41.2394 249.998 39.4436 249.937 37.8583 249.883L37.8553 249.883H37.8547C36.5676 249.84 35.4195 249.801 34.6632 249.779C32.975 249.729 29.549 249.614 27.0498 249.515C24.5506 249.432 21.8031 249.284 20.959 249.201C20.1315 249.102 19.3039 249.036 19.155 249.036C18.9067 249.036 18.9067 249.003 19.1053 248.805C19.2377 248.673 19.9494 248.442 20.6776 248.293C21.4059 248.145 23.0775 247.633 24.4016 247.138C25.7257 246.659 28.2083 245.652 29.9462 244.909C31.6841 244.149 34.9942 242.581 37.3114 241.425C39.6285 240.253 42.5746 238.718 43.849 238.008C45.1234 237.298 47.3247 236.044 48.7316 235.218L49.1641 234.964C50.553 234.149 52.4262 233.051 53.5313 232.395C54.7561 231.669 56.8415 230.364 58.1656 229.523C59.4731 228.681 61.6413 227.261 62.9654 226.386C63.7307 225.88 64.9827 225.091 65.903 224.516C66.046 224.385 66.2564 224.231 66.5568 224.025C67.0864 223.662 67.6657 223.299 67.8478 223.233C68.0298 223.15 69.4036 222.226 70.9097 221.169C72.4158 220.113 74.915 218.33 76.4543 217.207L76.8372 216.924C78.3995 215.768 80.7364 214.039 82.2306 212.898C83.8691 211.66 86.5504 209.58 88.1889 208.276C89.844 206.971 91.4495 205.634 91.7639 205.304C92.0949 204.974 92.757 204.363 93.2535 203.95Z" fill="url(#paint1_linear_1433_5709)"/>
<path d="M161.543 69.7321C162.619 68.8571 164.042 67.685 164.671 67.1402C165.631 66.2982 165.929 66.1332 166.442 66.1332C167.021 66.1167 167.104 66.1662 167.402 66.81C167.584 67.2062 167.733 67.7841 167.733 68.0977C167.733 68.4114 167.65 68.9232 167.534 69.2368C167.385 69.6331 167.054 69.9798 166.409 70.376C165.912 70.6896 163.794 72.225 161.692 73.7768C159.59 75.3287 156.545 77.5409 154.906 78.713C153.267 79.8851 150.404 81.8662 148.534 83.1209C146.664 84.3591 143.833 86.2081 142.245 87.1986C140.656 88.1892 138.272 89.6419 136.948 90.4179C135.624 91.1938 133.208 92.5805 131.569 93.472C129.931 94.38 126.985 95.9319 125.032 96.9389C123.078 97.9295 120.43 99.2337 119.156 99.828C117.881 100.439 115.498 101.512 113.86 102.238C112.221 102.965 109.54 104.087 107.901 104.748C106.263 105.408 103.764 106.366 102.357 106.894C100.95 107.422 98.4506 108.314 96.8121 108.858C95.1736 109.42 92.2275 110.361 90.2745 110.955C88.3214 111.549 85.3423 112.408 83.6541 112.854C81.9659 113.299 78.9867 114.042 77.0337 114.488C75.0807 114.934 72.3498 115.528 70.9926 115.792C69.6188 116.073 67.3845 116.486 66.0273 116.717C64.6535 116.948 62.3199 117.328 60.8137 117.542C59.3076 117.757 56.8084 118.087 55.2691 118.269C53.7299 118.467 51.2307 118.714 49.7246 118.846C48.2184 118.995 45.653 119.193 44.0145 119.309C42.078 119.441 37.6092 119.523 31.2702 119.523C25.8912 119.523 20.7603 119.457 18.1949 119.243L18.3274 118.566C18.3936 118.186 18.4929 117.46 18.526 116.964C18.5756 116.469 18.6584 115.644 18.857 114.24L19.6018 114.191C20.0156 114.158 21.1741 114.257 22.1672 114.389C23.1602 114.537 24.7326 114.736 25.6429 114.818C26.5532 114.917 28.9696 115.099 31.022 115.231C33.0743 115.363 36.8313 115.479 39.3802 115.479C41.9291 115.479 45.5868 115.363 47.4902 115.231C49.3935 115.099 51.7438 114.901 52.7037 114.818C53.6637 114.719 55.4015 114.537 56.5932 114.405L56.7639 114.384C57.9689 114.234 59.8466 114 61.062 113.811C62.3364 113.629 64.2729 113.332 65.3652 113.151C66.4576 112.969 68.4603 112.606 69.834 112.342C71.1912 112.078 73.5083 111.599 74.9648 111.285C76.4213 110.972 79.2515 110.278 81.2542 109.766C83.2568 109.255 85.2264 108.743 85.6236 108.644C86.1036 108.528 86.5174 108.264 87.378 107.274L89.1986 107.191C90.953 107.108 91.1682 107.059 95.4053 105.623C97.8217 104.797 101.248 103.592 103.019 102.932C104.79 102.271 107.074 101.396 108.067 101C109.06 100.587 110.93 99.828 112.205 99.2997C113.479 98.7714 114.638 98.2101 114.77 98.0615C114.902 97.9129 115.134 97.7974 115.266 97.8139C115.399 97.8139 116.557 97.3516 117.832 96.7738C119.106 96.1795 121.821 94.8753 123.873 93.8517C125.925 92.8447 128.673 91.4084 129.997 90.682C131.321 89.9721 132.513 89.3118 132.645 89.2292C132.777 89.1467 133.704 88.6184 134.714 88.0571C135.723 87.4958 137.759 86.2906 139.265 85.3826C140.771 84.4746 142.956 83.1044 144.131 82.312C145.306 81.536 146.399 80.8096 146.531 80.7271L148.865 79.1753C150.007 78.4158 151.861 77.1116 153.003 76.2862C154.145 75.4607 156.081 74.0079 157.322 73.0504C158.564 72.0929 160.467 70.6071 161.543 69.7321Z" fill="#650E43"/>
<path fill-rule="evenodd" clip-rule="evenodd" d="M124.866 56.2773C124.668 56.4755 119.404 56.525 88.5368 56.5745C68.6922 56.6075 48.4338 56.591 43.5182 56.5415L34.5806 56.4589C32.5283 57.3009 31.5187 57.8127 31.0222 58.1429C30.5256 58.473 29.7478 59.0839 29.3009 59.4966C28.854 59.9093 28.192 60.7018 27.8278 61.2465C27.4637 61.7913 26.9506 62.6828 26.6858 63.2276C26.4376 63.7724 26.1231 64.6969 25.9907 65.2912C25.8417 65.8856 25.6597 66.7771 25.5769 67.2723C25.4776 67.7676 25.3783 68.5765 25.3617 69.0388L25.3121 69.9137L25.2457 69.9137L25.1464 70.541C25.0967 70.8712 24.9809 71.5316 24.8981 71.9773C24.8154 72.4396 24.6664 73.5127 24.5671 74.3711C24.4678 75.2296 24.2692 76.6163 24.1368 77.4253C24.0854 77.7456 24.0315 78.0709 23.9829 78.3645L23.9829 78.3646L23.9827 78.3656L23.9826 78.3662L23.9826 78.3662L23.9826 78.3663L23.9826 78.3665C23.906 78.8286 23.8425 79.2119 23.8223 79.3733L23.7396 79.8191H23.7397V80.1988C23.7397 80.3969 23.5907 81.569 23.4087 82.7907C23.3002 83.4579 23.1868 84.1843 23.0927 84.7869L23.0927 84.787L23.0926 84.7872C23.0145 85.2877 22.9497 85.7027 22.9121 85.9274C22.8848 86.0635 22.86 86.2084 22.8384 86.3524C22.8377 86.3545 22.8371 86.3565 22.8366 86.3586C22.7871 86.5399 22.6716 87.3454 22.5725 88.1107C22.5288 88.5162 22.4434 89.2551 22.3457 90.0998L22.3457 90.1L22.3457 90.1001C22.259 90.8499 22.1627 91.6832 22.0773 92.4408C21.8957 94.0519 21.7141 95.6027 21.6646 95.9249L21.6034 96.3282H21.4556L21.2735 97.4508C21.2421 97.6825 21.1893 98.0592 21.1259 98.5114L21.1258 98.5115L21.1258 98.5118C21.0221 99.2515 20.89 100.193 20.777 101.033C20.5784 102.403 20.3467 103.955 20.2639 104.5C20.1812 105.045 20.0984 105.656 20.0984 105.87V106.233H19.9992L19.5358 109.667C19.5122 109.835 19.4887 110.002 19.4654 110.168C19.2281 111.856 19.0168 113.359 18.9565 113.63L18.8572 114.158C20.1978 114.158 21.3233 114.273 22.217 114.405C23.0942 114.538 24.6004 114.719 25.5603 114.818C26.5203 114.901 28.9698 115.099 31.0221 115.231C33.0745 115.363 36.8315 115.479 39.3804 115.479C41.9292 115.479 45.587 115.363 47.4904 115.231C49.4103 115.099 51.744 114.901 52.7039 114.818C53.6639 114.719 55.4183 114.538 56.5934 114.405L56.764 114.384L56.7642 114.384C57.9692 114.234 59.8468 114 61.0622 113.811C62.3366 113.63 64.2731 113.332 65.3654 113.151C66.4578 112.969 68.5101 112.589 69.917 112.325C71.3238 112.061 73.343 111.648 74.3857 111.417C74.9618 111.29 75.7197 111.117 76.4445 110.951C77.0318 110.817 77.5973 110.688 78.0269 110.592C78.9869 110.361 81.2213 109.799 82.9922 109.337C85.7728 108.611 86.2859 108.429 86.7659 107.983C87.0638 107.703 87.2955 107.307 87.2955 107.108C87.2955 106.901 87.1405 106.631 86.9505 106.494C87.1405 106.628 87.2954 106.849 87.2954 106.976C87.2954 107.191 87.5933 107.208 89.1656 107.158C91.0028 107.109 91.0525 107.092 95.4054 105.623C97.8218 104.797 101.248 103.592 103.019 102.932C104.79 102.271 107.206 101.347 108.398 100.868C108.781 100.709 109.226 100.526 109.686 100.336L109.687 100.336C110.658 99.9361 111.697 99.5083 112.37 99.2173C113.38 98.8045 114.356 98.3588 114.571 98.2267C114.678 98.1561 114.774 98.0478 114.841 97.9345C114.845 97.9511 114.847 97.9659 114.847 97.9791C114.847 98.1403 114.979 98.2812 115.144 98.2812C115.293 98.2812 116.465 97.7173 117.736 97.0124C118.229 96.7309 119.02 96.368 119.935 95.948C121.377 95.2863 123.128 94.4829 124.512 93.6328C127.838 92.4195 131.337 90.0817 132.476 89.3164C132.596 89.2372 132.728 89.147 132.868 89.0488C133.095 88.9645 133.876 88.5421 134.764 88.0405C135.74 87.4957 137.759 86.2906 139.266 85.3826C140.772 84.4746 142.923 83.1374 144.065 82.3945C145.207 81.6516 146.2 80.9417 146.283 80.8096C146.399 80.628 146.316 80.4629 146.002 80.1988L145.562 79.8247C146.334 80.464 146.581 80.6445 146.631 80.6445C146.68 80.6445 147.657 80.0007 148.832 79.2248C149.99 78.4323 151.861 77.1116 153.003 76.2862C154.145 75.4607 156.147 73.9584 157.471 72.9514C158.796 71.9443 159.971 71.0033 160.087 70.8382C160.252 70.6236 160.219 70.5245 159.822 70.2439L159.375 69.8973C160.087 70.4255 160.335 70.5741 160.418 70.5741C160.484 70.5576 161.063 70.1449 161.692 69.6331C161.979 69.3922 162.39 69.055 162.832 68.6922L162.834 68.6904C163.361 68.2583 163.932 67.79 164.39 67.4044C165.648 66.3313 166.012 66.1167 166.492 66.1167H167.071C167.055 64.5153 166.922 63.6734 166.773 63.2276C166.608 62.7654 166.326 62.105 166.128 61.7418C165.946 61.3786 165.449 60.7183 165.069 60.2725C164.671 59.8268 163.893 59.1499 163.347 58.7702C162.801 58.374 162.056 57.9117 161.692 57.7301C161.328 57.5485 160.501 57.1853 159.872 56.9377L158.713 56.4755C137.677 56.3929 133.307 56.3269 133.307 56.2113C133.307 56.1123 131.834 56.0462 129.203 56.0462C125.876 56.0462 125.048 56.0957 124.866 56.2773Z" fill="url(#paint2_linear_1433_5709)"/>
<path d="M169.587 96.8234C170.265 95.2386 170.878 93.7693 170.944 93.5712C171.01 93.3566 171.143 93.1915 171.225 93.1915C171.308 93.1915 171.424 93.5877 171.49 94.0664C171.54 94.5287 171.573 95.5192 171.573 96.2456C171.573 97.2362 171.49 97.7645 171.225 98.3588C171.027 98.788 170.878 99.3163 170.878 99.5474C170.878 99.7786 170.762 100.208 170.63 100.505C170.497 100.786 170.116 101.743 169.802 102.602C169.471 103.46 168.941 104.797 168.61 105.573C168.279 106.349 167.915 107.224 167.799 107.521C167.667 107.802 167.468 108.099 167.352 108.182C167.22 108.248 166.773 109.073 166.326 110.031C165.896 110.988 165.102 112.689 164.555 113.828C163.993 114.967 162.52 118.004 161.245 120.596C159.987 123.188 158.233 126.606 157.356 128.191C156.478 129.775 155.618 131.294 155.419 131.575C155.237 131.855 155.039 132.252 154.989 132.483C154.939 132.714 154.228 134.002 153.417 135.339C152.606 136.676 151.844 137.898 151.761 138.063C151.662 138.211 151.182 138.971 150.686 139.747C150.189 140.506 148.882 142.487 147.789 144.122C146.68 145.756 145.522 147.473 145.207 147.919C144.876 148.381 143.8 149.867 142.824 151.221C141.831 152.591 140.887 153.911 140.722 154.192C140.556 154.473 140.424 154.572 140.424 154.44C140.441 154.308 140.308 154.06 140.143 153.895C139.911 153.664 139.464 153.581 138.107 153.499C137.147 153.449 136.27 153.317 136.154 153.218C136.038 153.119 135.972 152.937 136.021 152.838C136.071 152.723 137.23 151.188 138.57 149.454C139.927 147.704 142.013 144.914 143.205 143.263C144.413 141.596 146.531 138.558 147.938 136.495C149.328 134.414 151.298 131.426 152.291 129.841C153.284 128.257 154.592 126.143 155.187 125.136C155.767 124.146 157.041 121.95 158.001 120.266C158.961 118.582 160.55 115.693 161.527 113.828C162.52 111.962 163.959 109.139 164.721 107.554C165.482 105.969 166.624 103.559 167.237 102.189C167.849 100.835 168.908 98.4083 169.587 96.8234Z" fill="#BA2A24"/>
<path d="M121.307 230.381L122.052 229.638C122.45 229.225 122.83 228.895 122.88 228.895C122.929 228.895 123.112 229.176 123.294 229.506C123.476 229.853 123.641 230.183 123.658 230.249C123.691 230.332 123.161 230.381 121.307 230.381Z" fill="#8F00B5" fill-opacity="0.9"/>
<path d="M171.755 97.9791C171.887 97.6654 172.053 97.2527 172.136 97.0876C172.219 96.906 172.334 96.84 172.384 96.9225C172.45 97.0051 172.533 97.4838 172.632 98.8871L172.086 98.8541C171.788 98.8211 171.54 98.755 171.54 98.689C171.54 98.6064 171.639 98.2928 171.755 97.9791Z" fill="#B300E3" fill-opacity="0.8"/>
<path d="M164.125 114.835C164.158 114.752 164.837 113.217 165.664 111.45C166.475 109.667 167.22 108.215 167.303 108.215C167.386 108.215 167.468 108.38 167.501 108.594C167.534 108.792 167.22 109.7 166.823 110.608C166.426 111.516 165.764 112.969 165.35 113.828C164.953 114.686 164.605 115.297 164.605 115.198C164.588 115.082 164.473 114.983 164.34 114.983C164.208 114.983 164.108 114.917 164.125 114.835Z" fill="#B400E4" fill-opacity="0.2"/>
<path d="M68.7584 56.7066L68.7915 55.8481L68.8246 54.9731L68.9239 56.5415L93.1711 56.624L68.7584 56.7066Z" fill="#ED1383" fill-opacity="0.2"/>
<path d="M160.649 121.851C161.676 119.754 162.851 117.361 163.231 116.519C163.778 115.346 164.009 115 164.258 115C164.44 115 164.589 115.099 164.589 115.247C164.589 115.379 163.629 117.394 162.454 119.738C161.278 122.082 159.557 125.367 158.63 127.051C157.703 128.719 156.412 130.997 155.767 132.087C155.121 133.16 153.814 135.322 152.871 136.874C151.911 138.41 150.222 141.051 149.113 142.735C148.005 144.402 146.167 147.077 145.058 148.678C143.933 150.263 142.493 152.244 141.881 153.086C141.252 153.928 140.722 154.621 140.672 154.621C140.623 154.621 140.59 154.555 140.573 154.489C140.573 154.423 141.483 153.103 142.592 151.567C143.701 150.015 144.876 148.381 145.191 147.935C145.522 147.473 146.68 145.756 147.773 144.122C148.882 142.487 150.173 140.523 150.686 139.747C151.182 138.987 151.662 138.228 151.762 138.063C151.844 137.914 152.589 136.693 153.417 135.339C154.228 134.002 154.939 132.714 154.989 132.499C155.039 132.268 155.237 131.855 155.419 131.591C155.601 131.311 156.429 129.858 157.257 128.372C158.084 126.87 159.607 123.931 160.649 121.851Z" fill="#ED1383" fill-opacity="0.2"/>
<path d="M175.429 246.213C174.982 246.213 174.42 246.131 174.188 246.065C173.94 245.982 174.254 245.966 174.933 246.015C175.562 246.065 176.124 246.147 176.174 246.18C176.224 246.213 175.893 246.23 175.429 246.213Z" fill="#9000B7" fill-opacity="0.2"/>
<path d="M33.008 249.812C32.5115 249.845 31.7336 249.845 31.2702 249.812C30.8068 249.779 31.2205 249.763 32.1805 249.763C33.1404 249.763 33.5046 249.779 33.008 249.812Z" fill="#9000B7" fill-opacity="0.2"/>
<path d="M117.832 250.307C117.468 250.341 116.905 250.341 116.59 250.307C116.276 250.274 116.574 250.241 117.253 250.241C117.931 250.241 118.196 250.274 117.832 250.307Z" fill="#9000B7" fill-opacity="0.2"/>
<path d="M65.5307 250.473C63.7929 250.506 61.0123 250.506 59.3241 250.473C57.6359 250.456 59.0593 250.44 62.4688 250.44C65.8783 250.44 67.2686 250.456 65.5307 250.473Z" fill="#9000B7" fill-opacity="0.2"/>
<path d="M113.694 250.473C113.247 250.506 112.42 250.506 111.873 250.473C111.327 250.44 111.708 250.423 112.701 250.423C113.694 250.423 114.157 250.44 113.694 250.473Z" fill="#9000B7" fill-opacity="0.2"/>
<path d="M84.5313 210.323C84.5313 210.224 86.0705 209.035 87.9408 207.648C89.8276 206.261 91.4993 205.139 91.6813 205.122C91.9792 205.122 91.9792 205.155 91.5986 205.519C91.3668 205.733 89.8276 206.988 88.156 208.325C85.7726 210.24 85.0775 210.702 84.8292 210.603C84.6471 210.537 84.5147 210.422 84.5313 210.323Z" fill="#8F00B5" fill-opacity="0.5"/>
<path d="M37.3941 249.994C35.8548 249.994 34.448 249.961 34.2991 249.895C34.1501 249.829 35.259 249.796 36.7817 249.829C38.3044 249.862 39.6947 249.895 39.8767 249.928C40.0588 249.961 38.9333 249.994 37.3941 249.994Z" fill="#8F00B5" fill-opacity="0.5"/>
<path d="M45.0903 250.142C44.6765 250.175 43.9317 250.175 43.4352 250.142C42.9387 250.109 43.2697 250.093 44.18 250.093C45.0903 250.093 45.5041 250.109 45.0903 250.142Z" fill="#8F00B5" fill-opacity="0.5"/>
<path d="M133.423 55.7161C133.39 56.1288 133.357 55.8316 133.357 55.0557C133.357 54.2798 133.39 53.9496 133.423 54.3128C133.456 54.676 133.456 55.3033 133.423 55.7161Z" fill="#D21376" fill-opacity="0.3"/>
<path d="M58.2483 56.6571C57.156 56.6901 55.4016 56.6901 54.3588 56.6571C53.3161 56.6406 54.2099 56.6076 56.345 56.6076C58.48 56.6076 59.3407 56.6406 58.2483 56.6571Z" fill="#D21376" fill-opacity="0.3"/>
<path d="M90.3242 156.256C90.258 155.15 90.2911 154.985 90.6221 154.737C90.8207 154.572 91.2179 154.456 91.4993 154.456C91.9296 154.489 91.9462 154.489 91.5986 154.555C91.3669 154.588 91.0193 154.704 90.8041 154.819C90.4731 155.001 90.4235 155.15 90.3738 157.494L90.3242 156.256Z" fill="#F06033" fill-opacity="0.2"/>
<path d="M78.3579 214.648C79.4999 213.823 81.2874 212.535 82.3301 211.775C83.7369 210.752 84.2997 210.438 84.5645 210.504C84.7466 210.57 84.9286 210.636 84.9783 210.686C85.0279 210.719 84.9783 210.801 84.879 210.867C84.7962 210.933 83.4887 211.924 81.9825 213.063C80.493 214.202 77.9938 216.068 76.4545 217.207C74.9153 218.329 72.3664 220.145 68.0135 223.183L67.1032 223.134C66.6067 223.117 66.1763 223.084 66.1598 223.068C66.1267 223.051 67.2522 222.292 68.6424 221.367C70.0162 220.443 72.3168 218.891 73.7236 217.917C75.1304 216.926 77.2159 215.457 78.3579 214.648Z" fill="#8E00B4" fill-opacity="0.1"/>
<path d="M129.467 239.824C129.567 239.907 129.682 239.874 129.699 239.775C129.732 239.643 129.804 239.637 129.914 239.758C129.997 239.841 130.129 240.171 130.196 240.468C130.245 240.782 130.345 241.161 130.394 241.31C130.444 241.475 130.411 241.607 130.328 241.607C130.245 241.607 130.162 241.492 130.162 241.359C130.162 241.227 130.03 240.914 129.865 240.65C129.699 240.402 129.484 240.088 129.401 239.956C129.302 239.775 129.318 239.742 129.467 239.824Z" fill="#8E00B4" fill-opacity="0.1"/>
<path d="M20.4294 248.244C20.446 248.178 21.4225 247.699 22.6307 247.187C23.8389 246.675 24.832 246.246 24.8486 246.246C24.8651 246.23 24.8651 246.411 24.8486 246.642C24.8155 247.006 24.6334 247.105 23.0776 247.616C22.1176 247.914 21.1411 248.227 20.8763 248.277C20.6281 248.326 20.4294 248.326 20.4294 248.244Z" fill="#8E00B4" fill-opacity="0.1"/>
<path d="M170.878 99.5803C170.878 99.3822 170.977 98.9695 171.093 98.6723C171.192 98.3587 171.308 98.1936 171.325 98.2926C171.358 98.3917 171.291 98.6228 171.209 98.8044C171.109 98.986 171.043 99.3492 171.043 99.6299C171.043 99.9105 170.927 100.373 170.795 100.653C170.662 100.951 170.282 101.908 169.967 102.767C169.636 103.625 169.107 104.962 168.776 105.738C168.461 106.514 168.13 107.29 168.047 107.472C167.965 107.653 167.816 108.016 167.716 108.297C167.595 108.627 167.507 108.71 167.452 108.545C167.402 108.413 167.518 108 167.7 107.637C167.882 107.274 168.296 106.349 168.61 105.573C168.941 104.797 169.471 103.46 169.802 102.601C170.116 101.743 170.497 100.785 170.629 100.488C170.762 100.208 170.878 99.7949 170.878 99.5803Z" fill="#C72A1E" fill-opacity="0.3"/>
<path d="M53.3328 231.009C53.399 230.942 54.3424 230.332 55.4347 229.655C56.5271 228.978 57.4705 228.417 57.5202 228.417C57.5864 228.4 57.6029 228.45 57.5864 228.532C57.5533 228.598 57.5036 228.961 57.4705 229.358C57.4209 230.018 57.3547 230.117 56.5933 230.579C55.8816 231.009 55.6003 231.075 54.4913 231.108C53.7962 231.108 53.2666 231.075 53.3328 231.009Z" fill="#B42132" fill-opacity="0.1"/>
<path d="M39.0493 239.18C41.234 237.992 43.7994 236.572 44.7594 236.027C45.7193 235.466 46.5469 235.02 46.6131 235.02C46.6958 235.004 46.6627 235.284 46.5634 235.631C46.4807 235.961 46.3814 236.341 46.3648 236.44C46.3483 236.556 45.438 237.15 44.3456 237.761C43.2532 238.372 40.274 239.923 37.7252 241.195C35.1763 242.482 31.7006 244.15 29.9959 244.893C28.2746 245.619 26.7353 246.23 26.5533 246.23C26.3712 246.23 26.2223 246.279 26.2223 246.362C26.2223 246.428 25.9905 246.576 25.6926 246.676C25.3947 246.791 25.0471 246.89 24.9478 246.89C24.7989 246.89 24.7658 246.775 24.8485 246.527C24.9478 246.263 25.5437 245.916 26.9671 245.256C28.0594 244.744 30.3269 243.654 32.0151 242.829C33.7033 242.003 36.8645 240.353 39.0493 239.18Z" fill="#B42132" fill-opacity="0.1"/>
<path d="M17.864 120.596C17.9136 120.365 17.9964 119.771 18.0626 119.276L18.1784 118.368L18.3605 119.226C18.4929 119.969 18.4929 120.134 18.2612 120.299C18.1122 120.415 17.9302 120.629 17.8805 120.762C17.8309 120.894 17.8143 120.828 17.864 120.596Z" fill="#F6873D" fill-opacity="0.8"/>
<path fill-rule="evenodd" clip-rule="evenodd" d="M15.4642 267.691L34.5806 267.774L34.6634 270.168L34.0344 270.25C33.7034 270.283 33.0083 270.366 32.5117 270.415C32.0152 270.481 31.2042 270.713 30.7242 270.927C30.0622 271.224 29.7808 271.472 29.5326 271.984C29.3505 272.363 29.1188 273.304 29.0195 274.179C28.9036 275.17 28.8705 279.083 28.9202 285.604C28.9698 293.495 29.036 295.806 29.2346 296.995C29.3836 297.804 29.5822 298.811 29.6815 299.224C29.7974 299.636 30.0622 300.445 30.2939 301.04C30.5091 301.634 30.9394 302.542 31.2373 303.07C31.5187 303.598 32.098 304.424 32.5117 304.903C32.9255 305.381 33.7034 306.075 34.2496 306.438C34.7958 306.801 35.7061 307.247 36.2854 307.445C36.8481 307.643 37.8577 307.891 38.5032 307.99C39.1818 308.105 40.3238 308.138 41.1183 308.072C41.8961 308.023 42.9389 307.858 43.4354 307.726C43.9319 307.594 44.8257 307.247 45.4215 306.966C46.1332 306.62 46.8945 306.025 47.6724 305.266C48.3179 304.622 49.1124 303.615 49.4268 303.021C49.7579 302.426 50.2544 301.32 50.5192 300.544C50.8006 299.768 51.1978 298.25 51.3964 297.16C51.7936 295.212 51.7936 294.981 51.7936 285.851C51.7771 277.745 51.744 276.293 51.4957 274.79C51.3302 273.833 51.0819 272.809 50.9164 272.496C50.7675 272.182 50.4199 271.753 50.1385 271.538C49.8572 271.34 49.1951 271.026 48.6489 270.845C48.1028 270.68 47.209 270.481 46.6628 270.415C46.1166 270.366 45.4712 270.283 45.2063 270.234C44.7595 270.168 44.7595 270.151 44.7595 267.691H61.6415V268.93C61.6415 269.606 61.5918 270.168 61.5256 270.168C61.4429 270.168 60.7643 270.267 59.9864 270.399C59.2085 270.514 58.2816 270.762 57.9175 270.944C57.5534 271.125 57.0072 271.571 56.7258 271.918C56.4279 272.264 56.1134 272.892 56.0141 273.304C55.9314 273.717 55.7824 274.856 55.6831 275.863C55.5838 276.87 55.468 281.278 55.4349 285.686C55.3852 290.094 55.2693 294.552 55.17 295.592C55.0707 296.632 54.839 298.233 54.657 299.141C54.4749 300.049 54.1439 301.32 53.9122 301.948C53.6804 302.575 53.1674 303.731 52.7701 304.506C52.3729 305.282 51.6447 306.405 51.1316 307.016C50.6351 307.643 49.7248 308.551 49.1124 309.046C48.4834 309.558 47.5069 310.219 46.9111 310.532C46.3153 310.829 45.3553 311.275 44.7595 311.49C44.1636 311.721 42.8892 312.068 41.8961 312.249C40.7045 312.48 39.4797 312.596 38.106 312.596C36.815 312.596 35.3916 312.48 34.2496 312.282C33.2565 312.101 31.949 311.803 31.3532 311.605C30.7573 311.407 29.7974 310.994 29.2015 310.697C28.6057 310.4 27.5961 309.756 26.9672 309.261C26.3382 308.766 25.5438 308.023 25.2128 307.627C24.8817 307.23 24.3521 306.488 24.0211 305.992C23.7066 305.497 23.1935 304.49 22.9122 303.764C22.6143 303.037 22.2336 301.848 22.0515 301.122C21.8695 300.396 21.6212 298.943 21.4888 297.903C21.3067 296.45 21.2571 293.594 21.2571 285.686C21.2571 279.776 21.1909 274.774 21.0916 273.965C20.9757 273.073 20.7936 272.33 20.5454 271.918C20.3468 271.555 19.9164 271.125 19.602 270.96C19.2875 270.795 18.46 270.58 17.7814 270.481C17.1028 270.382 16.2918 270.283 15.4642 270.168V267.691ZM65.4482 280.073C66.1599 280.073 66.3088 280.139 66.5571 280.519C66.7226 280.767 67.1198 281.08 67.4343 281.212C67.9308 281.443 69.2384 281.493 86.2197 281.575L86.799 282.549L82.8433 289.12C80.6751 292.719 77.2159 298.563 75.1471 302.08C73.0947 305.596 71.4065 308.502 71.4065 308.551C71.4065 308.601 73.0616 308.634 75.0809 308.634C77.7621 308.634 79.0531 308.568 79.7979 308.386C80.3772 308.254 81.122 308.006 81.453 307.825C81.8006 307.66 82.3798 307.28 82.744 306.983C83.1081 306.686 83.7701 305.992 84.2336 305.414C84.6804 304.837 85.3756 303.78 85.7562 303.037C86.1535 302.311 86.5507 301.7 86.6666 301.7C86.7824 301.7 87.2624 301.882 87.7424 302.113C88.2223 302.344 88.6196 302.624 88.6196 302.74C88.6196 302.856 88.2058 304.16 87.7093 305.662C87.1962 307.164 86.5176 309.112 85.6404 311.605H62.3035L61.9559 311.16C61.7739 310.912 61.6249 310.631 61.6249 310.532C61.6415 310.45 61.8897 310.004 62.1876 309.542C62.5021 309.096 63.76 307.115 64.9848 305.167C66.2095 303.219 68.5929 299.323 70.2811 296.5C71.9693 293.693 74.2368 289.863 77.2987 284.613L74.3195 284.564C72.6148 284.547 70.8604 284.597 70.248 284.696C69.6521 284.811 68.808 285.092 68.3612 285.323C67.9143 285.571 67.2523 286.148 66.8881 286.594C66.524 287.056 65.7958 288.295 64.2896 291.299L63.2469 290.903C62.3035 290.54 62.2208 290.457 62.2373 290.045C62.2373 289.78 62.7007 287.783 63.2635 285.604C63.8096 283.424 64.3227 281.344 64.3889 280.981C64.4386 280.618 64.5213 280.271 64.571 280.205C64.6041 280.139 65.0013 280.073 65.4482 280.073ZM106.164 280.833C107.008 280.882 108.017 281.08 108.729 281.328C109.358 281.542 110.252 281.972 110.699 282.269C111.145 282.566 111.874 283.21 112.337 283.705C112.784 284.2 113.363 285.026 113.612 285.521C113.86 286.016 114.207 286.957 114.373 287.585C114.621 288.592 114.671 289.797 114.754 296.995C114.853 305.15 114.853 305.266 115.217 305.959C115.432 306.339 115.763 306.768 115.962 306.9C116.177 307.049 116.607 307.148 116.922 307.148C117.236 307.164 117.832 307.049 118.246 306.9C118.66 306.768 119.057 306.653 119.156 306.653C119.239 306.653 119.454 307.115 119.62 307.676C119.868 308.535 119.884 308.749 119.702 308.914C119.586 309.013 118.113 309.839 116.425 310.763C114.092 312.035 113.214 312.431 112.734 312.431C112.403 312.431 111.692 312.266 111.162 312.068C110.649 311.869 109.921 311.44 109.557 311.11C109.192 310.763 108.646 310.037 107.819 308.469L105.617 309.905C104.409 310.697 102.87 311.605 102.191 311.919C101 312.464 100.884 312.48 99.5432 312.398C98.5502 312.332 97.7888 312.183 96.9778 311.853C96.3323 311.605 95.3889 311.044 94.8593 310.631C94.3297 310.219 93.5849 309.459 93.2207 308.964C92.8566 308.469 92.3601 307.61 92.1284 307.065C91.7146 306.157 91.6815 305.893 91.6815 303.846C91.6815 301.716 91.698 301.584 92.1449 300.709C92.4097 300.214 92.9725 299.471 93.4028 299.058C93.8331 298.646 94.6938 298.051 95.3393 297.721C95.9682 297.391 96.9944 296.962 97.6399 296.747C98.2688 296.549 99.9901 295.938 101.447 295.393C102.903 294.849 104.691 294.106 105.419 293.743C106.147 293.379 106.942 292.934 107.19 292.769C107.604 292.488 107.653 292.372 107.653 291.431C107.653 290.854 107.57 289.896 107.488 289.285C107.388 288.674 107.157 287.733 106.958 287.222C106.759 286.693 106.296 285.934 105.932 285.538C105.551 285.141 104.955 284.679 104.591 284.514C104.177 284.332 103.532 284.217 102.887 284.2C102.324 284.2 101.645 284.299 101.397 284.432C101.149 284.564 100.669 284.96 100.321 285.34C99.9901 285.719 99.5101 286.446 99.2784 286.974C99.0467 287.486 98.6826 288.526 98.4509 289.285C98.2357 290.028 97.8716 290.87 97.6399 291.134C97.3916 291.431 96.9613 291.695 96.564 291.795C96.1999 291.894 95.6206 291.91 95.2731 291.861C94.942 291.811 94.3297 291.58 93.9159 291.349C93.5021 291.134 92.989 290.705 92.7573 290.424C92.5256 290.127 92.2442 289.615 92.1284 289.285C91.996 288.839 91.9794 288.476 92.0787 288.047C92.1891 287.629 92.5366 287.139 93.1214 286.578C93.6014 286.115 94.5117 285.406 95.1572 284.993C95.7861 284.58 97.2095 283.788 98.3019 283.243C99.3943 282.682 100.917 282.005 101.695 281.724C102.473 281.443 103.466 281.097 103.929 280.965C104.492 280.816 105.187 280.767 106.164 280.833ZM100.52 299.389C99.7584 300.148 99.5598 300.462 99.3777 301.205C99.2618 301.716 99.1956 302.558 99.2453 303.103C99.295 303.648 99.477 304.424 99.6591 304.837C99.8246 305.249 100.238 305.86 100.553 306.207C100.9 306.603 101.447 306.966 101.976 307.164C102.456 307.329 103.168 307.478 103.549 307.478C103.946 307.478 104.591 307.379 105.005 307.263C105.419 307.148 106.18 306.768 106.693 306.438L107.653 305.827C107.653 297.771 107.587 295.426 107.521 295.426C107.455 295.443 106.064 296.12 104.426 296.962C102.059 298.167 101.248 298.662 100.52 299.389ZM137.031 280.816C137.759 280.866 138.769 281.014 139.266 281.163C139.762 281.311 140.474 281.592 140.838 281.79C141.202 281.972 141.831 282.401 142.245 282.715C142.659 283.028 143.221 283.557 143.503 283.87C143.784 284.184 144.148 284.679 144.33 284.943C144.512 285.224 144.827 285.884 145.025 286.429C145.224 286.974 145.456 287.898 145.555 288.493C145.638 289.104 145.72 292.752 145.72 296.797C145.72 301.452 145.787 304.325 145.903 304.886C146.002 305.365 146.217 305.976 146.382 306.24C146.548 306.521 146.879 306.834 147.111 306.95C147.342 307.065 147.74 307.148 147.988 307.148C148.236 307.148 148.782 307.049 149.196 306.9C149.61 306.768 150.024 306.653 150.14 306.653C150.255 306.653 150.504 307.115 150.686 307.693C150.868 308.254 150.951 308.766 150.884 308.832C150.818 308.898 149.312 309.74 147.541 310.697C144.479 312.365 144.264 312.447 143.486 312.398C142.99 312.365 142.245 312.134 141.682 311.853C141.119 311.572 140.474 311.077 140.176 310.697C139.878 310.334 139.481 309.723 139.282 309.344C139.084 308.947 138.852 308.634 138.769 308.634C138.67 308.634 137.759 309.178 136.733 309.855C135.707 310.516 134.317 311.358 133.638 311.704C132.662 312.216 132.198 312.365 131.321 312.414C130.676 312.447 129.782 312.365 129.087 312.2C128.441 312.051 127.481 311.671 126.935 311.341C126.389 311.027 125.578 310.417 125.148 309.987C124.701 309.558 124.138 308.881 123.873 308.469C123.608 308.056 123.211 307.148 122.979 306.454C122.665 305.53 122.549 304.82 122.549 303.896C122.533 303.054 122.665 302.228 122.88 301.535C123.062 300.94 123.443 300.165 123.724 299.801C124.006 299.438 124.618 298.86 125.081 298.514C125.561 298.167 126.389 297.672 126.935 297.424C127.481 297.176 128.673 296.714 129.583 296.417C130.494 296.12 132.281 295.476 133.555 294.981C134.83 294.469 136.237 293.891 136.7 293.66C137.147 293.429 137.759 293.066 138.057 292.851C138.587 292.471 138.604 292.438 138.604 291.184C138.604 290.474 138.521 289.434 138.438 288.872C138.339 288.295 138.09 287.453 137.875 286.974C137.677 286.495 137.279 285.851 137.015 285.538C136.75 285.24 136.154 284.795 135.707 284.58C134.995 284.233 134.697 284.167 133.688 284.217C132.629 284.283 132.447 284.332 131.95 284.811C131.636 285.108 131.122 285.703 130.808 286.132C130.494 286.578 130.03 287.585 129.782 288.41C129.517 289.236 129.169 290.21 128.987 290.606C128.789 291.052 128.474 291.398 128.127 291.58C127.829 291.728 127.25 291.861 126.852 291.861C126.439 291.877 125.76 291.728 125.363 291.563C124.949 291.382 124.403 291.052 124.138 290.82C123.89 290.589 123.526 290.111 123.36 289.78C123.178 289.434 123.046 288.872 123.046 288.542C123.029 288.113 123.178 287.7 123.509 287.255C123.774 286.891 124.303 286.33 124.717 286C125.114 285.686 126.074 285.042 126.852 284.58C127.63 284.118 128.772 283.491 129.418 283.16C130.047 282.847 131.222 282.318 132.016 281.988C132.811 281.658 133.969 281.245 134.582 281.064C135.442 280.816 136.005 280.75 137.031 280.816ZM132.231 298.728C131.867 298.976 131.371 299.438 131.139 299.735C130.891 300.049 130.56 300.709 130.394 301.205C130.179 301.882 130.129 302.36 130.212 303.07C130.278 303.582 130.494 304.391 130.692 304.87C130.924 305.365 131.387 305.992 131.818 306.388C132.231 306.768 132.91 307.164 133.307 307.296C133.721 307.412 134.466 307.495 134.962 307.445C135.558 307.412 136.253 307.197 136.948 306.851C137.544 306.57 138.14 306.223 138.289 306.124C138.521 305.943 138.57 305.282 138.62 300.676C138.653 297.787 138.653 295.426 138.604 295.426C138.554 295.443 137.246 296.07 135.707 296.863C134.151 297.639 132.596 298.481 132.231 298.728ZM164.622 280.75C164.688 280.734 164.771 282.335 164.837 287.849L165.846 286.314C166.409 285.472 167.419 284.2 168.081 283.474C168.759 282.748 169.719 281.906 170.216 281.592C170.712 281.278 171.49 280.948 171.954 280.849C172.55 280.717 173.013 280.734 173.642 280.866C174.122 280.981 174.883 281.311 175.347 281.608C175.959 282.005 176.274 282.368 176.605 283.045C177.002 283.837 177.051 284.101 176.985 285.108C176.919 285.95 176.787 286.479 176.472 287.007C176.24 287.42 175.76 288.014 175.413 288.311C175.049 288.625 174.519 288.988 174.221 289.104C173.923 289.219 173.526 289.318 173.311 289.318C173.112 289.335 172.616 289.087 172.202 288.773C171.788 288.46 171.143 288.047 170.746 287.865C170.348 287.667 169.736 287.502 169.339 287.502C168.958 287.519 168.346 287.651 167.982 287.816C167.617 287.981 166.988 288.476 166.591 288.922C166.194 289.368 165.615 290.243 164.754 291.96L164.837 307.065L165.251 307.775C165.482 308.155 165.846 308.551 166.078 308.634C166.31 308.716 166.823 308.865 167.237 308.964C167.65 309.063 168.495 309.195 170.299 309.377L170.381 311.605H153.003L153.086 309.377L153.913 309.278C154.36 309.211 155.039 309.096 155.403 308.997C155.767 308.898 156.247 308.683 156.462 308.518C156.694 308.353 157.008 307.924 157.174 307.561C157.439 306.95 157.455 306.157 157.472 297.49C157.472 292.323 157.422 287.832 157.339 287.519C157.273 287.205 157.041 286.743 156.81 286.495C156.561 286.248 156.015 285.95 155.486 285.802C154.989 285.67 154.36 285.505 154.112 285.455C153.681 285.356 153.665 285.323 153.665 283.292L154.691 283.16C155.27 283.078 156.628 282.847 157.72 282.632C158.812 282.417 160.6 281.972 161.692 281.658C162.785 281.344 163.86 281.014 164.092 280.915C164.324 280.833 164.555 280.75 164.622 280.75ZM40.2907 322.996C40.7707 322.996 41.0355 323.096 41.2838 323.376C41.4658 323.574 41.6148 323.971 41.6148 324.235C41.6148 324.515 41.4658 324.945 41.2838 325.192C41.0189 325.539 40.8203 325.638 40.3238 325.638C39.9155 325.638 39.5845 325.511 39.3307 325.258C39.0659 325.011 38.9501 324.713 38.9666 324.284C38.9666 323.888 39.0825 323.541 39.2976 323.327C39.5183 323.107 39.8493 322.996 40.2907 322.996ZM94.1807 322.996C94.7765 322.996 94.9586 323.079 95.24 323.459C95.422 323.706 95.571 324.119 95.571 324.367C95.571 324.614 95.3889 324.994 95.1572 325.225C94.9089 325.489 94.5779 325.638 94.2469 325.638C93.9821 325.638 93.618 325.588 93.469 325.522C93.32 325.456 93.0883 325.176 92.9559 324.895C92.8235 324.598 92.7739 324.235 92.8401 323.987C92.8897 323.756 93.0552 323.442 93.2042 323.294C93.3697 323.096 93.7173 322.996 94.1807 322.996ZM142.741 322.996C143.183 322.996 143.514 323.107 143.734 323.327C143.916 323.525 144.065 323.888 144.065 324.202C144.065 324.499 143.916 324.945 143.734 325.192C143.47 325.555 143.271 325.638 142.741 325.638C142.212 325.638 142.013 325.555 141.732 325.192C141.55 324.945 141.401 324.499 141.401 324.235C141.401 323.938 141.55 323.574 141.748 323.36C141.98 323.112 142.278 322.996 142.741 322.996ZM54.6901 323.327V326.133C54.6901 327.685 54.7397 328.973 54.8059 329.022C54.8721 329.055 55.1535 328.874 55.4349 328.593C55.6997 328.329 56.3121 327.966 56.792 327.784C57.3548 327.569 58.083 327.454 58.8609 327.454C59.854 327.454 60.2346 327.536 61.0622 327.933C61.7242 328.246 62.2373 328.659 62.6014 329.138C62.8993 329.534 63.2469 330.227 63.3793 330.673C63.5779 331.301 63.6276 332.473 63.6276 339.836H61.6415L61.5918 335.675C61.5587 331.565 61.5422 331.482 61.1449 330.772C60.847 330.227 60.4995 329.93 59.9036 329.617C59.3409 329.336 58.8113 329.204 58.2485 329.204C57.7189 329.22 57.1231 329.352 56.5934 329.617C56.0803 329.864 55.6335 330.26 55.3521 330.657C54.9383 331.301 54.9383 331.367 54.839 335.527C54.7728 337.855 54.7232 339.77 54.7066 339.803C54.6901 339.819 54.2432 339.836 52.7039 339.836L52.6708 331.697C52.6543 327.206 52.7039 323.492 52.7867 323.442C52.8529 323.376 53.3163 323.327 54.6901 323.327ZM171.043 323.327H173.03V339.836H172.07C171.143 339.852 171.126 339.836 170.994 339.307C170.928 339.01 170.878 338.564 170.878 337.855L170.332 338.449C170.034 338.779 169.388 339.241 168.892 339.472C168.279 339.77 167.601 339.935 166.823 339.984C165.995 340.034 165.4 339.968 164.754 339.77C164.258 339.605 163.546 339.274 163.182 339.027C162.818 338.779 162.271 338.234 161.974 337.838C161.676 337.442 161.278 336.699 161.08 336.204C160.815 335.527 160.732 334.899 160.716 333.727C160.699 332.44 160.782 331.977 161.113 331.102C161.361 330.442 161.808 329.716 162.271 329.22C162.685 328.775 163.43 328.213 163.927 327.982C164.704 327.603 165.052 327.536 166.409 327.536C167.65 327.536 168.13 327.619 168.726 327.883C169.14 328.065 169.769 328.494 170.795 329.418L170.911 328.89C170.994 328.61 171.043 327.239 171.043 325.853V323.327ZM164.125 330.31C163.811 330.591 163.413 331.135 163.215 331.499C162.933 332.027 162.867 332.456 162.851 333.645C162.851 334.899 162.917 335.263 163.264 335.956C163.48 336.402 163.811 336.914 164.009 337.079C164.191 337.244 164.704 337.557 165.168 337.772C165.747 338.053 166.277 338.168 166.906 338.168C167.419 338.168 168.097 338.036 168.478 337.871C168.842 337.706 169.455 337.211 169.852 336.765C170.249 336.319 170.63 335.692 170.712 335.378C170.812 335.048 170.878 334.305 170.878 333.727C170.878 333.133 170.795 332.357 170.696 331.994C170.597 331.631 170.299 331.069 170.05 330.756C169.802 330.426 169.19 329.963 168.71 329.716C168.015 329.369 167.584 329.27 166.823 329.27C166.277 329.27 165.565 329.385 165.251 329.534C164.936 329.666 164.423 330.013 164.125 330.31ZM45.0905 324.647H47.2421V327.619H50.3868V329.27H47.2421L47.2752 333.381C47.3083 336.484 47.3745 337.557 47.54 337.723C47.6559 337.838 48.3179 337.97 50.304 338.102L50.3868 339.836H49.0958C48.4007 339.836 47.5235 339.753 47.1594 339.654C46.7952 339.555 46.3153 339.307 46.1166 339.109C45.9015 338.911 45.6036 338.531 45.4546 338.267C45.2229 337.855 45.1732 337.079 45.0905 329.27H43.6009V327.619H45.0905V324.647ZM104.674 327.454C105.766 327.437 106.048 327.503 106.975 327.982C107.57 328.279 108.249 328.775 108.497 329.105C108.762 329.418 109.077 330.046 109.226 330.508C109.424 331.168 109.474 332.192 109.474 339.836H107.488V335.907C107.488 333.348 107.421 331.796 107.306 331.416C107.19 331.086 106.975 330.624 106.793 330.376C106.627 330.128 106.246 329.798 105.948 329.65C105.667 329.501 105.121 329.319 104.757 329.253C104.393 329.187 103.731 329.204 103.267 329.303C102.655 329.435 102.258 329.65 101.761 330.145C101.347 330.558 101 331.102 100.884 331.499C100.785 331.895 100.702 333.678 100.702 339.836H98.5502V327.619H100.702V329.187L101.231 328.659C101.529 328.378 101.96 328.048 102.191 327.933C102.423 327.817 102.787 327.669 103.019 327.603C103.251 327.536 103.995 327.47 104.674 327.454ZM124.734 327.454C125.545 327.454 126.124 327.553 126.786 327.817C127.365 328.048 127.961 328.444 128.342 328.857C128.673 329.22 128.987 329.617 129.054 329.765C129.153 329.98 129.186 329.98 129.285 329.765C129.352 329.617 129.699 329.187 130.063 328.808C130.494 328.345 131.056 327.966 131.602 327.768C132.132 327.569 132.893 327.454 133.555 327.454C134.234 327.454 134.946 327.569 135.492 327.784C135.972 327.966 136.617 328.329 136.899 328.61C137.197 328.874 137.644 329.485 138.355 330.838L138.438 339.836H136.452L136.402 335.741C136.369 332.027 136.336 331.598 136.022 330.921C135.823 330.475 135.459 330.029 135.111 329.815C134.797 329.617 134.218 329.369 133.804 329.286C133.291 329.171 132.811 329.171 132.231 329.303C131.669 329.418 131.189 329.683 130.775 330.079C130.345 330.475 130.063 330.937 129.898 331.499C129.732 332.109 129.666 333.298 129.666 339.836H127.68L127.63 335.741C127.597 332.423 127.531 331.548 127.316 331.086C127.183 330.756 126.836 330.293 126.588 330.046C126.306 329.782 125.727 329.485 125.197 329.352C124.469 329.154 124.121 329.154 123.459 329.303C122.897 329.418 122.417 329.683 122.003 330.079C121.639 330.426 121.275 330.987 121.126 331.416C120.944 331.977 120.894 333.067 120.894 339.836H118.742V327.619H120.894V329.105L121.589 328.51C121.986 328.197 122.599 327.834 122.963 327.702C123.327 327.586 124.121 327.47 124.734 327.454ZM153.086 327.454C153.715 327.454 154.575 327.553 154.989 327.685C155.403 327.817 156.065 328.213 156.479 328.577C156.925 328.956 157.389 329.567 157.637 330.095C158.034 330.97 158.051 331.102 158.134 339.836H156.148V336.319C156.148 334.206 156.065 332.423 155.949 331.829C155.783 331.036 155.618 330.69 155.072 330.145C154.559 329.633 154.211 329.418 153.533 329.286C153.069 329.187 152.424 329.154 152.126 329.204C151.844 329.27 151.364 329.418 151.1 329.551C150.818 329.683 150.471 329.914 150.289 330.062C150.123 330.211 149.825 330.64 149.626 331.003C149.295 331.614 149.279 331.928 149.196 339.836H147.21V327.619H149.196V329.105L149.891 328.527C150.289 328.213 150.901 327.85 151.265 327.718C151.629 327.586 152.44 327.47 153.086 327.454ZM20.595 327.619C21.5715 327.619 21.5881 327.619 21.7371 328.147C21.8198 328.444 22.0846 329.435 22.3329 330.343C22.5812 331.251 22.8791 332.324 22.9949 332.737C23.1108 333.133 23.4584 334.355 23.7728 335.411C24.0707 336.484 24.3521 337.359 24.4018 337.359C24.4514 337.359 24.6004 336.963 24.7493 336.484C24.8983 336.006 25.3783 334.437 25.792 332.984C26.2224 331.532 26.752 329.732 27.3809 327.619H28.4568C29.0526 327.619 29.5326 327.652 29.5326 327.702C29.5326 327.735 30.1284 329.881 30.8732 332.44C31.618 335.015 32.28 337.211 32.3462 337.359C32.429 337.524 32.5448 337.326 32.7269 336.699C32.8759 336.187 33.3889 334.256 33.8855 332.407C34.3986 330.541 34.8785 328.709 35.1599 327.619H36.153C36.6991 327.619 37.146 327.685 37.146 327.784C37.146 327.867 36.8481 328.857 36.5005 329.963C36.1364 331.086 35.4744 333.183 35.0275 334.635C34.5641 336.088 34.0179 337.822 33.422 339.753L32.3793 339.786C31.4525 339.819 31.3366 339.803 31.2042 339.456C31.1215 339.258 30.7904 338.234 30.4594 337.194C30.145 336.138 29.5657 334.223 29.1684 332.935C28.7712 331.647 28.4237 330.574 28.374 330.574C28.3243 330.574 27.9271 331.746 27.4802 333.183C27.0334 334.619 26.4044 336.682 25.461 339.753L23.3259 339.852L22.8791 338.399C22.6308 337.59 21.7867 334.932 21.0088 332.489C20.2309 330.029 19.602 327.933 19.602 327.817C19.602 327.685 19.9164 327.619 20.595 327.619ZM39.2976 327.619H41.2838V339.836H39.2976V327.619ZM72.8796 327.619H74.8823V331.581C74.8823 334.784 74.9319 335.659 75.1305 336.154C75.2795 336.501 75.5939 336.98 75.8422 337.244C76.0905 337.508 76.5539 337.822 76.8684 337.954C77.1828 338.086 77.8118 338.185 78.2752 338.185C78.7221 338.168 79.4007 338.036 79.7648 337.871C80.1289 337.706 80.5923 337.392 80.791 337.161C80.9896 336.947 81.2709 336.435 81.4199 336.039C81.6185 335.444 81.6682 334.52 81.6682 327.619H83.8198V339.836H81.6682V338.35L81.122 338.779C80.8406 339.01 80.2944 339.373 79.9303 339.555C79.4007 339.836 78.9538 339.902 77.7787 339.902C76.4711 339.918 76.1898 339.852 75.4615 339.472C74.9981 339.225 74.4354 338.829 74.1871 338.564C73.9554 338.3 73.5747 337.756 73.3596 337.359C72.9954 336.633 72.9789 336.451 72.9292 332.109L72.8796 327.619ZM93.0883 327.619H95.24V339.836H93.0883V327.619ZM141.748 327.619H143.734V339.836H141.748V327.619Z" fill="black"/>
<defs>
<linearGradient id="paint0_linear_1433_5709" x1="85.5466" y1="68.9709" x2="85.5466" y2="248.046" gradientUnits="userSpaceOnUse">
<stop stop-color="#F99B43"/>
<stop offset="1" stop-color="#EF5630"/>
</linearGradient>
<linearGradient id="paint1_linear_1433_5709" x1="105.698" y1="98.8237" x2="105.698" y2="250.505" gradientUnits="userSpaceOnUse">
<stop stop-color="#C000F4"/>
<stop offset="1" stop-color="#8B00B1"/>
</linearGradient>
<linearGradient id="paint2_linear_1433_5709" x1="92.9642" y1="56.0462" x2="92.9642" y2="115.479" gradientUnits="userSpaceOnUse">
<stop stop-color="#CE1472"/>
<stop offset="1" stop-color="#8B1056"/>
</linearGradient>
</defs>
</svg>
