<svg width="20" height="22" viewBox="0 0 20 22" fill="none" xmlns="http://www.w3.org/2000/svg">
<path d="M13.75 1C13.75 0.801088 13.671 0.610322 13.5303 0.46967C13.3897 0.329018 13.1989 0.25 13 0.25C12.8011 0.25 12.6103 0.329018 12.4697 0.46967C12.329 0.610322 12.25 0.801088 12.25 1V21C12.25 21.1989 12.329 21.3897 12.4697 21.5303C12.6103 21.671 12.8011 21.75 13 21.75C13.1989 21.75 13.3897 21.671 13.5303 21.5303C13.671 21.3897 13.75 21.1989 13.75 21V18.994C16.386 18.967 17.854 18.803 18.828 17.828C20 16.657 20 14.771 20 11C20 7.229 20 5.343 18.828 4.172C17.854 3.197 16.386 3.033 13.75 3.006V1Z" fill="#A3A3A4"/>
<path fill-rule="evenodd" clip-rule="evenodd" d="M1.172 17.828C2.343 19 4.229 19 8 19H11V3H8C4.229 3 2.343 3 1.172 4.172C-1.19209e-07 5.343 0 7.229 0 11C0 14.771 -1.19209e-07 16.657 1.172 17.828ZM11 11C11 10.7348 10.8946 10.4804 10.7071 10.2929C10.5196 10.1054 10.2652 10 10 10C9.73478 10 9.48043 10.1054 9.29289 10.2929C9.10536 10.4804 9 10.7348 9 11C9 11.2652 9.10536 11.5196 9.29289 11.7071C9.48043 11.8946 9.73478 12 10 12C10.2652 12 10.5196 11.8946 10.7071 11.7071C10.8946 11.5196 11 11.2652 11 11ZM7 11C7 11.2652 6.89464 11.5196 6.70711 11.7071C6.51957 11.8946 6.26522 12 6 12C5.73478 12 5.48043 11.8946 5.29289 11.7071C5.10536 11.5196 5 11.2652 5 11C5 10.7348 5.10536 10.4804 5.29289 10.2929C5.48043 10.1054 5.73478 10 6 10C6.26522 10 6.51957 10.1054 6.70711 10.2929C6.89464 10.4804 7 10.7348 7 11Z" fill="#A3A3A4"/>
</svg>
