<svg width="32" height="32" viewBox="0 0 32 32" fill="none" xmlns="http://www.w3.org/2000/svg">
<g clip-path="url(#clip0_4257_4393)">
<path d="M27.1455 2.4908C25.4038 0.80794 22.2553 0.0864563 18.2274 0.0864563H6.53741C6.13889 0.0864688 5.75345 0.20699 5.45038 0.426353C5.14731 0.645715 4.9465 0.949528 4.88404 1.28317L0.0165375 27.4519C-0.0802125 27.9679 0.391163 28.4352 1.00816 28.4352H8.22516L10.0377 18.6899L9.98141 18.9951C10.1105 18.3062 10.8055 17.7981 11.6285 17.7981H15.058C21.7953 17.7981 27.0707 15.4785 28.6117 8.7681C28.6574 8.56964 28.697 8.37647 28.7313 8.18775C28.5368 8.10044 28.5368 8.10044 28.7313 8.18775C29.1902 5.70754 28.7282 4.01928 27.1455 2.4908Z" fill="#27346A"/>
<path d="M12.7992 7.2943C12.9965 7.21466 13.2123 7.17339 13.4308 7.1735H22.5955C23.6808 7.1735 24.693 7.23337 25.618 7.35957C25.8769 7.39455 26.1344 7.43632 26.3902 7.48481C26.7527 7.55263 27.1111 7.63563 27.4639 7.7335C27.9187 7.86224 28.3422 8.01218 28.7314 8.18775C29.1902 5.70659 28.7282 4.01928 27.1455 2.4908C25.4028 0.80794 22.2553 0.0864563 18.2274 0.0864563H6.53641C5.71329 0.0864563 5.01304 0.59443 4.88404 1.28317L0.0165382 27.4509C-0.0802118 27.9678 0.391163 28.4344 1.00716 28.4344H8.22516L11.9855 8.22039C12.0225 8.0217 12.1159 7.83361 12.2576 7.67228C12.3993 7.51096 12.5852 7.38125 12.7992 7.2943Z" fill="#27346A"/>
<path d="M28.6118 8.7681C27.0708 15.4775 21.7955 17.7981 15.0582 17.7981H11.6277C10.8047 17.7981 10.1095 18.3062 9.98166 18.9951L7.72679 31.1122C7.64254 31.5638 8.05453 31.973 8.59353 31.973H14.6773C15.0258 31.9729 15.3628 31.8674 15.6278 31.6755C15.8927 31.4836 16.0682 31.2179 16.1227 30.9261L16.1819 30.6633L17.3285 24.5032L17.4024 24.1628C17.4569 23.871 17.6323 23.6053 17.8973 23.4134C18.1622 23.2215 18.4992 23.116 18.8477 23.1159H19.7582C25.6515 23.1159 30.2662 21.0863 31.6147 15.2165C32.1775 12.7635 31.8863 10.7155 30.3973 9.27703C29.9457 8.84132 29.3848 8.48148 28.7314 8.18776C28.696 8.37743 28.6577 8.56964 28.6118 8.7681Z" fill="#2790C3"/>
<path d="M27.1185 7.6427C26.8783 7.58323 26.6357 7.53057 26.3913 7.48482C26.1354 7.43712 25.8779 7.39564 25.6192 7.36042C24.6932 7.23338 23.6817 7.1734 22.5954 7.1734H13.4318C13.2131 7.17298 12.9971 7.21461 12.8002 7.29515C12.586 7.38183 12.3999 7.51147 12.2581 7.67284C12.1163 7.83421 12.0231 8.02244 11.9864 8.22124L10.0387 18.6899L9.98242 18.9951C10.1105 18.3062 10.8055 17.7981 11.6287 17.7981H15.0592C21.7964 17.7981 27.0717 15.4785 28.6127 8.76811C28.6585 8.56964 28.697 8.37733 28.7324 8.18776C28.3422 8.01314 27.9198 7.86225 27.4649 7.73436C27.3501 7.7021 27.2347 7.67155 27.1187 7.6427" fill="#1F264F"/>
</g>
<defs>
<clipPath id="clip0_4257_4393">
<rect width="32" height="32" fill="white"/>
</clipPath>
</defs>
</svg>
