<svg width="16" height="20" viewBox="0 0 16 20" fill="none" xmlns="http://www.w3.org/2000/svg">
<path d="M13.754 12C14.333 12.0002 14.8896 12.2235 15.3081 12.6236C15.7266 13.0236 15.9748 13.5696 16.001 14.148V14.25H8.00403V15.249L15.979 15.25C15.9182 15.7809 15.7447 16.2926 15.47 16.751L8.00403 16.749V17.749L14.642 17.751C13.082 19.257 10.852 20.001 8.00003 20.001C4.85403 20.001 2.46803 19.096 0.902028 17.261C0.322637 16.5823 0.00423579 15.7193 0.00402854 14.827V14.249C0.00389718 13.9536 0.061972 13.661 0.174936 13.388C0.2879 13.1151 0.453539 12.867 0.662391 12.6581C0.871243 12.4491 1.11922 12.2834 1.39214 12.1703C1.66507 12.0572 1.9576 11.999 2.25303 11.999H13.754V12ZM8.00003 -1.30799e-06C8.77639 -0.000779422 9.54223 0.179605 10.2366 0.526805C10.931 0.874005 11.5348 1.37844 12 2H8.00303V2.999L12.584 3C12.788 3.468 12.923 3.972 12.976 4.5H8.00303V5.5L12.976 5.502C12.9246 6.01943 12.7924 6.52558 12.584 7.002L8.00303 7V8L12 8.001C11.4885 8.68263 10.8113 9.22222 10.0327 9.56853C9.254 9.91484 8.39975 10.0564 7.551 9.97973C6.70226 9.90307 5.88719 9.61075 5.18319 9.13052C4.47919 8.65029 3.90961 7.99809 3.52853 7.23584C3.14745 6.47359 2.96753 5.62659 3.00583 4.77526C3.04414 3.92392 3.2994 3.0965 3.74739 2.37156C4.19538 1.64661 4.82123 1.0482 5.56552 0.633134C6.30981 0.218069 7.14783 0.000126562 8.00003 -1.30799e-06Z" fill="#A3A3A4"/>
</svg>
