<svg width="24" height="24" viewBox="0 0 24 24" fill="none" xmlns="http://www.w3.org/2000/svg">
<path d="M12 17C12.2833 17 12.521 16.904 12.713 16.712C12.905 16.52 13.0007 16.2827 13 16V12C13 11.7167 12.904 11.479 12.712 11.287C12.52 11.095 12.2827 10.9993 12 11C11.7167 11 11.479 11.096 11.287 11.288C11.095 11.48 10.9993 11.7173 11 12V16C11 16.2833 11.096 16.521 11.288 16.713C11.48 16.905 11.7173 17.0007 12 17ZM12 9C12.2833 9 12.521 8.904 12.713 8.712C12.905 8.52 13.0007 8.28267 13 8C13 7.71667 12.904 7.479 12.712 7.287C12.52 7.095 12.2827 6.99933 12 7C11.7167 7 11.479 7.096 11.287 7.288C11.095 7.48 10.9993 7.71733 11 8C11 8.28333 11.096 8.521 11.288 8.713C11.48 8.905 11.7173 9.00067 12 9ZM12 21.9C11.8833 21.9 11.775 21.8917 11.675 21.875C11.575 21.8583 11.475 21.8333 11.375 21.8C9.125 21.05 7.33333 19.6623 6 17.637C4.66667 15.6117 4 13.4327 4 11.1V6.375C4 5.95833 4.121 5.58333 4.363 5.25C4.605 4.91667 4.91733 4.675 5.3 4.525L11.3 2.275C11.5333 2.19167 11.7667 2.15 12 2.15C12.2333 2.15 12.4667 2.19167 12.7 2.275L18.7 4.525C19.0833 4.675 19.396 4.91667 19.638 5.25C19.88 5.58333 20.0007 5.95833 20 6.375V11.1C20 13.4333 19.3333 15.6127 18 17.638C16.6667 19.6633 14.875 21.0507 12.625 21.8C12.525 21.8333 12.425 21.8583 12.325 21.875C12.225 21.8917 12.1167 21.9 12 21.9ZM12 19.9C13.7333 19.35 15.1667 18.25 16.3 16.6C17.4333 14.95 18 13.1167 18 11.1V6.375L12 4.125L6 6.375V11.1C6 13.1167 6.56667 14.95 7.7 16.6C8.83333 18.25 10.2667 19.35 12 19.9Z" fill="#450E8B"/>
</svg>
