<svg width="46" height="30" viewBox="0 0 46 30" fill="none" xmlns="http://www.w3.org/2000/svg">
<rect width="46" height="30" rx="15" fill="url(#paint0_linear_3979_2246)"/>
<path d="M32 24L26 18M14 13C14 13.9193 14.1811 14.8295 14.5328 15.6788C14.8846 16.5281 15.4002 17.2997 16.0503 17.9497C16.7003 18.5998 17.4719 19.1154 18.3212 19.4672C19.1705 19.8189 20.0807 20 21 20C21.9193 20 22.8295 19.8189 23.6788 19.4672C24.5281 19.1154 25.2997 18.5998 25.9497 17.9497C26.5998 17.2997 27.1154 16.5281 27.4672 15.6788C27.8189 14.8295 28 13.9193 28 13C28 12.0807 27.8189 11.1705 27.4672 10.3212C27.1154 9.47194 26.5998 8.70026 25.9497 8.05025C25.2997 7.40024 24.5281 6.88463 23.6788 6.53284C22.8295 6.18106 21.9193 6 21 6C20.0807 6 19.1705 6.18106 18.3212 6.53284C17.4719 6.88463 16.7003 7.40024 16.0503 8.05025C15.4002 8.70026 14.8846 9.47194 14.5328 10.3212C14.1811 11.1705 14 12.0807 14 13Z" stroke="white" stroke-width="2" stroke-linecap="round" stroke-linejoin="round"/>
<defs>
<linearGradient id="paint0_linear_3979_2246" x1="23" y1="0" x2="23" y2="30" gradientUnits="userSpaceOnUse">
<stop stop-color="#450E8B"/>
<stop offset="1" stop-color="#EC8C34"/>
</linearGradient>
</defs>
</svg>
