<svg width="18" height="18" viewBox="0 0 18 18" fill="none" xmlns="http://www.w3.org/2000/svg">
<path d="M0 17H2V11H0V17ZM9.46 18L6.53 17.36L3.6 16.67C3.43041 16.6369 3.27805 16.5448 3.17 16.41C3.05824 16.2791 2.99783 16.1121 3 15.94V11.94C3.00283 11.7688 3.06265 11.6034 3.17 11.47C3.28169 11.3394 3.43246 11.2482 3.6 11.21L8.38 10.62L13.17 10.02L13.32 10.58L13.47 11.13C13.4727 11.3144 13.4204 11.4954 13.32 11.65C13.2281 11.8117 13.0884 11.941 12.92 12.02L10.92 12.52L8.92 13.02L10.54 13.68L12.17 14.33L14.44 13.69L16.65 13C16.8464 12.9503 17.0544 12.979 17.23 13.08C17.3184 13.1278 17.3961 13.1933 17.458 13.2724C17.52 13.3516 17.5649 13.4427 17.59 13.54L17.78 14.31L17.98 15.07C18.0254 15.2601 17.9968 15.4602 17.9 15.63C17.7971 15.8013 17.6325 15.9265 17.44 15.98L13.81 16.98L10.18 17.98C10.0605 17.9953 9.93951 17.9953 9.82 17.98C9.70192 18.0064 9.58028 18.0132 9.46 18ZM6 0L4 2L2 4L4 6L6 8L6.7 7.3L7.4 6.6L6.1 5.3L4.8 4L6.1 2.7L7.4 1.4L6.7 0.7L6 0ZM12 0L11.3 0.7L10.6 1.4L11.9 2.7L13.2 4L11.9 5.3L10.6 6.6L11.3 7.3L12 8L14 6L16 4L14 2L12 0Z" fill="#A3A3A4"/>
</svg>
