<svg width="300" height="480" viewBox="0 0 300 480" fill="none" xmlns="http://www.w3.org/2000/svg">
<path d="M300 208.44H0V208.59H300V208.44Z" fill="#EBEBEB"/>
<path d="M269.94 218.094H261V218.244H269.94V218.094Z" fill="#EBEBEB"/>
<path d="M198.732 219.726H193.518V219.876H198.732V219.726Z" fill="#EBEBEB"/>
<path d="M258.468 212.526H237.954V212.676H258.468V212.526Z" fill="#EBEBEB"/>
<path d="M65.778 215.622H39.864V215.772H65.778V215.622Z" fill="#EBEBEB"/>
<path d="M80.466 215.622H71.118V215.772H80.466V215.622Z" fill="#EBEBEB"/>
<path d="M152.856 213.606H96.648V213.756H152.856V213.606Z" fill="#EBEBEB"/>
<path d="M142.2 181.68H26.346C25.4384 181.678 24.5686 181.317 23.9274 180.674C23.2862 180.032 22.926 179.162 22.926 178.254V15.396C22.9339 14.4936 23.2975 13.6308 23.9379 12.9949C24.5782 12.3591 25.4436 12.0015 26.346 12H142.2C143.109 12 143.98 12.361 144.623 13.0035C145.265 13.646 145.626 14.5174 145.626 15.426V178.254C145.626 179.163 145.265 180.034 144.623 180.677C143.98 181.319 143.109 181.68 142.2 181.68ZM26.346 12.12C25.4782 12.1216 24.6465 12.4674 24.0334 13.0816C23.4204 13.6958 23.076 14.5282 23.076 15.396V178.254C23.076 179.122 23.4204 179.954 24.0334 180.568C24.6465 181.183 25.4782 181.528 26.346 181.53H142.2C143.068 181.528 143.901 181.183 144.515 180.569C145.129 179.955 145.474 179.122 145.476 178.254V15.396C145.474 14.5276 145.129 13.6953 144.515 13.0813C143.901 12.4672 143.068 12.1216 142.2 12.12H26.346Z" fill="#EBEBEB"/>
<path d="M271.986 181.68H156.126C155.218 181.678 154.347 181.317 153.705 180.675C153.063 180.033 152.702 179.162 152.7 178.254V15.396C152.709 14.4931 153.074 13.6302 153.716 12.9946C154.357 12.3589 155.223 12.0015 156.126 12H271.986C272.887 12.0031 273.751 12.3613 274.39 12.997C275.029 13.6327 275.392 14.4947 275.4 15.396V178.254C275.4 179.161 275.041 180.03 274.401 180.672C273.761 181.314 272.893 181.677 271.986 181.68ZM156.126 12.12C155.258 12.1216 154.425 12.4672 153.811 13.0813C153.197 13.6953 152.852 14.5276 152.85 15.396V178.254C152.852 179.122 153.197 179.955 153.811 180.569C154.425 181.183 155.258 181.528 156.126 181.53H271.986C272.854 181.528 273.687 181.183 274.301 180.569C274.915 179.955 275.26 179.122 275.262 178.254V15.396C275.26 14.5276 274.915 13.6953 274.301 13.0813C273.687 12.4672 272.854 12.1216 271.986 12.12H156.126Z" fill="#EBEBEB"/>
<path d="M101.544 48.6H44.742V208.44H101.544V48.6Z" fill="#E0E0E0"/>
<path d="M101.538 208.44L252.144 208.44L252.144 48.6L101.538 48.6L101.538 208.44Z" fill="#F5F5F5"/>
<path d="M107.544 68.598H38.742V72.6H107.544V68.598Z" fill="#EBEBEB"/>
<path d="M107.538 72.6L258.144 72.6V68.598L107.538 68.598V72.6Z" fill="#E0E0E0"/>
<path d="M107.544 92.598H38.742V96.6H107.544V92.598Z" fill="#EBEBEB"/>
<path d="M107.538 96.6L258.144 96.6V92.598L107.538 92.598V96.6Z" fill="#E0E0E0"/>
<path d="M107.544 116.598H38.742V120.6H107.544V116.598Z" fill="#EBEBEB"/>
<path d="M107.538 120.6L258.144 120.6V116.598L107.538 116.598V120.6Z" fill="#E0E0E0"/>
<path d="M107.544 140.598H38.742V144.6H107.544V140.598Z" fill="#EBEBEB"/>
<path d="M107.538 144.6L258.144 144.6V140.598L107.538 140.598V144.6Z" fill="#E0E0E0"/>
<path d="M107.544 164.598H38.742V168.6H107.544V164.598Z" fill="#EBEBEB"/>
<path d="M107.538 168.6L258.144 168.6V164.598L107.538 164.598V168.6Z" fill="#E0E0E0"/>
<path d="M107.544 188.598H38.742V192.6H107.544V188.598Z" fill="#EBEBEB"/>
<path d="M107.538 192.6L258.144 192.6V188.598L107.538 188.598V192.6Z" fill="#E0E0E0"/>
<path d="M147.078 0H60.678V42.6H147.078V0Z" fill="#F5F5F5"/>
<path d="M107.538 42.6H100.206V48.6H107.538V42.6Z" fill="#E0E0E0"/>
<path d="M147.078 37.968H60.678V42.6H147.078V37.968Z" fill="#F0F0F0"/>
<path d="M147.078 0H60.678V4.632H147.078V0Z" fill="#F0F0F0"/>
<path d="M225.678 17.76H182.844V44.796H225.678V17.76Z" fill="#F5F5F5"/>
<path d="M206.586 44.79H201.93V48.6H206.586V44.79Z" fill="#E0E0E0"/>
<path d="M225.678 41.856H182.844V44.796H225.678V41.856Z" fill="#F0F0F0"/>
<path d="M225.678 17.76H182.844V20.7H225.678V17.76Z" fill="#F0F0F0"/>
<path d="M229.128 53.448H213.978V68.598H229.128V53.448Z" fill="#E6E6E6"/>
<path d="M229.122 68.604H243.774V53.454H229.122V68.604Z" fill="white"/>
<path d="M211.128 53.448H195.978V68.598H211.128V53.448Z" fill="#E6E6E6"/>
<path d="M211.122 68.604H225.774V53.454H211.122V68.604Z" fill="white"/>
<path d="M193.128 53.448H177.978V68.598H193.128V53.448Z" fill="#E6E6E6"/>
<path d="M193.122 68.604H207.774V53.454H193.122V68.604Z" fill="white"/>
<path d="M175.128 53.448H159.978V68.598H175.128V53.448Z" fill="#E6E6E6"/>
<path d="M175.122 68.604H189.774V53.454H175.122V68.604Z" fill="white"/>
<path d="M55.506 92.604H61.854V76.668H55.506V92.604Z" fill="#F0F0F0"/>
<path d="M55.512 76.662H49.374V92.598H55.512V76.662Z" fill="white"/>
<path d="M63.048 92.604H69.396V76.668H63.048V92.604Z" fill="#F0F0F0"/>
<path d="M63.048 76.662H56.91V92.598H63.048V76.662Z" fill="white"/>
<path d="M70.584 92.604H76.932V76.668H70.584V92.604Z" fill="#F0F0F0"/>
<path d="M70.59 76.662H64.452V92.598H70.59V76.662Z" fill="white"/>
<path d="M78.132 92.604H84.48V76.668H78.132V92.604Z" fill="#F0F0F0"/>
<path d="M78.132 76.662H71.994V92.598H78.132V76.662Z" fill="white"/>
<path d="M60.702 164.604H69.246V153.87H60.702V164.604Z" fill="#F0F0F0"/>
<path d="M60.702 153.864H52.44V164.598H60.702V153.864Z" fill="white"/>
<path d="M70.854 164.604H79.398V153.87H70.854V164.604Z" fill="#F0F0F0"/>
<path d="M70.854 153.864H62.592V164.598H70.854V153.864Z" fill="white"/>
<path d="M81.006 164.604H89.55V153.87H81.006V164.604Z" fill="#F0F0F0"/>
<path d="M81.006 153.864H72.744V164.598H81.006V153.864Z" fill="white"/>
<path d="M91.152 164.604H99.696V153.87H91.152V164.604Z" fill="#F0F0F0"/>
<path d="M91.158 153.864H82.896V164.598H91.158V153.864Z" fill="white"/>
<path d="M231.954 101.448H223.56V116.598H231.954V101.448Z" fill="#E6E6E6"/>
<path d="M231.96 116.604H240.078V101.454H231.96V116.604Z" fill="white"/>
<path d="M221.976 101.448H213.582V116.598H221.976V101.448Z" fill="#E6E6E6"/>
<path d="M221.976 116.604H230.094V101.454H221.976V116.604Z" fill="white"/>
<path d="M211.998 101.448H203.604V116.598H211.998V101.448Z" fill="#E6E6E6"/>
<path d="M212.004 116.604H220.122V101.454H212.004V116.604Z" fill="white"/>
<path d="M202.026 101.448H193.632V116.598H202.026V101.448Z" fill="#E6E6E6"/>
<path d="M202.032 116.604H210.15V101.454H202.032V116.604Z" fill="white"/>
<path d="M180.198 101.448H171.804V116.598H180.198V101.448Z" fill="#E6E6E6"/>
<path d="M180.204 116.604H188.322V101.454H180.204V116.604Z" fill="white"/>
<path d="M170.22 101.448H161.826V116.598H170.22V101.448Z" fill="#E6E6E6"/>
<path d="M170.226 116.604H178.344V101.454H170.226V116.604Z" fill="white"/>
<path d="M160.248 101.448H151.854V116.598H160.248V101.448Z" fill="#E6E6E6"/>
<path d="M160.248 116.604H168.366V101.454H160.248V116.604Z" fill="white"/>
<path d="M150.27 101.448H141.876V116.598H150.27V101.448Z" fill="#E6E6E6"/>
<path d="M150.276 116.604H158.394V101.454H150.276V116.604Z" fill="white"/>
<path d="M218.274 153.87H197.814V164.568H218.274V153.87Z" fill="#E6E6E6"/>
<path d="M218.274 164.562H238.056V153.864H218.274V164.562Z" fill="white"/>
<path d="M193.962 153.87H173.502V164.568H193.962V153.87Z" fill="#E6E6E6"/>
<path d="M193.968 164.562H213.75V153.864H193.968V164.562Z" fill="white"/>
<path d="M169.656 153.87H149.196V164.568H169.656V153.87Z" fill="#E6E6E6"/>
<path d="M169.656 164.562H189.438V153.864H169.656V164.562Z" fill="white"/>
<path d="M145.35 153.87H124.89V164.568H145.35V153.87Z" fill="#E6E6E6"/>
<path d="M145.35 164.562H165.132V153.864H145.35V164.562Z" fill="white"/>
<path d="M125.226 92.598C128.954 92.598 131.976 89.5759 131.976 85.848C131.976 82.1201 128.954 79.098 125.226 79.098C121.498 79.098 118.476 82.1201 118.476 85.848C118.476 89.5759 121.498 92.598 125.226 92.598Z" fill="#E6E6E6"/>
<path d="M143.226 92.598C146.954 92.598 149.976 89.5759 149.976 85.848C149.976 82.1201 146.954 79.098 143.226 79.098C139.498 79.098 136.476 82.1201 136.476 85.848C136.476 89.5759 139.498 92.598 143.226 92.598Z" fill="#E6E6E6"/>
<path d="M161.226 92.598C164.954 92.598 167.976 89.5759 167.976 85.848C167.976 82.1201 164.954 79.098 161.226 79.098C157.498 79.098 154.476 82.1201 154.476 85.848C154.476 89.5759 157.498 92.598 161.226 92.598Z" fill="#E6E6E6"/>
<path d="M179.226 92.598C182.954 92.598 185.976 89.5759 185.976 85.848C185.976 82.1201 182.954 79.098 179.226 79.098C175.498 79.098 172.476 82.1201 172.476 85.848C172.476 89.5759 175.498 92.598 179.226 92.598Z" fill="#E6E6E6"/>
<path d="M53.9291 140.49C56.3221 139.925 57.8042 137.527 57.2394 135.134C56.6746 132.741 54.2768 131.259 51.8838 131.824C49.4907 132.389 48.0087 134.786 48.5735 137.179C49.1383 139.572 51.5361 141.054 53.9291 140.49Z" fill="#E6E6E6"/>
<path d="M65.7977 140.487C68.1907 139.923 69.6728 137.525 69.108 135.132C68.5432 132.739 66.1454 131.257 63.7524 131.822C61.3594 132.386 59.8773 134.784 60.4421 137.177C61.0069 139.57 63.4047 141.052 65.7977 140.487Z" fill="#E6E6E6"/>
<path d="M80.7633 137.854C81.7042 135.582 80.6255 132.978 78.3539 132.037C76.0823 131.096 73.478 132.175 72.5371 134.446C71.5961 136.718 72.6749 139.322 74.9465 140.263C77.2181 141.204 79.8224 140.125 80.7633 137.854Z" fill="#E6E6E6"/>
<path d="M91.6647 139.302C93.4033 137.563 93.4033 134.744 91.6647 133.006C89.9261 131.267 87.1073 131.267 85.3686 133.006C83.63 134.744 83.63 137.563 85.3687 139.302C87.1073 141.04 89.9261 141.04 91.6647 139.302Z" fill="#E6E6E6"/>
<path d="M204.003 185.751C204.981 183.391 203.86 180.685 201.5 179.707C199.139 178.729 196.433 179.85 195.456 182.211C194.478 184.571 195.599 187.277 197.959 188.255C200.32 189.233 203.026 188.112 204.003 185.751Z" fill="white"/>
<path d="M212.481 187.747C214.959 187.159 216.492 184.674 215.904 182.195C215.317 179.717 212.831 178.185 210.353 178.772C207.875 179.36 206.342 181.845 206.93 184.323C207.518 186.802 210.003 188.334 212.481 187.747Z" fill="white"/>
<path d="M228.662 185.75C229.64 183.39 228.519 180.684 226.159 179.706C223.798 178.729 221.092 179.849 220.115 182.21C219.137 184.57 220.258 187.276 222.618 188.254C224.979 189.232 227.685 188.111 228.662 185.75Z" fill="white"/>
<path d="M240.995 185.747C241.973 183.387 240.852 180.681 238.491 179.703C236.131 178.725 233.425 179.846 232.447 182.206C231.469 184.567 232.59 187.273 234.951 188.251C237.311 189.228 240.017 188.107 240.995 185.747Z" fill="white"/>
<path d="M209.349 180.792C211.156 178.985 211.156 176.056 209.349 174.249C207.542 172.443 204.613 172.443 202.807 174.249C201 176.056 201 178.985 202.807 180.792C204.613 182.598 207.542 182.598 209.349 180.792Z" fill="white"/>
<path d="M222.683 179.29C223.66 176.93 222.539 174.224 220.179 173.246C217.819 172.269 215.113 173.39 214.135 175.75C213.157 178.11 214.278 180.816 216.638 181.794C218.999 182.772 221.705 181.651 222.683 179.29Z" fill="white"/>
<path d="M231.1 181.304C233.578 180.717 235.111 178.231 234.523 175.753C233.936 173.275 231.45 171.742 228.972 172.33C226.494 172.917 224.961 175.403 225.549 177.881C226.136 180.359 228.622 181.892 231.1 181.304Z" fill="white"/>
<path d="M143.134 187.25C144.941 185.444 144.941 182.515 143.134 180.708C141.328 178.902 138.399 178.902 136.592 180.708C134.786 182.515 134.786 185.444 136.592 187.25C138.399 189.057 141.328 189.057 143.134 187.25Z" fill="white"/>
<path d="M156.465 185.751C157.443 183.39 156.322 180.684 153.962 179.707C151.601 178.729 148.895 179.85 147.918 182.21C146.94 184.571 148.061 187.277 150.421 188.254C152.782 189.232 155.488 188.111 156.465 185.751Z" fill="white"/>
<path d="M165.579 188.491C168.065 187.904 169.605 185.413 169.018 182.926C168.432 180.44 165.94 178.9 163.453 179.486C160.967 180.073 159.427 182.565 160.014 185.051C160.601 187.538 163.092 189.078 165.579 188.491Z" fill="white"/>
<path d="M181.124 185.744C182.102 183.384 180.981 180.677 178.621 179.7C176.26 178.722 173.554 179.843 172.577 182.203C171.599 184.564 172.72 187.27 175.08 188.247C177.441 189.225 180.147 188.104 181.124 185.744Z" fill="white"/>
<path d="M150.48 179.291C151.457 176.93 150.336 174.224 147.976 173.247C145.616 172.269 142.91 173.39 141.932 175.75C140.954 178.111 142.075 180.817 144.435 181.794C146.796 182.772 149.502 181.651 150.48 179.291Z" fill="white"/>
<path d="M161.809 180.794C163.615 178.987 163.615 176.058 161.809 174.252C160.002 172.445 157.073 172.445 155.266 174.252C153.46 176.058 153.46 178.987 155.266 180.794C157.073 182.601 160.002 182.601 161.809 180.794Z" fill="white"/>
<path d="M175.139 179.29C176.116 176.929 174.995 174.223 172.635 173.246C170.275 172.268 167.569 173.389 166.591 175.749C165.613 178.11 166.734 180.816 169.094 181.793C171.455 182.771 174.161 181.65 175.139 179.29Z" fill="white"/>
<path d="M226.176 128.52L229.566 140.598H211.806L226.176 128.52Z" fill="#E0E0E0"/>
<path d="M226.176 128.52L220.002 140.598H238.74L226.176 128.52Z" fill="white"/>
<path d="M198.09 128.52L201.48 140.598H183.714L198.09 128.52Z" fill="#E0E0E0"/>
<path d="M198.09 128.52L191.916 140.598H210.654L198.09 128.52Z" fill="white"/>
<path d="M169.998 128.52L173.394 140.598H155.628L169.998 128.52Z" fill="#E0E0E0"/>
<path d="M169.998 128.52L163.824 140.598H182.568L169.998 128.52Z" fill="white"/>
<path d="M54.42 104.868L52.53 116.598H62.436L54.42 104.868Z" fill="#F5F5F5"/>
<path d="M54.42 104.868L57.864 116.598H47.412L54.42 104.868Z" fill="white"/>
<path d="M70.086 104.868L68.196 116.598H78.102L70.086 104.868Z" fill="#F5F5F5"/>
<path d="M70.086 104.868L73.53 116.598H63.078L70.086 104.868Z" fill="white"/>
<path d="M85.752 104.868L83.856 116.598H93.768L85.752 104.868Z" fill="#F5F5F5"/>
<path d="M85.752 104.868L89.196 116.598H78.744L85.752 104.868Z" fill="white"/>
<path d="M141.912 128.52L145.302 140.598H127.542L141.912 128.52Z" fill="#E0E0E0"/>
<path d="M141.912 128.52L135.738 140.598H154.482L141.912 128.52Z" fill="white"/>
<path d="M150 235.536C214.249 235.536 266.334 232.495 266.334 228.744C266.334 224.993 214.249 221.952 150 221.952C85.7505 221.952 33.666 224.993 33.666 228.744C33.666 232.495 85.7505 235.536 150 235.536Z" fill="#F5F5F5"/>
<path d="M175.2 150.414H224.874C225.888 150.414 226.86 150.817 227.577 151.533C228.293 152.25 228.696 153.222 228.696 154.236C228.696 155.25 228.293 156.222 227.577 156.939C226.86 157.655 225.888 158.058 224.874 158.058H175.2V150.414Z" fill="#450E8B"/>
<path opacity="0.6" d="M175.2 150.414H224.874C225.888 150.414 226.86 150.817 227.577 151.533C228.293 152.25 228.696 153.222 228.696 154.236C228.696 155.25 228.293 156.222 227.577 156.939C226.86 157.655 225.888 158.058 224.874 158.058H175.2V150.414Z" fill="white"/>
<path d="M225.592 127.893C226.32 124.807 224.409 121.714 221.323 120.986C218.236 120.257 215.144 122.169 214.415 125.255C213.687 128.342 215.598 131.434 218.685 132.163C221.771 132.891 224.864 130.98 225.592 127.893Z" fill="#450E8B"/>
<path opacity="0.8" d="M225.592 127.893C226.32 124.807 224.409 121.714 221.323 120.986C218.236 120.257 215.144 122.169 214.415 125.255C213.687 128.342 215.598 131.434 218.685 132.163C221.771 132.891 224.864 130.98 225.592 127.893Z" fill="white"/>
<path d="M180.486 127.35H227.952L223.404 150.414H185.028L180.486 127.35Z" fill="#263238"/>
<path d="M179.16 125.136H229.272C229.382 125.135 229.491 125.16 229.59 125.209C229.689 125.258 229.775 125.329 229.841 125.417C229.908 125.505 229.953 125.608 229.973 125.716C229.993 125.825 229.987 125.936 229.956 126.042L229.356 128.088C229.312 128.235 229.222 128.365 229.099 128.456C228.975 128.548 228.826 128.598 228.672 128.598H179.754C179.6 128.598 179.451 128.548 179.327 128.456C179.204 128.365 179.114 128.235 179.07 128.088L178.47 126.042C178.439 125.936 178.433 125.824 178.454 125.715C178.474 125.606 178.519 125.503 178.586 125.415C178.654 125.327 178.74 125.256 178.84 125.207C178.94 125.159 179.049 125.134 179.16 125.136Z" fill="#450E8B"/>
<path opacity="0.6" d="M179.16 125.136H229.272C229.382 125.135 229.491 125.16 229.59 125.209C229.689 125.258 229.775 125.329 229.841 125.417C229.908 125.505 229.953 125.608 229.973 125.716C229.993 125.825 229.987 125.936 229.956 126.042L229.356 128.088C229.312 128.235 229.222 128.365 229.099 128.456C228.975 128.548 228.826 128.598 228.672 128.598H179.754C179.6 128.598 179.451 128.548 179.327 128.456C179.204 128.365 179.114 128.235 179.07 128.088L178.47 126.042C178.439 125.936 178.433 125.824 178.454 125.715C178.474 125.606 178.519 125.503 178.586 125.415C178.654 125.327 178.74 125.256 178.84 125.207C178.94 125.159 179.049 125.134 179.16 125.136Z" fill="white"/>
<path d="M207.918 122.4H185.118V125.136H207.918V122.4Z" fill="#450E8B"/>
<path opacity="0.2" d="M207.918 122.4H185.118V125.136H207.918V122.4Z" fill="black"/>
<path d="M198.216 130.128C198.163 130.292 198.054 130.432 197.908 130.524C197.762 130.616 197.589 130.654 197.418 130.632C195.618 130.326 194.73 128.688 195.384 126.714L199.974 112.86C200.7 110.67 203.07 108.894 205.254 108.894H213.384C215.568 108.894 216.756 110.694 216.036 112.86L211.962 125.136H210.6L214.668 112.86C215.148 111.426 214.368 110.256 212.934 110.256H204.804C204.036 110.306 203.298 110.58 202.683 111.042C202.067 111.504 201.599 112.136 201.336 112.86L196.746 126.714C196.356 127.884 196.806 128.88 197.76 129.204C197.851 129.234 197.935 129.283 198.007 129.346C198.079 129.409 198.138 129.485 198.18 129.571C198.223 129.657 198.248 129.75 198.254 129.846C198.26 129.942 198.247 130.037 198.216 130.128Z" fill="#450E8B"/>
<path d="M185.274 123.372H107.994C105.128 123.372 102.804 125.696 102.804 128.562V223.554C102.804 226.42 105.128 228.744 107.994 228.744H185.274C188.14 228.744 190.464 226.42 190.464 223.554V128.562C190.464 125.696 188.14 123.372 185.274 123.372Z" fill="#450E8B"/>
<path d="M124.14 162.732H52.14C51.1258 162.734 50.1537 163.138 49.4371 163.855C48.7205 164.573 48.318 165.546 48.318 166.56C48.3156 167.063 48.4127 167.562 48.6038 168.028C48.7948 168.494 49.0759 168.917 49.4311 169.274C49.7862 169.631 50.2083 169.914 50.6732 170.107C51.1381 170.301 51.6366 170.4 52.14 170.4H124.14V162.732Z" fill="#450E8B"/>
<path opacity="0.3" d="M124.14 172.5L102.894 182.118V170.376H124.14V172.5Z" fill="#263238"/>
<path opacity="0.7" d="M124.14 162.732H78.282C77.2678 162.734 76.2957 163.138 75.5791 163.855C74.8625 164.573 74.46 165.546 74.46 166.56C74.4616 167.573 74.8648 168.544 75.5812 169.261C76.2976 169.977 77.2688 170.38 78.282 170.382H124.14V162.732Z" fill="white"/>
<path opacity="0.7" d="M185.274 123.372H131.934C129.068 123.372 126.744 125.696 126.744 128.562V223.554C126.744 226.42 129.068 228.744 131.934 228.744H185.274C188.14 228.744 190.464 226.42 190.464 223.554V128.562C190.464 125.696 188.14 123.372 185.274 123.372Z" fill="white"/>
<path d="M83.274 170.382H76.764V228.744H83.274V170.382Z" fill="#450E8B"/>
<path opacity="0.7" d="M83.274 170.382H76.764V228.744H83.274V170.382Z" fill="white"/>
<path opacity="0.3" d="M83.274 172.914L76.764 174.324V170.376H83.274V172.914Z" fill="#450E8B"/>
<path opacity="0.3" d="M183.012 135.828H134.19C133.372 135.828 132.708 136.492 132.708 137.31V153.984C132.708 154.803 133.372 155.466 134.19 155.466H183.012C183.83 155.466 184.494 154.803 184.494 153.984V137.31C184.494 136.492 183.83 135.828 183.012 135.828Z" fill="#450E8B"/>
<path d="M95.694 113.046H60.114L56.508 162.738H99.3L95.694 113.046Z" fill="#450E8B"/>
<path opacity="0.3" d="M64.836 113.046H60.114L56.508 162.738H66.084L64.836 113.046Z" fill="#263238"/>
<path d="M80.07 119.106C76.746 119.106 73.77 116.772 73.272 113.664C73.1494 112.912 73.1842 112.142 73.3742 111.403C73.5643 110.665 73.9054 109.974 74.376 109.374C74.9227 108.696 75.6024 108.137 76.3732 107.732C77.144 107.326 77.9896 107.083 78.858 107.016C82.428 106.692 85.764 109.122 86.292 112.416C86.4139 113.17 86.3782 113.941 86.1871 114.68C85.9961 115.42 85.6538 116.112 85.182 116.712C84.6369 117.39 83.9584 117.95 83.1885 118.355C82.4186 118.761 81.5737 119.004 80.706 119.07C80.49 119.094 80.28 119.106 80.07 119.106ZM79.5 108.042C79.32 108.042 79.134 108.042 78.954 108.042C78.2298 108.097 77.5243 108.298 76.8806 108.635C76.2369 108.971 75.6685 109.435 75.21 109.998C74.8287 110.485 74.5523 111.045 74.3985 111.644C74.2446 112.243 74.2165 112.868 74.316 113.478C74.754 116.244 77.58 118.278 80.61 118.002C81.3342 117.947 82.0397 117.746 82.6834 117.41C83.3271 117.073 83.8955 116.609 84.354 116.046C84.7353 115.559 85.0116 114.999 85.1655 114.4C85.3194 113.801 85.3475 113.176 85.248 112.566C84.834 109.992 82.314 108.042 79.5 108.042Z" fill="#450E8B"/>
<path d="M77.4 119.106C77.19 119.106 76.98 119.106 76.764 119.106C75.8963 119.04 75.0514 118.797 74.2815 118.391C73.5116 117.986 72.8331 117.426 72.288 116.748C71.8156 116.148 71.4735 115.456 71.2834 114.716C71.0933 113.977 71.0594 113.205 71.184 112.452C71.706 109.152 75.042 106.722 78.612 107.052C79.4806 107.118 80.3264 107.361 81.0973 107.767C81.8682 108.172 82.5478 108.731 83.094 109.41C83.5659 110.009 83.9078 110.7 84.0979 111.439C84.288 112.177 84.3221 112.947 84.198 113.7C83.682 116.772 80.7 119.106 77.4 119.106ZM78 108.042C75.18 108.042 72.66 109.992 72.246 112.59C72.1465 113.2 72.1746 113.825 72.3285 114.424C72.4824 115.023 72.7587 115.583 73.14 116.07C73.5985 116.633 74.1669 117.097 74.8106 117.433C75.4543 117.77 76.1598 117.971 76.884 118.026C79.914 118.296 82.74 116.268 83.184 113.502C83.2841 112.891 83.2558 112.266 83.1008 111.667C82.9459 111.068 82.6677 110.508 82.284 110.022C81.8267 109.459 81.2593 108.995 80.6166 108.659C79.9739 108.322 79.2693 108.121 78.546 108.066C78.312 108.048 78.132 108.042 77.952 108.042H78Z" fill="#450E8B"/>
<path d="M141.606 45.3361H131.046V123.378H141.606V45.3361Z" fill="#450E8B"/>
<path opacity="0.3" d="M141.606 87.12H131.046V107.514L141.606 106.212V87.12Z" fill="#263238"/>
<path opacity="0.3" d="M141.606 45.87H131.046V51.804L141.606 50.502V45.87Z" fill="#263238"/>
<path d="M108.75 101.634L105.804 58.884C105.779 58.5238 105.829 58.1623 105.95 57.8221C106.071 57.4818 106.26 57.1701 106.507 56.9062C106.753 56.6423 107.051 56.4319 107.383 56.288C107.714 56.1442 108.071 56.07 108.432 56.07H174.078C174.745 56.0684 175.387 56.3205 175.875 56.775C176.363 57.2296 176.66 57.8527 176.706 58.518L179.646 101.268C179.672 101.628 179.623 101.99 179.502 102.331C179.381 102.672 179.192 102.984 178.945 103.248C178.699 103.512 178.4 103.722 178.069 103.866C177.737 104.009 177.379 104.083 177.018 104.082H111.372C110.706 104.083 110.064 103.831 109.577 103.377C109.09 102.922 108.794 102.299 108.75 101.634Z" fill="#263238"/>
<path d="M173.322 58.02H109.296C109.092 58.0203 108.891 58.0625 108.704 58.144C108.517 58.2254 108.349 58.3444 108.21 58.4934C108.071 58.6425 107.964 58.8185 107.896 59.0106C107.828 59.2027 107.8 59.4067 107.814 59.61L110.646 100.746C110.672 101.122 110.839 101.474 111.114 101.731C111.389 101.988 111.751 102.131 112.128 102.132H176.154C176.358 102.132 176.561 102.091 176.748 102.01C176.936 101.929 177.104 101.81 177.244 101.661C177.384 101.512 177.491 101.335 177.559 101.143C177.628 100.95 177.656 100.746 177.642 100.542L174.81 59.4C174.783 59.0244 174.614 58.6731 174.338 58.417C174.062 58.1609 173.699 58.019 173.322 58.02Z" fill="#450E8B"/>
<path opacity="0.8" d="M173.322 58.02H109.296C109.092 58.0203 108.891 58.0625 108.704 58.144C108.517 58.2254 108.349 58.3444 108.21 58.4934C108.071 58.6425 107.964 58.8185 107.896 59.0106C107.828 59.2027 107.8 59.4067 107.814 59.61L110.646 100.746C110.672 101.122 110.839 101.474 111.114 101.731C111.389 101.988 111.751 102.131 112.128 102.132H176.154C176.358 102.132 176.561 102.091 176.748 102.01C176.936 101.929 177.104 101.81 177.244 101.661C177.384 101.512 177.491 101.335 177.559 101.143C177.628 100.95 177.656 100.746 177.642 100.542L174.81 59.4C174.783 59.0244 174.614 58.6731 174.338 58.417C174.062 58.1609 173.699 58.019 173.322 58.02Z" fill="white"/>
<path d="M173.97 121.944H117.774V123.372H173.97V121.944Z" fill="#263238"/>
<path opacity="0.3" d="M158.328 97.314H116.04L113.694 63.258H155.982L158.328 97.314Z" fill="#450E8B"/>
<path opacity="0.3" d="M170.418 66.306H159.024L158.814 63.258H170.208L170.418 66.306Z" fill="#450E8B"/>
<path opacity="0.3" d="M171.258 78.5881H159.864L159.27 69.9001H170.664L171.258 78.5881Z" fill="#450E8B"/>
<path d="M146.634 33.066H125.388V48.924H146.634V33.066Z" fill="#450E8B"/>
<path opacity="0.3" d="M134.226 33.066H125.388V48.924H134.226V33.066Z" fill="#263238"/>
<path d="M192.48 101.286L193.65 99.7921C193.867 99.5149 194.148 99.294 194.469 99.1478C194.789 99.0017 195.14 98.9345 195.492 98.9521L198.828 99.1021C199.485 99.1347 200.124 99.3231 200.694 99.6518C201.264 99.9804 201.747 100.44 202.104 100.992L202.548 101.688C200.748 104.298 196.926 105.81 196.926 105.81L195.882 106.362C195.67 106.482 195.437 106.558 195.196 106.587C194.954 106.616 194.71 106.597 194.476 106.531C194.242 106.464 194.024 106.352 193.833 106.2C193.643 106.049 193.485 105.861 193.368 105.648L192.246 103.584C192.058 103.22 191.979 102.808 192.021 102.4C192.063 101.992 192.222 101.605 192.48 101.286Z" fill="#FF8B7B"/>
<path d="M204.09 71.3641C204.438 71.7901 204.69 72.0901 204.942 72.4501C205.194 72.8101 205.446 73.1401 205.692 73.4821C206.184 74.1781 206.634 74.8861 207.084 75.5941C207.958 77.0289 208.759 78.5068 209.484 80.0221C209.856 80.7781 210.192 81.5581 210.534 82.3381C210.876 83.1181 211.164 83.9161 211.44 84.7381C212.015 86.371 212.48 88.0408 212.832 89.7361L212.898 90.0121C212.94 90.2092 212.961 90.4104 212.958 90.6121C212.955 91.6844 212.752 92.7467 212.358 93.7441C212.023 94.5709 211.59 95.3545 211.068 96.0781C210.185 97.2668 209.138 98.3252 207.96 99.2221C206.906 100.031 205.786 100.749 204.612 101.37C203.456 101.984 202.252 102.504 201.012 102.924C200.527 103.09 200 103.087 199.518 102.914C199.035 102.742 198.625 102.411 198.356 101.975C198.086 101.539 197.972 101.025 198.033 100.516C198.093 100.007 198.325 99.534 198.69 99.1741L198.84 99.0301C199.578 98.2921 200.43 97.4941 201.168 96.7141C201.9 95.9631 202.589 95.1719 203.232 94.3441C203.793 93.6549 204.266 92.8992 204.642 92.0941C204.942 91.4221 204.906 90.8941 204.816 90.8941L204.942 91.7461C204.492 90.4501 204.012 89.1661 203.43 87.8881C202.848 86.6101 202.23 85.3561 201.534 84.1081C200.838 82.8601 200.124 81.6361 199.35 80.4361C198.966 79.8361 198.57 79.2361 198.15 78.6361L197.55 77.7721L196.998 76.9921L196.854 76.7881C196.202 75.8343 195.941 74.6661 196.127 73.5255C196.312 72.385 196.929 71.3595 197.85 70.6615C198.771 69.9635 199.925 69.6465 201.073 69.7762C202.222 69.9059 203.276 70.4723 204.018 71.3581L204.09 71.3641Z" fill="#FF8B7B"/>
<path d="M195.858 66.2761C194.166 70.1161 194.274 74.9101 199.458 82.2421C202.902 82.6201 209.274 78.1441 209.274 78.1441C209.274 78.1441 204.9 65.8741 195.858 66.2761Z" fill="#263238"/>
<path d="M192.972 52.9261C191.97 56.6461 190.734 63.4621 193.146 65.9401C193.146 65.9401 189.624 65.4121 182.148 70.0381C179.982 66.9301 181.59 65.9401 181.59 65.9401C185.79 64.9501 185.934 61.8781 185.424 58.9861L192.972 52.9261Z" fill="#FF8B7B"/>
<path d="M177.756 68.7061C178.866 66.3061 181.482 64.0201 183.288 64.3621C185.094 64.7041 186.192 65.2681 187.26 64.3621C188.328 63.4561 190.968 62.1361 192.312 63.6301C194.202 65.7181 197.064 64.2301 195.984 66.5161C194.82 69.0001 177.756 68.7061 177.756 68.7061Z" fill="#450E8B"/>
<path d="M179.454 46.098C179.382 46.608 179.058 47.004 178.734 46.98C178.41 46.956 178.206 46.524 178.278 46.014C178.35 45.504 178.674 45.114 178.998 45.138C179.322 45.162 179.532 45.6 179.454 46.098Z" fill="#263238"/>
<path d="M179.136 45.1741L177.996 44.7361C177.996 44.7361 178.47 45.7321 179.136 45.1741Z" fill="#263238"/>
<path d="M179.346 47.058C178.734 48.1878 177.98 49.2344 177.102 50.172C177.672 50.844 178.83 50.64 178.83 50.64L179.346 47.058Z" fill="#FF5652"/>
<path d="M178.608 42.0541C178.569 41.9892 178.556 41.912 178.572 41.8381C178.597 41.7637 178.649 41.7017 178.718 41.6648C178.788 41.628 178.868 41.6191 178.944 41.6401C179.415 41.7451 179.855 41.9581 180.23 42.2621C180.605 42.5661 180.904 42.9529 181.104 43.3921C181.119 43.4277 181.126 43.4662 181.124 43.5048C181.123 43.5434 181.113 43.5812 181.095 43.6155C181.077 43.6499 181.052 43.6799 181.022 43.7035C180.991 43.7271 180.956 43.7437 180.918 43.7521C180.841 43.7745 180.759 43.7679 180.687 43.7336C180.616 43.6992 180.559 43.6396 180.528 43.5661C180.364 43.2212 180.122 42.9187 179.823 42.6815C179.523 42.4444 179.173 42.279 178.8 42.1981C178.72 42.1753 178.652 42.1241 178.608 42.0541Z" fill="#263238"/>
<path d="M196.152 45.4621C195.018 51.4621 194.67 54.0241 191.244 56.9041C186.09 61.2421 179.004 58.9501 178.332 52.8241C177.732 47.3161 179.67 38.4241 185.856 36.4381C187.171 35.9562 188.591 35.8374 189.968 36.0939C191.345 36.3504 192.627 36.9729 193.681 37.8961C194.734 38.8192 195.519 40.0088 195.954 41.3401C196.389 42.6714 196.457 44.0952 196.152 45.4621Z" fill="#FF8B7B"/>
<path d="M182.7 47.4001C180.528 43.9981 178.176 39.7501 179.652 36.7981C181.128 33.8461 184.482 34.5481 184.482 34.5481C184.482 34.5481 190.98 30.9001 196.8 35.6521C204.516 41.9701 196.242 48.9241 194.196 54.9481C191.934 61.5781 180.27 53.5501 182.7 47.4001Z" fill="#263238"/>
<path d="M215.952 36.372C212.814 24.702 199.05 30.066 195.048 36.972L196.68 37.398C213.102 26.802 205.014 42.12 205.152 48.366C205.29 54.612 211.482 58.458 211.482 58.458C211.482 58.458 219.084 48.036 215.952 36.372Z" fill="#263238"/>
<path d="M211.8 57.0001C210.048 57.0001 207.6 56.6701 206.004 55.0561C204.564 53.5981 204.114 51.3721 204.678 48.4561C204.858 47.5321 205.146 46.4461 205.446 45.3001C206.394 41.7001 207.576 37.2721 205.716 35.7001C204.408 34.5901 201.654 34.9801 197.526 36.8461C197.508 36.855 197.489 36.8603 197.469 36.8615C197.45 36.8627 197.43 36.8599 197.411 36.8531C197.393 36.8464 197.376 36.8359 197.361 36.8223C197.347 36.8087 197.336 36.7923 197.328 36.7741C197.32 36.7559 197.316 36.7364 197.315 36.7167C197.315 36.6969 197.319 36.6772 197.326 36.6588C197.333 36.6404 197.344 36.6236 197.358 36.6094C197.371 36.5952 197.388 36.5839 197.406 36.5761C201.702 34.6261 204.486 34.2661 205.908 35.4721C207.912 37.1641 206.76 41.5261 205.74 45.3781C205.434 46.5181 205.14 47.5981 204.972 48.5161C204.432 51.3481 204.852 53.4841 206.22 54.8701C208.77 57.4501 213.834 56.5741 213.888 56.5621C213.908 56.5589 213.928 56.5597 213.947 56.5643C213.967 56.5689 213.985 56.5773 214.001 56.589C214.017 56.6007 214.031 56.6155 214.041 56.6325C214.052 56.6495 214.059 56.6684 214.062 56.6881C214.065 56.7078 214.064 56.7279 214.06 56.7473C214.055 56.7667 214.047 56.785 214.035 56.8012C214.023 56.8173 214.009 56.831 213.992 56.8415C213.975 56.8519 213.956 56.8589 213.936 56.8621C213.229 56.9634 212.515 57.0096 211.8 57.0001Z" fill="#263238"/>
<path d="M197.034 34.404C197.184 33.642 195.264 33.96 195.174 34.638C195.084 35.316 194.832 34.938 194.082 35.928C193.332 36.918 193.23 38.082 195.69 38.85C197.25 39.336 197.49 38.136 198.288 37.536C198.726 37.212 199.218 37.044 199.536 36.798C199.614 36.7371 199.673 36.6543 199.703 36.56C199.734 36.4658 199.736 36.3645 199.709 36.2692C199.682 36.1738 199.627 36.0886 199.551 36.0247C199.476 35.9607 199.383 35.9208 199.284 35.91C198.276 35.826 196.878 35.154 197.034 34.404Z" fill="#450E8B"/>
<path d="M183.804 49.5361C183.534 50.0553 183.159 50.5125 182.702 50.8782C182.246 51.244 181.718 51.5103 181.152 51.6601C179.742 51.9721 179.208 50.3461 179.742 48.7621C180.222 47.3461 181.542 45.4681 182.886 45.8761C184.23 46.2841 184.566 48.1621 183.804 49.5361Z" fill="#FF8B7B"/>
<path d="M209.478 231.702C214.14 231.006 214.23 230.232 216.732 229.356C218.874 228.6 219.474 228.708 221.202 228.126C222.648 227.64 222.156 226.266 221.202 224.802C220.728 224.07 220.656 223.374 220.134 222.072L213.048 223.122C212.364 225.102 212.118 227.634 208.074 229.08C205.668 229.944 207.6 231.978 209.478 231.702Z" fill="#263238"/>
<path d="M166.266 231.72C170.904 231.72 171.792 231.414 174.402 231.324C176.634 231.246 177 231.72 179.262 231.72C180.762 231.72 180.972 230.028 180.42 228.762C179.994 227.778 179.928 226.596 179.616 225.318H173.226C172.074 227.34 168.93 228.84 165.426 229.092C162.906 229.278 164.4 231.72 166.266 231.72Z" fill="#263238"/>
<path d="M171.684 105.378C171.684 105.378 170.76 138.726 172.74 159.906C172.614 179.784 173.226 225.306 173.226 225.306C173.382 226.32 178.71 225.906 179.616 225.306C179.616 225.306 189.606 192.144 185.172 159.906C196.266 126.27 193.872 105.378 193.872 105.378H171.684Z" fill="#263238"/>
<path d="M178.338 105.378C178.338 105.378 189.174 143.016 193.566 161.502C198.186 180.912 211.914 210.258 213.054 223.122C214.254 223.596 218.088 223.068 220.14 222.072C220.14 222.072 218.262 181.05 207.102 162.36C209.622 116.376 197.142 105.36 197.142 105.36L178.338 105.378Z" fill="#263238"/>
<path d="M212.13 220.548C212.239 221.43 212.285 222.318 212.268 223.206C212.262 223.283 212.272 223.36 212.298 223.433C212.323 223.505 212.363 223.572 212.416 223.628C212.468 223.684 212.532 223.729 212.602 223.76C212.673 223.791 212.749 223.806 212.826 223.806C215.478 223.806 219.144 222.678 220.302 222.282C220.41 222.247 220.504 222.179 220.57 222.087C220.637 221.996 220.673 221.885 220.674 221.772V219.258C220.673 219.178 220.655 219.098 220.621 219.025C220.587 218.952 220.537 218.888 220.476 218.836C220.414 218.784 220.342 218.746 220.264 218.725C220.187 218.703 220.105 218.699 220.026 218.712L212.562 219.966C212.431 219.992 212.314 220.066 212.234 220.174C212.154 220.281 212.117 220.415 212.13 220.548Z" fill="#450E8B"/>
<path d="M172.494 222.516C172.494 223.206 172.434 224.436 172.368 225.342C172.366 225.487 172.417 225.627 172.511 225.737C172.605 225.848 172.735 225.92 172.878 225.942C175.225 226.135 177.586 226.109 179.928 225.864C180.04 225.854 180.146 225.808 180.23 225.732C180.313 225.656 180.369 225.555 180.39 225.444L180.87 222.966C180.881 222.885 180.875 222.803 180.853 222.725C180.831 222.646 180.794 222.573 180.743 222.51C180.692 222.446 180.628 222.394 180.556 222.356C180.484 222.318 180.405 222.295 180.324 222.288L173.04 222C172.97 221.996 172.899 222.006 172.833 222.03C172.767 222.054 172.707 222.092 172.656 222.14C172.604 222.188 172.564 222.247 172.536 222.311C172.508 222.376 172.494 222.446 172.494 222.516Z" fill="#450E8B"/>
<path d="M170.244 75.408C170.102 79.2904 170.158 83.1774 170.412 87.054C170.61 92.112 170.958 97.086 171.684 105.378H197.142C196.632 98.208 197.466 90.036 202.038 73.902C202.308 73.0582 202.386 72.1646 202.266 71.2868C202.146 70.409 201.831 69.5691 201.344 68.8287C200.858 68.0883 200.211 67.4662 199.453 67.0079C198.695 66.5496 197.844 66.2668 196.962 66.18C195.954 66.078 194.88 65.994 193.782 65.94C189.935 65.6668 186.073 65.6668 182.226 65.94C180.966 66.054 179.664 66.216 178.422 66.39C176.226 66.7161 174.212 67.7928 172.721 69.437C171.23 71.0812 170.354 73.1912 170.244 75.408Z" fill="#263238"/>
<path d="M197.016 102.228C191.922 103.53 184.17 103.902 171.444 102.546C171.75 109.296 168.78 154.686 168.78 154.686C168.78 154.686 194.58 160.356 209.166 152.658C210.108 118.356 197.016 102.228 197.016 102.228Z" fill="#450E8B"/>
<path opacity="0.2" d="M187.278 129.6C187.278 129.6 194.28 123.078 197.736 118.626C197.46 123.294 193.29 127.482 187.278 129.6Z" fill="black"/>
<path d="M148.65 75.3721L150.342 76.2301C150.659 76.3878 150.934 76.6194 151.143 76.9056C151.352 77.1917 151.489 77.5239 151.542 77.8741L152.04 81.1741C152.143 81.8264 152.088 82.4941 151.88 83.1206C151.671 83.7472 151.314 84.3143 150.84 84.7741L150.24 85.3741C147.336 84.1381 145.104 80.6641 145.104 80.6641L144.36 79.7461C144.2 79.5618 144.079 79.3476 144.003 79.116C143.927 78.8844 143.898 78.64 143.918 78.3971C143.937 78.1541 144.005 77.9175 144.117 77.701C144.229 77.4845 144.383 77.2925 144.57 77.1361L146.37 75.6361C146.684 75.377 147.066 75.2142 147.471 75.1673C147.876 75.1205 148.285 75.1916 148.65 75.3721Z" fill="#FF8B7B"/>
<path d="M179.04 75.972C178.854 76.488 178.716 76.848 178.554 77.262C178.392 77.676 178.218 78.048 178.05 78.462C177.714 79.242 177.342 79.9921 176.964 80.7421C176.199 82.2427 175.354 83.7008 174.432 85.1101C173.976 85.8181 173.49 86.514 172.998 87.204C172.506 87.894 171.978 88.566 171.42 89.22C170.324 90.5603 169.138 91.8233 167.868 93L167.7 93.162C167.548 93.3068 167.381 93.4355 167.202 93.546C166.467 94.0026 165.653 94.3161 164.802 94.47C164.094 94.6002 163.37 94.6285 162.654 94.554C161.564 94.4235 160.5 94.1281 159.498 93.678C157.94 92.9598 156.482 92.0422 155.16 90.948C153.958 89.9658 152.823 88.9034 151.764 87.768C150.717 86.6586 149.741 85.4842 148.842 84.252C148.531 83.8253 148.379 83.3027 148.413 82.7755C148.448 82.2484 148.666 81.75 149.03 81.3672C149.394 80.9845 149.881 80.7417 150.406 80.6812C150.931 80.6207 151.46 80.7462 151.902 81.036L152.004 81.102C153.12 81.828 154.302 82.62 155.454 83.328C156.606 84.036 157.77 84.726 158.91 85.308C159.931 85.8589 161.009 86.2956 162.126 86.6101C162.45 86.7113 162.791 86.744 163.128 86.706C163.206 86.706 163.2 86.646 163.128 86.646C162.986 86.6505 162.846 86.6875 162.72 86.754L162.06 87.306C162.936 86.25 163.788 85.17 164.574 84.012C165.36 82.854 166.122 81.666 166.824 80.412C167.526 79.158 168.21 77.922 168.84 76.638C169.158 76.002 169.44 75.354 169.758 74.712L170.184 73.752L170.568 72.882L170.67 72.654C171.142 71.5927 172.007 70.7551 173.083 70.3166C174.158 69.878 175.362 69.8725 176.442 70.3011C177.521 70.7298 178.394 71.5594 178.876 72.6163C179.358 73.6733 179.412 74.8757 179.028 75.972H179.04Z" fill="#FF8B7B"/>
<path d="M179.124 66.294C174.966 66.834 170.922 69.414 167.34 77.658C168.804 80.802 175.932 83.94 175.932 83.94C175.932 83.94 184.152 73.8 179.124 66.294Z" fill="#263238"/>
<path d="M108.124 333.24C106.764 333.24 105.596 333.008 104.62 332.544C103.66 332.08 102.788 331.384 102.004 330.456L104.164 328.296C104.66 328.952 105.236 329.464 105.892 329.832C106.548 330.184 107.348 330.36 108.292 330.36C109.14 330.36 109.812 330.192 110.308 329.856C110.82 329.52 111.076 329.056 111.076 328.464C111.076 327.952 110.932 327.536 110.644 327.216C110.356 326.896 109.972 326.624 109.492 326.4C109.028 326.176 108.508 325.976 107.932 325.8C107.372 325.608 106.804 325.392 106.228 325.152C105.668 324.912 105.148 324.616 104.668 324.264C104.204 323.896 103.828 323.432 103.54 322.872C103.252 322.296 103.108 321.576 103.108 320.712C103.108 319.688 103.356 318.816 103.852 318.096C104.348 317.376 105.028 316.824 105.892 316.44C106.756 316.056 107.732 315.864 108.82 315.864C109.972 315.864 111.012 316.08 111.94 316.512C112.868 316.944 113.628 317.504 114.22 318.192L112.06 320.352C111.564 319.808 111.052 319.408 110.524 319.152C110.012 318.896 109.428 318.768 108.772 318.768C108.02 318.768 107.428 318.912 106.996 319.2C106.564 319.488 106.348 319.904 106.348 320.448C106.348 320.912 106.492 321.288 106.78 321.576C107.068 321.864 107.444 322.112 107.908 322.32C108.388 322.528 108.908 322.728 109.468 322.92C110.044 323.112 110.612 323.328 111.172 323.568C111.748 323.808 112.268 324.12 112.732 324.504C113.212 324.888 113.596 325.384 113.884 325.992C114.172 326.584 114.316 327.32 114.316 328.2C114.316 329.768 113.764 331 112.66 331.896C111.556 332.792 110.044 333.24 108.124 333.24ZM122.006 333.24C120.79 333.24 119.71 332.984 118.766 332.472C117.822 331.944 117.07 331.224 116.51 330.312C115.966 329.4 115.694 328.36 115.694 327.192C115.694 326.04 115.958 325.016 116.486 324.12C117.03 323.208 117.766 322.488 118.694 321.96C119.622 321.416 120.654 321.144 121.79 321.144C122.91 321.144 123.894 321.4 124.742 321.912C125.606 322.408 126.278 323.096 126.758 323.976C127.254 324.84 127.502 325.824 127.502 326.928C127.502 327.136 127.486 327.352 127.454 327.576C127.438 327.784 127.398 328.024 127.334 328.296L117.59 328.32V325.968L125.87 325.944L124.598 326.928C124.566 326.24 124.438 325.664 124.214 325.2C124.006 324.736 123.694 324.384 123.278 324.144C122.878 323.888 122.382 323.76 121.79 323.76C121.166 323.76 120.622 323.904 120.158 324.192C119.694 324.464 119.334 324.856 119.078 325.368C118.838 325.864 118.718 326.456 118.718 327.144C118.718 327.848 118.846 328.464 119.102 328.992C119.374 329.504 119.758 329.904 120.254 330.192C120.75 330.464 121.326 330.6 121.982 330.6C122.574 330.6 123.11 330.504 123.59 330.312C124.07 330.104 124.486 329.8 124.838 329.4L126.686 331.248C126.126 331.904 125.438 332.4 124.622 332.736C123.822 333.072 122.95 333.24 122.006 333.24ZM129.447 333V315.648H132.591V333H129.447ZM135.376 333V315.648H138.52V333H135.376ZM146.33 333V316.128H149.594V333H146.33ZM156.914 333V316.128H160.178V333H156.914ZM148.394 325.728V322.848H157.826V325.728H148.394ZM168.834 333.24C167.618 333.24 166.538 332.984 165.594 332.472C164.65 331.944 163.898 331.224 163.338 330.312C162.794 329.4 162.522 328.36 162.522 327.192C162.522 326.04 162.786 325.016 163.314 324.12C163.858 323.208 164.594 322.488 165.522 321.96C166.45 321.416 167.482 321.144 168.618 321.144C169.738 321.144 170.722 321.4 171.57 321.912C172.434 322.408 173.106 323.096 173.586 323.976C174.082 324.84 174.33 325.824 174.33 326.928C174.33 327.136 174.314 327.352 174.282 327.576C174.266 327.784 174.226 328.024 174.162 328.296L164.418 328.32V325.968L172.698 325.944L171.426 326.928C171.394 326.24 171.266 325.664 171.042 325.2C170.834 324.736 170.522 324.384 170.106 324.144C169.706 323.888 169.21 323.76 168.618 323.76C167.994 323.76 167.45 323.904 166.986 324.192C166.522 324.464 166.162 324.856 165.906 325.368C165.666 325.864 165.546 326.456 165.546 327.144C165.546 327.848 165.674 328.464 165.93 328.992C166.202 329.504 166.586 329.904 167.082 330.192C167.578 330.464 168.154 330.6 168.81 330.6C169.402 330.6 169.938 330.504 170.418 330.312C170.898 330.104 171.314 329.8 171.666 329.4L173.514 331.248C172.954 331.904 172.266 332.4 171.45 332.736C170.65 333.072 169.778 333.24 168.834 333.24ZM176.275 333V321.408H179.419V333H176.275ZM179.419 326.592L178.195 325.776C178.339 324.352 178.755 323.232 179.443 322.416C180.131 321.584 181.123 321.168 182.419 321.168C182.979 321.168 183.483 321.264 183.931 321.456C184.379 321.632 184.787 321.928 185.155 322.344L183.187 324.6C183.011 324.408 182.795 324.264 182.539 324.168C182.299 324.072 182.019 324.024 181.699 324.024C181.027 324.024 180.475 324.24 180.043 324.672C179.627 325.088 179.419 325.728 179.419 326.592ZM191.475 333.24C190.259 333.24 189.179 332.984 188.235 332.472C187.291 331.944 186.539 331.224 185.979 330.312C185.435 329.4 185.163 328.36 185.163 327.192C185.163 326.04 185.427 325.016 185.955 324.12C186.499 323.208 187.235 322.488 188.163 321.96C189.091 321.416 190.123 321.144 191.259 321.144C192.379 321.144 193.363 321.4 194.211 321.912C195.075 322.408 195.747 323.096 196.227 323.976C196.723 324.84 196.971 325.824 196.971 326.928C196.971 327.136 196.955 327.352 196.923 327.576C196.907 327.784 196.867 328.024 196.803 328.296L187.059 328.32V325.968L195.339 325.944L194.067 326.928C194.035 326.24 193.907 325.664 193.683 325.2C193.475 324.736 193.163 324.384 192.747 324.144C192.347 323.888 191.851 323.76 191.259 323.76C190.635 323.76 190.091 323.904 189.627 324.192C189.163 324.464 188.803 324.856 188.547 325.368C188.307 325.864 188.187 326.456 188.187 327.144C188.187 327.848 188.315 328.464 188.571 328.992C188.843 329.504 189.227 329.904 189.723 330.192C190.219 330.464 190.795 330.6 191.451 330.6C192.043 330.6 192.579 330.504 193.059 330.312C193.539 330.104 193.955 329.8 194.307 329.4L196.155 331.248C195.595 331.904 194.907 332.4 194.091 332.736C193.291 333.072 192.419 333.24 191.475 333.24Z" fill="#242222"/>
<path d="M11.0953 380V370.368H12.1173V380H11.0953ZM17.4093 380V370.368H18.4313V380H17.4093ZM11.7673 375.492V374.554H17.6893V375.492H11.7673ZM23.516 380.14C22.8907 380.14 22.3307 379.991 21.836 379.692C21.3413 379.384 20.9493 378.973 20.66 378.46C20.38 377.947 20.24 377.368 20.24 376.724C20.24 376.071 20.38 375.487 20.66 374.974C20.9493 374.451 21.3413 374.041 21.836 373.742C22.3307 373.434 22.886 373.28 23.502 373.28C24.006 373.28 24.454 373.383 24.846 373.588C25.2473 373.784 25.5693 374.064 25.812 374.428C26.064 374.783 26.218 375.198 26.274 375.674V377.732C26.218 378.208 26.064 378.628 25.812 378.992C25.5693 379.356 25.2473 379.641 24.846 379.846C24.454 380.042 24.0107 380.14 23.516 380.14ZM23.67 379.202C24.3513 379.202 24.8973 378.973 25.308 378.516C25.728 378.059 25.938 377.457 25.938 376.71C25.938 376.215 25.84 375.781 25.644 375.408C25.4573 375.025 25.1913 374.731 24.846 374.526C24.51 374.311 24.1133 374.204 23.656 374.204C23.1893 374.204 22.774 374.311 22.41 374.526C22.0553 374.741 21.7707 375.039 21.556 375.422C21.3507 375.795 21.248 376.225 21.248 376.71C21.248 377.195 21.3507 377.625 21.556 377.998C21.7707 378.371 22.06 378.665 22.424 378.88C22.788 379.095 23.2033 379.202 23.67 379.202ZM25.882 380V378.236L26.078 376.612L25.882 375.03V373.42H26.862V380H25.882ZM31.1455 380L28.1075 373.42H29.1995L31.7615 379.174H31.1455L33.7215 373.42H34.7855L31.7195 380H31.1455ZM38.7644 380.14C38.1018 380.14 37.5091 379.991 36.9864 379.692C36.4638 379.393 36.0484 378.983 35.7404 378.46C35.4418 377.937 35.2924 377.349 35.2924 376.696C35.2924 376.052 35.4418 375.473 35.7404 374.96C36.0391 374.437 36.4451 374.027 36.9584 373.728C37.4718 373.429 38.0458 373.28 38.6804 373.28C39.2778 373.28 39.8051 373.415 40.2624 373.686C40.7291 373.957 41.0931 374.335 41.3544 374.82C41.6251 375.296 41.7604 375.847 41.7604 376.472C41.7604 376.547 41.7558 376.635 41.7464 376.738C41.7371 376.831 41.7184 376.943 41.6904 377.074H35.9924V376.234H41.1584L40.8084 376.542C40.8178 376.057 40.7338 375.641 40.5564 375.296C40.3884 374.941 40.1411 374.671 39.8144 374.484C39.4971 374.288 39.1098 374.19 38.6524 374.19C38.1764 374.19 37.7611 374.293 37.4064 374.498C37.0518 374.703 36.7718 374.993 36.5664 375.366C36.3704 375.73 36.2724 376.164 36.2724 376.668C36.2724 377.172 36.3751 377.615 36.5804 377.998C36.7951 378.381 37.0891 378.679 37.4624 378.894C37.8451 379.109 38.2838 379.216 38.7784 379.216C39.1798 379.216 39.5484 379.146 39.8844 379.006C40.2204 378.857 40.5051 378.637 40.7384 378.348L41.3684 378.992C41.0604 379.356 40.6778 379.641 40.2204 379.846C39.7724 380.042 39.2871 380.14 38.7644 380.14ZM49.1234 380.14C48.4981 380.14 47.9381 379.991 47.4434 379.692C46.9488 379.384 46.5568 378.973 46.2674 378.46C45.9874 377.947 45.8474 377.368 45.8474 376.724C45.8474 376.071 45.9874 375.487 46.2674 374.974C46.5568 374.451 46.9488 374.041 47.4434 373.742C47.9381 373.434 48.4934 373.28 49.1094 373.28C49.6134 373.28 50.0614 373.383 50.4534 373.588C50.8548 373.784 51.1768 374.064 51.4194 374.428C51.6714 374.783 51.8254 375.198 51.8814 375.674V377.732C51.8254 378.208 51.6714 378.628 51.4194 378.992C51.1768 379.356 50.8548 379.641 50.4534 379.846C50.0614 380.042 49.6181 380.14 49.1234 380.14ZM49.2774 379.202C49.9588 379.202 50.5048 378.973 50.9154 378.516C51.3354 378.059 51.5454 377.457 51.5454 376.71C51.5454 376.215 51.4474 375.781 51.2514 375.408C51.0648 375.025 50.7988 374.731 50.4534 374.526C50.1174 374.311 49.7208 374.204 49.2634 374.204C48.7968 374.204 48.3814 374.311 48.0174 374.526C47.6628 374.741 47.3781 375.039 47.1634 375.422C46.9581 375.795 46.8554 376.225 46.8554 376.71C46.8554 377.195 46.9581 377.625 47.1634 377.998C47.3781 378.371 47.6674 378.665 48.0314 378.88C48.3954 379.095 48.8108 379.202 49.2774 379.202ZM51.4894 380V378.236L51.6854 376.612L51.4894 375.03V373.42H52.4694V380H51.4894ZM60.8667 380.14C60.3627 380.14 59.91 380.037 59.5087 379.832C59.1074 379.627 58.776 379.347 58.5147 378.992C58.2627 378.628 58.1087 378.208 58.0527 377.732V375.674C58.1087 375.189 58.2674 374.769 58.5287 374.414C58.79 374.05 59.1214 373.77 59.5227 373.574C59.9334 373.378 60.3814 373.28 60.8667 373.28C61.4734 373.28 62.0194 373.434 62.5047 373.742C62.99 374.041 63.3727 374.451 63.6527 374.974C63.942 375.487 64.0867 376.071 64.0867 376.724C64.0867 377.368 63.9467 377.947 63.6667 378.46C63.3867 378.973 62.9994 379.384 62.5047 379.692C62.0194 379.991 61.4734 380.14 60.8667 380.14ZM60.6987 379.202C61.1654 379.202 61.576 379.099 61.9307 378.894C62.2854 378.679 62.5607 378.385 62.7567 378.012C62.962 377.629 63.0647 377.195 63.0647 376.71C63.0647 376.215 62.962 375.781 62.7567 375.408C62.5607 375.035 62.2854 374.741 61.9307 374.526C61.576 374.311 61.17 374.204 60.7127 374.204C60.2554 374.204 59.8494 374.311 59.4947 374.526C59.1494 374.741 58.8787 375.035 58.6827 375.408C58.4867 375.781 58.3887 376.215 58.3887 376.71C58.3887 377.195 58.4867 377.629 58.6827 378.012C58.8787 378.385 59.1494 378.679 59.4947 378.894C59.84 379.099 60.2414 379.202 60.6987 379.202ZM57.4647 382.772V373.42H58.4447V375.1L58.2487 376.696L58.4447 378.306V382.772H57.4647ZM65.6542 380V373.42H66.6342V380H65.6542ZM66.6342 376.164L66.2282 375.982C66.2282 375.151 66.4288 374.493 66.8302 374.008C67.2408 373.523 67.8008 373.28 68.5102 373.28C68.8368 373.28 69.1355 373.341 69.4062 373.462C69.6768 373.574 69.9288 373.756 70.1622 374.008L69.5182 374.694C69.3595 374.517 69.1822 374.391 68.9862 374.316C68.7995 374.241 68.5848 374.204 68.3422 374.204C67.8382 374.204 67.4275 374.372 67.1102 374.708C66.7928 375.035 66.6342 375.52 66.6342 376.164ZM73.9545 380.14C73.3198 380.14 72.7412 379.986 72.2185 379.678C71.7052 379.37 71.2945 378.955 70.9865 378.432C70.6878 377.909 70.5385 377.326 70.5385 376.682C70.5385 376.047 70.6878 375.473 70.9865 374.96C71.2945 374.447 71.7052 374.041 72.2185 373.742C72.7412 373.434 73.3198 373.28 73.9545 373.28C74.5985 373.28 75.1772 373.429 75.6905 373.728C76.2038 374.027 76.6098 374.437 76.9085 374.96C77.2165 375.473 77.3705 376.047 77.3705 376.682C77.3705 377.335 77.2165 377.923 76.9085 378.446C76.6098 378.959 76.2038 379.37 75.6905 379.678C75.1772 379.986 74.5985 380.14 73.9545 380.14ZM73.9545 379.188C74.4212 379.188 74.8318 379.081 75.1865 378.866C75.5505 378.651 75.8352 378.353 76.0405 377.97C76.2552 377.587 76.3625 377.158 76.3625 376.682C76.3625 376.206 76.2552 375.786 76.0405 375.422C75.8352 375.049 75.5505 374.755 75.1865 374.54C74.8318 374.325 74.4212 374.218 73.9545 374.218C73.4972 374.218 73.0865 374.325 72.7225 374.54C72.3585 374.755 72.0738 375.049 71.8685 375.422C71.6632 375.786 71.5605 376.206 71.5605 376.682C71.5605 377.167 71.6632 377.601 71.8685 377.984C72.0738 378.357 72.3585 378.651 72.7225 378.866C73.0865 379.081 73.4972 379.188 73.9545 379.188ZM81.7295 380.14C81.1229 380.14 80.5769 379.991 80.0915 379.692C79.6062 379.393 79.2189 378.987 78.9295 378.474C78.6495 377.951 78.5095 377.368 78.5095 376.724C78.5095 376.071 78.6495 375.487 78.9295 374.974C79.2189 374.451 79.6062 374.041 80.0915 373.742C80.5769 373.434 81.1229 373.28 81.7295 373.28C82.2242 373.28 82.6722 373.378 83.0735 373.574C83.4749 373.77 83.8062 374.05 84.0675 374.414C84.3382 374.769 84.4969 375.189 84.5435 375.674V377.732C84.4875 378.208 84.3289 378.628 84.0675 378.992C83.8155 379.347 83.4889 379.627 83.0875 379.832C82.6862 380.037 82.2335 380.14 81.7295 380.14ZM81.8975 379.202C82.3549 379.202 82.7562 379.099 83.1015 378.894C83.4469 378.679 83.7175 378.385 83.9135 378.012C84.1095 377.629 84.2075 377.195 84.2075 376.71C84.2075 376.215 84.1049 375.781 83.8995 375.408C83.7035 375.035 83.4329 374.741 83.0875 374.526C82.7422 374.311 82.3409 374.204 81.8835 374.204C81.4262 374.204 81.0202 374.311 80.6655 374.526C80.3109 374.741 80.0309 375.039 79.8255 375.422C79.6295 375.795 79.5315 376.225 79.5315 376.71C79.5315 377.195 79.6295 377.629 79.8255 378.012C80.0309 378.385 80.3109 378.679 80.6655 378.894C81.0295 379.099 81.4402 379.202 81.8975 379.202ZM85.1315 380H84.1515V378.236L84.3475 376.612L84.1515 375.03V370.088H85.1315V380ZM89.723 380.14C89.191 380.14 88.715 380.019 88.295 379.776C87.875 379.524 87.5437 379.183 87.301 378.754C87.0677 378.325 86.951 377.821 86.951 377.242V373.42H87.945V377.2C87.945 377.601 88.015 377.951 88.155 378.25C88.3043 378.549 88.5143 378.782 88.785 378.95C89.0557 379.118 89.3683 379.202 89.723 379.202C90.2737 379.202 90.7077 379.02 91.025 378.656C91.3517 378.292 91.515 377.807 91.515 377.2V373.42H92.495V377.242C92.495 377.811 92.3783 378.315 92.145 378.754C91.9117 379.193 91.585 379.533 91.165 379.776C90.745 380.019 90.2643 380.14 89.723 380.14ZM97.3201 380.14C96.6761 380.14 96.0927 379.991 95.5701 379.692C95.0567 379.384 94.6461 378.969 94.3381 378.446C94.0394 377.923 93.8901 377.34 93.8901 376.696C93.8901 376.052 94.0394 375.473 94.3381 374.96C94.6461 374.437 95.0567 374.027 95.5701 373.728C96.0927 373.429 96.6761 373.28 97.3201 373.28C97.8147 373.28 98.2767 373.373 98.7061 373.56C99.1354 373.747 99.4994 374.008 99.7981 374.344L99.1541 375.002C98.9301 374.75 98.6594 374.559 98.3421 374.428C98.0247 374.288 97.6841 374.218 97.3201 374.218C96.8534 374.218 96.4381 374.325 96.0741 374.54C95.7101 374.755 95.4254 375.049 95.2201 375.422C95.0147 375.786 94.9121 376.211 94.9121 376.696C94.9121 377.172 95.0147 377.601 95.2201 377.984C95.4254 378.357 95.7101 378.651 96.0741 378.866C96.4381 379.081 96.8534 379.188 97.3201 379.188C97.6934 379.188 98.0387 379.123 98.3561 378.992C98.6734 378.852 98.9441 378.656 99.1681 378.404L99.8261 379.062C99.5181 379.407 99.1447 379.673 98.7061 379.86C98.2767 380.047 97.8147 380.14 97.3201 380.14ZM102.168 380V370.648H103.148V380H102.168ZM100.502 374.302V373.42H104.8V374.302H100.502ZM112.14 380.14C111.505 380.14 110.927 379.986 110.404 379.678C109.891 379.37 109.48 378.955 109.172 378.432C108.873 377.909 108.724 377.326 108.724 376.682C108.724 376.047 108.873 375.473 109.172 374.96C109.48 374.447 109.891 374.041 110.404 373.742C110.927 373.434 111.505 373.28 112.14 373.28C112.784 373.28 113.363 373.429 113.876 373.728C114.389 374.027 114.795 374.437 115.094 374.96C115.402 375.473 115.556 376.047 115.556 376.682C115.556 377.335 115.402 377.923 115.094 378.446C114.795 378.959 114.389 379.37 113.876 379.678C113.363 379.986 112.784 380.14 112.14 380.14ZM112.14 379.188C112.607 379.188 113.017 379.081 113.372 378.866C113.736 378.651 114.021 378.353 114.226 377.97C114.441 377.587 114.548 377.158 114.548 376.682C114.548 376.206 114.441 375.786 114.226 375.422C114.021 375.049 113.736 374.755 113.372 374.54C113.017 374.325 112.607 374.218 112.14 374.218C111.683 374.218 111.272 374.325 110.908 374.54C110.544 374.755 110.259 375.049 110.054 375.422C109.849 375.786 109.746 376.206 109.746 376.682C109.746 377.167 109.849 377.601 110.054 377.984C110.259 378.357 110.544 378.651 110.908 378.866C111.272 379.081 111.683 379.188 112.14 379.188ZM117.115 380V373.42H118.095V380H117.115ZM118.095 376.164L117.689 375.982C117.689 375.151 117.89 374.493 118.291 374.008C118.702 373.523 119.262 373.28 119.971 373.28C120.298 373.28 120.596 373.341 120.867 373.462C121.138 373.574 121.39 373.756 121.623 374.008L120.979 374.694C120.82 374.517 120.643 374.391 120.447 374.316C120.26 374.241 120.046 374.204 119.803 374.204C119.299 374.204 118.888 374.372 118.571 374.708C118.254 375.035 118.095 375.52 118.095 376.164ZM127.936 380.14C127.581 380.14 127.24 380.093 126.914 380C126.587 379.897 126.288 379.757 126.018 379.58C125.756 379.403 125.528 379.193 125.332 378.95L125.962 378.306C126.223 378.623 126.517 378.861 126.844 379.02C127.18 379.169 127.553 379.244 127.964 379.244C128.402 379.244 128.743 379.16 128.986 378.992C129.238 378.824 129.364 378.591 129.364 378.292C129.364 378.012 129.275 377.793 129.098 377.634C128.92 377.475 128.692 377.349 128.412 377.256C128.141 377.163 127.852 377.074 127.544 376.99C127.236 376.897 126.942 376.785 126.662 376.654C126.382 376.514 126.153 376.323 125.976 376.08C125.808 375.837 125.724 375.52 125.724 375.128C125.724 374.755 125.812 374.433 125.99 374.162C126.176 373.882 126.438 373.667 126.774 373.518C127.119 373.359 127.525 373.28 127.992 373.28C128.486 373.28 128.934 373.369 129.336 373.546C129.737 373.723 130.059 373.985 130.302 374.33L129.672 374.96C129.476 374.708 129.228 374.517 128.93 374.386C128.64 374.246 128.314 374.176 127.95 374.176C127.53 374.176 127.208 374.26 126.984 374.428C126.769 374.587 126.662 374.797 126.662 375.058C126.662 375.31 126.75 375.511 126.928 375.66C127.105 375.8 127.329 375.917 127.6 376.01C127.88 376.094 128.174 376.183 128.482 376.276C128.79 376.36 129.084 376.477 129.364 376.626C129.644 376.766 129.868 376.962 130.036 377.214C130.213 377.457 130.302 377.788 130.302 378.208C130.302 378.796 130.087 379.267 129.658 379.622C129.238 379.967 128.664 380.14 127.936 380.14ZM134.891 380.14C134.229 380.14 133.636 379.991 133.113 379.692C132.591 379.393 132.175 378.983 131.867 378.46C131.569 377.937 131.419 377.349 131.419 376.696C131.419 376.052 131.569 375.473 131.867 374.96C132.166 374.437 132.572 374.027 133.085 373.728C133.599 373.429 134.173 373.28 134.807 373.28C135.405 373.28 135.932 373.415 136.389 373.686C136.856 373.957 137.22 374.335 137.481 374.82C137.752 375.296 137.887 375.847 137.887 376.472C137.887 376.547 137.883 376.635 137.873 376.738C137.864 376.831 137.845 376.943 137.817 377.074H132.119V376.234H137.285L136.935 376.542C136.945 376.057 136.861 375.641 136.683 375.296C136.515 374.941 136.268 374.671 135.941 374.484C135.624 374.288 135.237 374.19 134.779 374.19C134.303 374.19 133.888 374.293 133.533 374.498C133.179 374.703 132.899 374.993 132.693 375.366C132.497 375.73 132.399 376.164 132.399 376.668C132.399 377.172 132.502 377.615 132.707 377.998C132.922 378.381 133.216 378.679 133.589 378.894C133.972 379.109 134.411 379.216 134.905 379.216C135.307 379.216 135.675 379.146 136.011 379.006C136.347 378.857 136.632 378.637 136.865 378.348L137.495 378.992C137.187 379.356 136.805 379.641 136.347 379.846C135.899 380.042 135.414 380.14 134.891 380.14ZM139.387 380V373.42H140.367V380H139.387ZM140.367 376.164L139.961 375.982C139.961 375.151 140.161 374.493 140.563 374.008C140.973 373.523 141.533 373.28 142.243 373.28C142.569 373.28 142.868 373.341 143.139 373.462C143.409 373.574 143.661 373.756 143.895 374.008L143.251 374.694C143.092 374.517 142.915 374.391 142.719 374.316C142.532 374.241 142.317 374.204 142.075 374.204C141.571 374.204 141.16 374.372 140.843 374.708C140.525 375.035 140.367 375.52 140.367 376.164ZM147.083 380L144.045 373.42H145.137L147.699 379.174H147.083L149.659 373.42H150.723L147.657 380H147.083ZM151.951 380V373.42H152.945V380H151.951ZM152.441 371.992C152.254 371.992 152.096 371.927 151.965 371.796C151.834 371.656 151.769 371.493 151.769 371.306C151.769 371.11 151.834 370.947 151.965 370.816C152.096 370.685 152.254 370.62 152.441 370.62C152.646 370.62 152.81 370.685 152.931 370.816C153.062 370.947 153.127 371.11 153.127 371.306C153.127 371.493 153.062 371.656 152.931 371.796C152.81 371.927 152.646 371.992 152.441 371.992ZM157.928 380.14C157.284 380.14 156.7 379.991 156.178 379.692C155.664 379.384 155.254 378.969 154.946 378.446C154.647 377.923 154.498 377.34 154.498 376.696C154.498 376.052 154.647 375.473 154.946 374.96C155.254 374.437 155.664 374.027 156.178 373.728C156.7 373.429 157.284 373.28 157.928 373.28C158.422 373.28 158.884 373.373 159.314 373.56C159.743 373.747 160.107 374.008 160.406 374.344L159.762 375.002C159.538 374.75 159.267 374.559 158.95 374.428C158.632 374.288 158.292 374.218 157.928 374.218C157.461 374.218 157.046 374.325 156.682 374.54C156.318 374.755 156.033 375.049 155.828 375.422C155.622 375.786 155.52 376.211 155.52 376.696C155.52 377.172 155.622 377.601 155.828 377.984C156.033 378.357 156.318 378.651 156.682 378.866C157.046 379.081 157.461 379.188 157.928 379.188C158.301 379.188 158.646 379.123 158.964 378.992C159.281 378.852 159.552 378.656 159.776 378.404L160.434 379.062C160.126 379.407 159.752 379.673 159.314 379.86C158.884 380.047 158.422 380.14 157.928 380.14ZM164.723 380.14C164.061 380.14 163.468 379.991 162.945 379.692C162.423 379.393 162.007 378.983 161.699 378.46C161.401 377.937 161.251 377.349 161.251 376.696C161.251 376.052 161.401 375.473 161.699 374.96C161.998 374.437 162.404 374.027 162.917 373.728C163.431 373.429 164.005 373.28 164.639 373.28C165.237 373.28 165.764 373.415 166.221 373.686C166.688 373.957 167.052 374.335 167.313 374.82C167.584 375.296 167.719 375.847 167.719 376.472C167.719 376.547 167.715 376.635 167.705 376.738C167.696 376.831 167.677 376.943 167.649 377.074H161.951V376.234H167.117L166.767 376.542C166.777 376.057 166.693 375.641 166.515 375.296C166.347 374.941 166.1 374.671 165.773 374.484C165.456 374.288 165.069 374.19 164.611 374.19C164.135 374.19 163.72 374.293 163.365 374.498C163.011 374.703 162.731 374.993 162.525 375.366C162.329 375.73 162.231 376.164 162.231 376.668C162.231 377.172 162.334 377.615 162.539 377.998C162.754 378.381 163.048 378.679 163.421 378.894C163.804 379.109 164.243 379.216 164.737 379.216C165.139 379.216 165.507 379.146 165.843 379.006C166.179 378.857 166.464 378.637 166.697 378.348L167.327 378.992C167.019 379.356 166.637 379.641 166.179 379.846C165.731 380.042 165.246 380.14 164.723 380.14ZM173.248 380V370.648H174.228V380H173.248ZM171.582 374.302V373.42H175.88V374.302H171.582ZM179.98 380.14C179.345 380.14 178.767 379.986 178.244 379.678C177.731 379.37 177.32 378.955 177.012 378.432C176.713 377.909 176.564 377.326 176.564 376.682C176.564 376.047 176.713 375.473 177.012 374.96C177.32 374.447 177.731 374.041 178.244 373.742C178.767 373.434 179.345 373.28 179.98 373.28C180.624 373.28 181.203 373.429 181.716 373.728C182.229 374.027 182.635 374.437 182.934 374.96C183.242 375.473 183.396 376.047 183.396 376.682C183.396 377.335 183.242 377.923 182.934 378.446C182.635 378.959 182.229 379.37 181.716 379.678C181.203 379.986 180.624 380.14 179.98 380.14ZM179.98 379.188C180.447 379.188 180.857 379.081 181.212 378.866C181.576 378.651 181.861 378.353 182.066 377.97C182.281 377.587 182.388 377.158 182.388 376.682C182.388 376.206 182.281 375.786 182.066 375.422C181.861 375.049 181.576 374.755 181.212 374.54C180.857 374.325 180.447 374.218 179.98 374.218C179.523 374.218 179.112 374.325 178.748 374.54C178.384 374.755 178.099 375.049 177.894 375.422C177.689 375.786 177.586 376.206 177.586 376.682C177.586 377.167 177.689 377.601 177.894 377.984C178.099 378.357 178.384 378.651 178.748 378.866C179.112 379.081 179.523 379.188 179.98 379.188ZM189.979 380.14C189.624 380.14 189.283 380.093 188.957 380C188.63 379.897 188.331 379.757 188.061 379.58C187.799 379.403 187.571 379.193 187.375 378.95L188.005 378.306C188.266 378.623 188.56 378.861 188.887 379.02C189.223 379.169 189.596 379.244 190.007 379.244C190.445 379.244 190.786 379.16 191.029 378.992C191.281 378.824 191.407 378.591 191.407 378.292C191.407 378.012 191.318 377.793 191.141 377.634C190.963 377.475 190.735 377.349 190.455 377.256C190.184 377.163 189.895 377.074 189.587 376.99C189.279 376.897 188.985 376.785 188.705 376.654C188.425 376.514 188.196 376.323 188.019 376.08C187.851 375.837 187.767 375.52 187.767 375.128C187.767 374.755 187.855 374.433 188.033 374.162C188.219 373.882 188.481 373.667 188.817 373.518C189.162 373.359 189.568 373.28 190.035 373.28C190.529 373.28 190.977 373.369 191.379 373.546C191.78 373.723 192.102 373.985 192.345 374.33L191.715 374.96C191.519 374.708 191.271 374.517 190.973 374.386C190.683 374.246 190.357 374.176 189.993 374.176C189.573 374.176 189.251 374.26 189.027 374.428C188.812 374.587 188.705 374.797 188.705 375.058C188.705 375.31 188.793 375.511 188.971 375.66C189.148 375.8 189.372 375.917 189.643 376.01C189.923 376.094 190.217 376.183 190.525 376.276C190.833 376.36 191.127 376.477 191.407 376.626C191.687 376.766 191.911 376.962 192.079 377.214C192.256 377.457 192.345 377.788 192.345 378.208C192.345 378.796 192.13 379.267 191.701 379.622C191.281 379.967 190.707 380.14 189.979 380.14ZM196.934 380.14C196.272 380.14 195.679 379.991 195.156 379.692C194.634 379.393 194.218 378.983 193.91 378.46C193.612 377.937 193.462 377.349 193.462 376.696C193.462 376.052 193.612 375.473 193.91 374.96C194.209 374.437 194.615 374.027 195.128 373.728C195.642 373.429 196.216 373.28 196.85 373.28C197.448 373.28 197.975 373.415 198.432 373.686C198.899 373.957 199.263 374.335 199.524 374.82C199.795 375.296 199.93 375.847 199.93 376.472C199.93 376.547 199.926 376.635 199.916 376.738C199.907 376.831 199.888 376.943 199.86 377.074H194.162V376.234H199.328L198.978 376.542C198.988 376.057 198.904 375.641 198.726 375.296C198.558 374.941 198.311 374.671 197.984 374.484C197.667 374.288 197.28 374.19 196.822 374.19C196.346 374.19 195.931 374.293 195.576 374.498C195.222 374.703 194.942 374.993 194.736 375.366C194.54 375.73 194.442 376.164 194.442 376.668C194.442 377.172 194.545 377.615 194.75 377.998C194.965 378.381 195.259 378.679 195.632 378.894C196.015 379.109 196.454 379.216 196.948 379.216C197.35 379.216 197.718 379.146 198.054 379.006C198.39 378.857 198.675 378.637 198.908 378.348L199.538 378.992C199.23 379.356 198.848 379.641 198.39 379.846C197.942 380.042 197.457 380.14 196.934 380.14ZM201.43 380V370.088H202.41V380H201.43ZM204.396 380V370.088H205.376V380H204.396ZM207.503 381.442L208.301 379.888L208.651 379.804C208.614 379.888 208.562 379.958 208.497 380.014C208.432 380.079 208.352 380.112 208.259 380.112C208.082 380.112 207.918 380.042 207.769 379.902C207.629 379.753 207.559 379.571 207.559 379.356C207.559 379.132 207.638 378.941 207.797 378.782C207.956 378.614 208.147 378.53 208.371 378.53C208.586 378.53 208.772 378.614 208.931 378.782C209.099 378.941 209.183 379.132 209.183 379.356C209.183 379.449 209.164 379.561 209.127 379.692C209.099 379.813 209.034 379.977 208.931 380.182L208.091 381.764L207.503 381.442ZM214.213 380V370.088H215.193V380H214.213ZM217.18 380V373.42H218.174V380H217.18ZM217.67 371.992C217.483 371.992 217.324 371.927 217.194 371.796C217.063 371.656 216.998 371.493 216.998 371.306C216.998 371.11 217.063 370.947 217.194 370.816C217.324 370.685 217.483 370.62 217.67 370.62C217.875 370.62 218.038 370.685 218.16 370.816C218.29 370.947 218.356 371.11 218.356 371.306C218.356 371.493 218.29 371.656 218.16 371.796C218.038 371.927 217.875 371.992 217.67 371.992ZM222.176 380.14C221.821 380.14 221.481 380.093 221.154 380C220.827 379.897 220.529 379.757 220.258 379.58C219.997 379.403 219.768 379.193 219.572 378.95L220.202 378.306C220.463 378.623 220.757 378.861 221.084 379.02C221.42 379.169 221.793 379.244 222.204 379.244C222.643 379.244 222.983 379.16 223.226 378.992C223.478 378.824 223.604 378.591 223.604 378.292C223.604 378.012 223.515 377.793 223.338 377.634C223.161 377.475 222.932 377.349 222.652 377.256C222.381 377.163 222.092 377.074 221.784 376.99C221.476 376.897 221.182 376.785 220.902 376.654C220.622 376.514 220.393 376.323 220.216 376.08C220.048 375.837 219.964 375.52 219.964 375.128C219.964 374.755 220.053 374.433 220.23 374.162C220.417 373.882 220.678 373.667 221.014 373.518C221.359 373.359 221.765 373.28 222.232 373.28C222.727 373.28 223.175 373.369 223.576 373.546C223.977 373.723 224.299 373.985 224.542 374.33L223.912 374.96C223.716 374.708 223.469 374.517 223.17 374.386C222.881 374.246 222.554 374.176 222.19 374.176C221.77 374.176 221.448 374.26 221.224 374.428C221.009 374.587 220.902 374.797 220.902 375.058C220.902 375.31 220.991 375.511 221.168 375.66C221.345 375.8 221.569 375.917 221.84 376.01C222.12 376.094 222.414 376.183 222.722 376.276C223.03 376.36 223.324 376.477 223.604 376.626C223.884 376.766 224.108 376.962 224.276 377.214C224.453 377.457 224.542 377.788 224.542 378.208C224.542 378.796 224.327 379.267 223.898 379.622C223.478 379.967 222.904 380.14 222.176 380.14ZM227.116 380V370.648H228.096V380H227.116ZM225.45 374.302V373.42H229.748V374.302H225.45ZM237.087 380.14C236.453 380.14 235.874 379.986 235.351 379.678C234.838 379.37 234.427 378.955 234.119 378.432C233.821 377.909 233.671 377.326 233.671 376.682C233.671 376.047 233.821 375.473 234.119 374.96C234.427 374.447 234.838 374.041 235.351 373.742C235.874 373.434 236.453 373.28 237.087 373.28C237.731 373.28 238.31 373.429 238.823 373.728C239.337 374.027 239.743 374.437 240.041 374.96C240.349 375.473 240.503 376.047 240.503 376.682C240.503 377.335 240.349 377.923 240.041 378.446C239.743 378.959 239.337 379.37 238.823 379.678C238.31 379.986 237.731 380.14 237.087 380.14ZM237.087 379.188C237.554 379.188 237.965 379.081 238.319 378.866C238.683 378.651 238.968 378.353 239.173 377.97C239.388 377.587 239.495 377.158 239.495 376.682C239.495 376.206 239.388 375.786 239.173 375.422C238.968 375.049 238.683 374.755 238.319 374.54C237.965 374.325 237.554 374.218 237.087 374.218C236.63 374.218 236.219 374.325 235.855 374.54C235.491 374.755 235.207 375.049 235.001 375.422C234.796 375.786 234.693 376.206 234.693 376.682C234.693 377.167 234.796 377.601 235.001 377.984C235.207 378.357 235.491 378.651 235.855 378.866C236.219 379.081 236.63 379.188 237.087 379.188ZM246.85 380V376.136C246.85 375.557 246.678 375.091 246.332 374.736C245.996 374.372 245.548 374.19 244.988 374.19C244.606 374.19 244.27 374.274 243.98 374.442C243.691 374.61 243.462 374.839 243.294 375.128C243.126 375.417 243.042 375.749 243.042 376.122L242.594 375.87C242.594 375.375 242.711 374.932 242.944 374.54C243.178 374.148 243.49 373.84 243.882 373.616C244.284 373.392 244.741 373.28 245.254 373.28C245.758 373.28 246.206 373.401 246.598 373.644C246.99 373.887 247.294 374.213 247.508 374.624C247.732 375.035 247.844 375.483 247.844 375.968V380H246.85ZM242.062 380V373.42H243.042V380H242.062ZM252.923 380V370.368H253.945V380H252.923ZM253.595 380V379.062H259.265V380H253.595ZM253.595 375.52V374.61H258.817V375.52H253.595ZM253.595 371.306V370.368H259.181V371.306H253.595ZM260.93 380V370.088H261.91V380H260.93ZM266.934 380.14C266.272 380.14 265.679 379.991 265.156 379.692C264.634 379.393 264.218 378.983 263.91 378.46C263.612 377.937 263.462 377.349 263.462 376.696C263.462 376.052 263.612 375.473 263.91 374.96C264.209 374.437 264.615 374.027 265.128 373.728C265.642 373.429 266.216 373.28 266.85 373.28C267.448 373.28 267.975 373.415 268.432 373.686C268.899 373.957 269.263 374.335 269.524 374.82C269.795 375.296 269.93 375.847 269.93 376.472C269.93 376.547 269.926 376.635 269.916 376.738C269.907 376.831 269.888 376.943 269.86 377.074H264.162V376.234H269.328L268.978 376.542C268.988 376.057 268.904 375.641 268.726 375.296C268.558 374.941 268.311 374.671 267.984 374.484C267.667 374.288 267.28 374.19 266.822 374.19C266.346 374.19 265.931 374.293 265.576 374.498C265.222 374.703 264.942 374.993 264.736 375.366C264.54 375.73 264.442 376.164 264.442 376.668C264.442 377.172 264.545 377.615 264.75 377.998C264.965 378.381 265.259 378.679 265.632 378.894C266.015 379.109 266.454 379.216 266.948 379.216C267.35 379.216 267.718 379.146 268.054 379.006C268.39 378.857 268.675 378.637 268.908 378.348L269.538 378.992C269.23 379.356 268.848 379.641 268.39 379.846C267.942 380.042 267.457 380.14 266.934 380.14ZM274.146 382.912C273.483 382.912 272.89 382.786 272.368 382.534C271.854 382.291 271.439 381.946 271.122 381.498L271.766 380.854C272.027 381.209 272.358 381.484 272.76 381.68C273.161 381.876 273.632 381.974 274.174 381.974C274.92 381.974 275.513 381.773 275.952 381.372C276.4 380.971 276.624 380.425 276.624 379.734V378.096L276.82 376.598L276.624 375.114V373.42H277.604V379.734C277.604 380.369 277.459 380.924 277.17 381.4C276.88 381.876 276.474 382.245 275.952 382.506C275.438 382.777 274.836 382.912 274.146 382.912ZM274.216 379.93C273.609 379.93 273.063 379.785 272.578 379.496C272.092 379.207 271.71 378.81 271.43 378.306C271.15 377.802 271.01 377.233 271.01 376.598C271.01 375.963 271.145 375.399 271.416 374.904C271.696 374.4 272.078 374.003 272.564 373.714C273.049 373.425 273.595 373.28 274.202 373.28C274.715 373.28 275.172 373.378 275.574 373.574C275.984 373.77 276.311 374.05 276.554 374.414C276.806 374.769 276.96 375.189 277.016 375.674V377.536C276.96 378.012 276.806 378.432 276.554 378.796C276.302 379.151 275.975 379.431 275.574 379.636C275.172 379.832 274.72 379.93 274.216 379.93ZM274.398 378.992C274.855 378.992 275.252 378.894 275.588 378.698C275.933 378.502 276.199 378.227 276.386 377.872C276.582 377.508 276.68 377.083 276.68 376.598C276.68 376.122 276.582 375.707 276.386 375.352C276.199 374.997 275.933 374.717 275.588 374.512C275.242 374.307 274.841 374.204 274.384 374.204C273.926 374.204 273.516 374.307 273.152 374.512C272.797 374.717 272.517 374.997 272.312 375.352C272.116 375.707 272.018 376.122 272.018 376.598C272.018 377.065 272.12 377.48 272.326 377.844C272.531 378.208 272.811 378.493 273.166 378.698C273.52 378.894 273.931 378.992 274.398 378.992ZM279.578 380V373.42H280.572V380H279.578ZM280.068 371.992C279.881 371.992 279.723 371.927 279.592 371.796C279.461 371.656 279.396 371.493 279.396 371.306C279.396 371.11 279.461 370.947 279.592 370.816C279.723 370.685 279.881 370.62 280.068 370.62C280.273 370.62 280.437 370.685 280.558 370.816C280.689 370.947 280.754 371.11 280.754 371.306C280.754 371.493 280.689 371.656 280.558 371.796C280.437 371.927 280.273 371.992 280.068 371.992ZM283.58 380V370.648H284.56V380H283.58ZM281.914 374.302V373.42H286.212V374.302H281.914ZM288.12 380.14C287.887 380.14 287.695 380.061 287.546 379.902C287.397 379.743 287.322 379.552 287.322 379.328C287.322 379.104 287.397 378.917 287.546 378.768C287.695 378.609 287.887 378.53 288.12 378.53C288.344 378.53 288.531 378.609 288.68 378.768C288.829 378.917 288.904 379.104 288.904 379.328C288.904 379.552 288.829 379.743 288.68 379.902C288.531 380.061 288.344 380.14 288.12 380.14ZM92.686 398L96.634 388.368H97.404L101.31 398H100.204L96.802 389.488H97.208L93.778 398H92.686ZM94.492 395.494V394.584H99.532V395.494H94.492ZM107.616 398V394.136C107.616 393.557 107.443 393.091 107.098 392.736C106.762 392.372 106.314 392.19 105.754 392.19C105.371 392.19 105.035 392.274 104.746 392.442C104.457 392.61 104.228 392.839 104.06 393.128C103.892 393.417 103.808 393.749 103.808 394.122L103.36 393.87C103.36 393.375 103.477 392.932 103.71 392.54C103.943 392.148 104.256 391.84 104.648 391.616C105.049 391.392 105.507 391.28 106.02 391.28C106.524 391.28 106.972 391.401 107.364 391.644C107.756 391.887 108.059 392.213 108.274 392.624C108.498 393.035 108.61 393.483 108.61 393.968V398H107.616ZM102.828 398V391.42H103.808V398H102.828ZM113.243 398.14C112.637 398.14 112.091 397.991 111.605 397.692C111.12 397.393 110.733 396.987 110.443 396.474C110.163 395.951 110.023 395.368 110.023 394.724C110.023 394.071 110.163 393.487 110.443 392.974C110.733 392.451 111.12 392.041 111.605 391.742C112.091 391.434 112.637 391.28 113.243 391.28C113.738 391.28 114.186 391.378 114.587 391.574C114.989 391.77 115.32 392.05 115.581 392.414C115.852 392.769 116.011 393.189 116.057 393.674V395.732C116.001 396.208 115.843 396.628 115.581 396.992C115.329 397.347 115.003 397.627 114.601 397.832C114.2 398.037 113.747 398.14 113.243 398.14ZM113.411 397.202C113.869 397.202 114.27 397.099 114.615 396.894C114.961 396.679 115.231 396.385 115.427 396.012C115.623 395.629 115.721 395.195 115.721 394.71C115.721 394.215 115.619 393.781 115.413 393.408C115.217 393.035 114.947 392.741 114.601 392.526C114.256 392.311 113.855 392.204 113.397 392.204C112.94 392.204 112.534 392.311 112.179 392.526C111.825 392.741 111.545 393.039 111.339 393.422C111.143 393.795 111.045 394.225 111.045 394.71C111.045 395.195 111.143 395.629 111.339 396.012C111.545 396.385 111.825 396.679 112.179 396.894C112.543 397.099 112.954 397.202 113.411 397.202ZM116.645 398H115.665V396.236L115.861 394.612L115.665 393.03V388.088H116.645V398ZM124.356 400.912C123.694 400.912 123.101 400.786 122.578 400.534C122.065 400.291 121.65 399.946 121.332 399.498L121.976 398.854C122.238 399.209 122.569 399.484 122.97 399.68C123.372 399.876 123.843 399.974 124.384 399.974C125.131 399.974 125.724 399.773 126.162 399.372C126.61 398.971 126.834 398.425 126.834 397.734V396.096L127.03 394.598L126.834 393.114V391.42H127.814V397.734C127.814 398.369 127.67 398.924 127.38 399.4C127.091 399.876 126.685 400.245 126.162 400.506C125.649 400.777 125.047 400.912 124.356 400.912ZM124.426 397.93C123.82 397.93 123.274 397.785 122.788 397.496C122.303 397.207 121.92 396.81 121.64 396.306C121.36 395.802 121.22 395.233 121.22 394.598C121.22 393.963 121.356 393.399 121.626 392.904C121.906 392.4 122.289 392.003 122.774 391.714C123.26 391.425 123.806 391.28 124.412 391.28C124.926 391.28 125.383 391.378 125.784 391.574C126.195 391.77 126.522 392.05 126.764 392.414C127.016 392.769 127.17 393.189 127.226 393.674V395.536C127.17 396.012 127.016 396.432 126.764 396.796C126.512 397.151 126.186 397.431 125.784 397.636C125.383 397.832 124.93 397.93 124.426 397.93ZM124.608 396.992C125.066 396.992 125.462 396.894 125.798 396.698C126.144 396.502 126.41 396.227 126.596 395.872C126.792 395.508 126.89 395.083 126.89 394.598C126.89 394.122 126.792 393.707 126.596 393.352C126.41 392.997 126.144 392.717 125.798 392.512C125.453 392.307 125.052 392.204 124.594 392.204C124.137 392.204 123.726 392.307 123.362 392.512C123.008 392.717 122.728 392.997 122.522 393.352C122.326 393.707 122.228 394.122 122.228 394.598C122.228 395.065 122.331 395.48 122.536 395.844C122.742 396.208 123.022 396.493 123.376 396.698C123.731 396.894 124.142 396.992 124.608 396.992ZM129.789 398V391.42H130.769V398H129.789ZM130.769 394.164L130.363 393.982C130.363 393.151 130.564 392.493 130.965 392.008C131.376 391.523 131.936 391.28 132.645 391.28C132.972 391.28 133.27 391.341 133.541 391.462C133.812 391.574 134.064 391.756 134.297 392.008L133.653 392.694C133.494 392.517 133.317 392.391 133.121 392.316C132.934 392.241 132.72 392.204 132.477 392.204C131.973 392.204 131.562 392.372 131.245 392.708C130.928 393.035 130.769 393.52 130.769 394.164ZM138.089 398.14C137.455 398.14 136.876 397.986 136.353 397.678C135.84 397.37 135.429 396.955 135.121 396.432C134.823 395.909 134.673 395.326 134.673 394.682C134.673 394.047 134.823 393.473 135.121 392.96C135.429 392.447 135.84 392.041 136.353 391.742C136.876 391.434 137.455 391.28 138.089 391.28C138.733 391.28 139.312 391.429 139.825 391.728C140.339 392.027 140.745 392.437 141.043 392.96C141.351 393.473 141.505 394.047 141.505 394.682C141.505 395.335 141.351 395.923 141.043 396.446C140.745 396.959 140.339 397.37 139.825 397.678C139.312 397.986 138.733 398.14 138.089 398.14ZM138.089 397.188C138.556 397.188 138.967 397.081 139.321 396.866C139.685 396.651 139.97 396.353 140.175 395.97C140.39 395.587 140.497 395.158 140.497 394.682C140.497 394.206 140.39 393.786 140.175 393.422C139.97 393.049 139.685 392.755 139.321 392.54C138.967 392.325 138.556 392.218 138.089 392.218C137.632 392.218 137.221 392.325 136.857 392.54C136.493 392.755 136.209 393.049 136.003 393.422C135.798 393.786 135.695 394.206 135.695 394.682C135.695 395.167 135.798 395.601 136.003 395.984C136.209 396.357 136.493 396.651 136.857 396.866C137.221 397.081 137.632 397.188 138.089 397.188ZM144.68 398L142.146 391.42H143.168L145.17 396.88L144.806 396.894L146.794 391.42H147.368L149.356 396.894L148.992 396.88L150.98 391.42H152.016L149.468 398H148.894L146.864 392.61H147.284L145.268 398H144.68ZM158.497 398.028L155.613 391.42H156.691L159.015 396.936H158.609L161.059 391.42H162.151L159.057 398.028H158.497ZM156.705 400.772L158.511 397.034L159.057 398.028L157.783 400.772H156.705ZM166.007 398.14C165.373 398.14 164.794 397.986 164.271 397.678C163.758 397.37 163.347 396.955 163.039 396.432C162.741 395.909 162.591 395.326 162.591 394.682C162.591 394.047 162.741 393.473 163.039 392.96C163.347 392.447 163.758 392.041 164.271 391.742C164.794 391.434 165.373 391.28 166.007 391.28C166.651 391.28 167.23 391.429 167.743 391.728C168.257 392.027 168.663 392.437 168.961 392.96C169.269 393.473 169.423 394.047 169.423 394.682C169.423 395.335 169.269 395.923 168.961 396.446C168.663 396.959 168.257 397.37 167.743 397.678C167.23 397.986 166.651 398.14 166.007 398.14ZM166.007 397.188C166.474 397.188 166.885 397.081 167.239 396.866C167.603 396.651 167.888 396.353 168.093 395.97C168.308 395.587 168.415 395.158 168.415 394.682C168.415 394.206 168.308 393.786 168.093 393.422C167.888 393.049 167.603 392.755 167.239 392.54C166.885 392.325 166.474 392.218 166.007 392.218C165.55 392.218 165.139 392.325 164.775 392.54C164.411 392.755 164.127 393.049 163.921 393.422C163.716 393.786 163.613 394.206 163.613 394.682C163.613 395.167 163.716 395.601 163.921 395.984C164.127 396.357 164.411 396.651 164.775 396.866C165.139 397.081 165.55 397.188 166.007 397.188ZM173.586 398.14C173.054 398.14 172.578 398.019 172.158 397.776C171.738 397.524 171.407 397.183 171.164 396.754C170.931 396.325 170.814 395.821 170.814 395.242V391.42H171.808V395.2C171.808 395.601 171.878 395.951 172.018 396.25C172.168 396.549 172.378 396.782 172.648 396.95C172.919 397.118 173.232 397.202 173.586 397.202C174.137 397.202 174.571 397.02 174.888 396.656C175.215 396.292 175.378 395.807 175.378 395.2V391.42H176.358V395.242C176.358 395.811 176.242 396.315 176.008 396.754C175.775 397.193 175.448 397.533 175.028 397.776C174.608 398.019 174.128 398.14 173.586 398.14ZM178.187 398V391.42H179.167V398H178.187ZM179.167 394.164L178.761 393.982C178.761 393.151 178.962 392.493 179.363 392.008C179.774 391.523 180.334 391.28 181.043 391.28C181.37 391.28 181.669 391.341 181.939 391.462C182.21 391.574 182.462 391.756 182.695 392.008L182.051 392.694C181.893 392.517 181.715 392.391 181.519 392.316C181.333 392.241 181.118 392.204 180.875 392.204C180.371 392.204 179.961 392.372 179.643 392.708C179.326 393.035 179.167 393.52 179.167 394.164ZM185.604 398.14C185.249 398.14 184.908 398.093 184.582 398C184.255 397.897 183.956 397.757 183.686 397.58C183.424 397.403 183.196 397.193 183 396.95L183.63 396.306C183.891 396.623 184.185 396.861 184.512 397.02C184.848 397.169 185.221 397.244 185.632 397.244C186.07 397.244 186.411 397.16 186.654 396.992C186.906 396.824 187.032 396.591 187.032 396.292C187.032 396.012 186.943 395.793 186.766 395.634C186.588 395.475 186.36 395.349 186.08 395.256C185.809 395.163 185.52 395.074 185.212 394.99C184.904 394.897 184.61 394.785 184.33 394.654C184.05 394.514 183.821 394.323 183.644 394.08C183.476 393.837 183.392 393.52 183.392 393.128C183.392 392.755 183.48 392.433 183.658 392.162C183.844 391.882 184.106 391.667 184.442 391.518C184.787 391.359 185.193 391.28 185.66 391.28C186.154 391.28 186.602 391.369 187.004 391.546C187.405 391.723 187.727 391.985 187.97 392.33L187.34 392.96C187.144 392.708 186.896 392.517 186.598 392.386C186.308 392.246 185.982 392.176 185.618 392.176C185.198 392.176 184.876 392.26 184.652 392.428C184.437 392.587 184.33 392.797 184.33 393.058C184.33 393.31 184.418 393.511 184.596 393.66C184.773 393.8 184.997 393.917 185.268 394.01C185.548 394.094 185.842 394.183 186.15 394.276C186.458 394.36 186.752 394.477 187.032 394.626C187.312 394.766 187.536 394.962 187.704 395.214C187.881 395.457 187.97 395.788 187.97 396.208C187.97 396.796 187.755 397.267 187.326 397.622C186.906 397.967 186.332 398.14 185.604 398.14ZM192.559 398.14C191.897 398.14 191.304 397.991 190.781 397.692C190.259 397.393 189.843 396.983 189.535 396.46C189.237 395.937 189.087 395.349 189.087 394.696C189.087 394.052 189.237 393.473 189.535 392.96C189.834 392.437 190.24 392.027 190.753 391.728C191.267 391.429 191.841 391.28 192.475 391.28C193.073 391.28 193.6 391.415 194.057 391.686C194.524 391.957 194.888 392.335 195.149 392.82C195.42 393.296 195.555 393.847 195.555 394.472C195.555 394.547 195.551 394.635 195.541 394.738C195.532 394.831 195.513 394.943 195.485 395.074H189.787V394.234H194.953L194.603 394.542C194.613 394.057 194.529 393.641 194.351 393.296C194.183 392.941 193.936 392.671 193.609 392.484C193.292 392.288 192.905 392.19 192.447 392.19C191.971 392.19 191.556 392.293 191.201 392.498C190.847 392.703 190.567 392.993 190.361 393.366C190.165 393.73 190.067 394.164 190.067 394.668C190.067 395.172 190.17 395.615 190.375 395.998C190.59 396.381 190.884 396.679 191.257 396.894C191.64 397.109 192.079 397.216 192.573 397.216C192.975 397.216 193.343 397.146 193.679 397.006C194.015 396.857 194.3 396.637 194.533 396.348L195.163 396.992C194.855 397.356 194.473 397.641 194.015 397.846C193.567 398.042 193.082 398.14 192.559 398.14ZM197.055 398V388.088H198.035V398H197.055ZM200.987 398V390.3C200.987 389.843 201.085 389.437 201.281 389.082C201.487 388.727 201.767 388.452 202.121 388.256C202.485 388.051 202.896 387.948 203.353 387.948C203.708 387.948 204.021 388.013 204.291 388.144C204.562 388.265 204.809 388.438 205.033 388.662L204.389 389.306C204.24 389.157 204.081 389.049 203.913 388.984C203.755 388.909 203.568 388.872 203.353 388.872C202.915 388.872 202.574 389.003 202.331 389.264C202.098 389.516 201.981 389.871 201.981 390.328V398H200.987ZM199.335 392.302V391.42H204.179V392.302H199.335ZM205.815 398.14C205.582 398.14 205.39 398.061 205.241 397.902C205.092 397.743 205.017 397.552 205.017 397.328C205.017 397.104 205.092 396.917 205.241 396.768C205.39 396.609 205.582 396.53 205.815 396.53C206.039 396.53 206.226 396.609 206.375 396.768C206.524 396.917 206.599 397.104 206.599 397.328C206.599 397.552 206.524 397.743 206.375 397.902C206.226 398.061 206.039 398.14 205.815 398.14Z" fill="#808080"/>
<rect x="60.5" y="466" width="45" height="14" rx="7" fill="url(#paint0_linear_22_1646)"/>
<rect x="127.5" y="466" width="45" height="14" rx="7" fill="#D9D9D9"/>
<rect x="194.5" y="466" width="45" height="14" rx="7" fill="#D9D9D9"/>
<defs>
<linearGradient id="paint0_linear_22_1646" x1="83" y1="466" x2="83" y2="480" gradientUnits="userSpaceOnUse">
<stop stop-color="#450E8B"/>
<stop offset="1" stop-color="#EC8C34"/>
</linearGradient>
</defs>
</svg>
