<svg width="14" height="15" viewBox="0 0 14 15" fill="none" xmlns="http://www.w3.org/2000/svg">
<path fill-rule="evenodd" clip-rule="evenodd" d="M9.41325 3.258L10.4808 4.3255C12.0488 5.89466 12.8333 6.67866 12.8333 7.65283C12.8333 8.62758 12.0488 9.41158 10.4802 10.9802C8.91159 12.5499 8.12759 13.3333 7.15284 13.3333C6.17867 13.3333 5.39409 12.5487 3.8255 10.9802L2.758 9.91266C1.85675 9.01141 1.40584 8.56108 1.23842 7.976C1.07042 7.39091 1.21392 6.76966 1.50092 5.52775L1.666 4.81141C1.90692 3.76608 2.02767 3.24341 2.38525 2.88525C2.74342 2.52766 3.26609 2.40691 4.31142 2.166L5.02775 2.00033C6.27025 1.71391 6.89092 1.57041 7.476 1.73783C8.06109 1.90583 8.512 2.35675 9.41325 3.258ZM6.50242 8.858C6.10984 8.466 6.11275 7.9025 6.34784 7.45625C6.28964 7.37218 6.26272 7.27039 6.27175 7.16855C6.28079 7.06671 6.32521 6.97125 6.39729 6.89874C6.46938 6.82624 6.56459 6.78127 6.66638 6.77165C6.76816 6.76203 6.87011 6.78836 6.9545 6.84608C7.15284 6.74108 7.37042 6.68508 7.58742 6.68741C7.70345 6.6885 7.8143 6.73563 7.89558 6.81844C7.97686 6.90125 8.02192 7.01296 8.02084 7.129C8.01975 7.24503 7.97262 7.35588 7.88981 7.43716C7.807 7.51844 7.69529 7.5635 7.57925 7.56241C7.44418 7.5674 7.31653 7.62546 7.224 7.724C6.99825 7.94975 7.05717 8.17608 7.12075 8.23966C7.18492 8.30325 7.41067 8.36216 7.63642 8.13641C8.09375 7.67908 8.88359 7.52741 9.38934 8.03316C9.78192 8.42575 9.779 8.98924 9.54392 9.43549C9.60175 9.51958 9.62837 9.62123 9.61917 9.72286C9.60998 9.82449 9.56554 9.91971 9.49355 9.99204C9.42157 10.0644 9.32656 10.1093 9.22497 10.119C9.12339 10.1286 9.02161 10.1025 8.93725 10.0451C8.67547 10.1887 8.37184 10.2365 8.07859 10.1804C7.96488 10.1571 7.8651 10.0895 7.80121 9.99255C7.73733 9.89563 7.71456 9.77729 7.73792 9.66358C7.76128 9.54987 7.82886 9.45009 7.92578 9.38621C8.02271 9.32232 8.14104 9.29955 8.25475 9.32291C8.358 9.3445 8.52484 9.31066 8.66775 9.16775C8.8935 8.94141 8.83459 8.71566 8.771 8.65208C8.70684 8.5885 8.48109 8.52958 8.25534 8.75533C7.798 9.21266 7.00817 9.36433 6.50242 8.858ZM5.84559 6.50425C5.95391 6.39589 6.03982 6.26726 6.09843 6.1257C6.15703 5.98414 6.18719 5.83242 6.18716 5.67921C6.18713 5.52599 6.15693 5.37429 6.09827 5.23275C6.03961 5.09121 5.95365 4.96261 5.84529 4.85429C5.73694 4.74597 5.60831 4.66005 5.46675 4.60145C5.32519 4.54284 5.17347 4.51269 5.02026 4.51272C4.86704 4.51274 4.71534 4.54295 4.5738 4.6016C4.43226 4.66026 4.30366 4.74622 4.19534 4.85458C3.97658 5.07342 3.85371 5.37019 3.85377 5.67962C3.85382 5.98905 3.97679 6.28578 4.19563 6.50454C4.41447 6.7233 4.71124 6.84616 5.02067 6.84611C5.3301 6.84605 5.62683 6.72308 5.84559 6.50425Z" fill="#A3A3A4"/>
</svg>
