<svg width="50" height="50" viewBox="0 0 50 50" fill="none" xmlns="http://www.w3.org/2000/svg">
<path d="M46.875 34.375H3.125C2.26172 34.375 1.5625 33.6758 1.5625 32.8125V4.6875C1.5625 3.82422 2.26172 3.125 3.125 3.125H46.875C47.7383 3.125 48.4375 3.82422 48.4375 4.6875V32.8125C48.4375 33.6758 47.7383 34.375 46.875 34.375Z" fill="url(#paint0_linear_25_3001)"/>
<path opacity="0.3" d="M46.875 34.375H3.125C2.26172 34.375 1.5625 33.6758 1.5625 32.8125V4.6875C1.5625 3.82422 2.26172 3.125 3.125 3.125H46.875C47.7383 3.125 48.4375 3.82422 48.4375 4.6875V32.8125C48.4375 33.6758 47.7383 34.375 46.875 34.375Z" fill="url(#paint1_linear_25_3001)"/>
<path opacity="0.3" d="M46.8086 34.375H3.05859C2.19531 34.375 1.49609 33.6758 1.49609 32.8125V4.6875C1.49609 3.82422 2.19531 3.125 3.05859 3.125H46.8086C47.6719 3.125 48.3711 3.82422 48.3711 4.6875V32.8125C48.3711 33.6758 47.6719 34.375 46.8086 34.375Z" fill="url(#paint2_linear_25_3001)"/>
<path d="M4.6875 6.25H14.0625V7.8125H4.6875V6.25ZM33.5938 6.25H39.8438V7.8125H33.5938V6.25ZM42.1875 6.25H45.3125V7.8125H42.1875V6.25ZM7.8125 10.9375H10.9375V12.5H7.8125V10.9375ZM4.6875 15.625H10.9375V17.1875H4.6875V15.625ZM4.6875 20.3125H7.8125V21.875H4.6875V20.3125ZM38.2812 20.3125H42.9688V21.875H38.2812V20.3125ZM40.625 15.625H45.3125V17.1875H40.625V15.625ZM4.6875 25H10.9375V26.5625H4.6875V25ZM37.5 25H45.3125V26.5625H37.5V25ZM39.0625 10.9375H43.75V12.5H39.0625V10.9375Z" fill="#76FF03"/>
<path d="M38.6327 31.1563C38.1444 30.2695 38.7655 29.3672 39.828 28.25C41.5116 26.4766 43.3436 22.3633 41.6405 18.1875C41.6522 18.1641 41.3046 17.4609 41.3163 17.4375L40.6171 17.4023C40.3944 17.3711 32.703 17.3555 25.0038 17.3555C17.3046 17.3555 9.61317 17.3711 9.39052 17.4023C9.39052 17.4023 8.35536 18.1641 8.36317 18.1875C6.66395 22.3633 8.49208 26.4766 10.1757 28.25C11.2343 29.3672 11.8554 30.2695 11.371 31.1563C10.8983 32.0195 9.49208 32.1445 9.49208 32.1445C9.49208 32.1445 9.8163 33.0273 10.5975 33.5039C11.3202 33.9453 12.2108 34.0469 12.8241 34.0625C12.8241 34.0625 15.2265 37.3867 21.5077 37.3867H28.4999C34.7811 37.3867 37.1835 34.0625 37.1835 34.0625C37.7968 34.0469 38.6874 33.9453 39.4101 33.5039C40.1913 33.0273 40.5155 32.1445 40.5155 32.1445C40.5155 32.1445 39.1054 32.0156 38.6327 31.1563Z" fill="#312D2D"/>
<path d="M24.9961 37.3828V33.6953L36.1562 32.8125L37.1719 34.0625C37.1719 34.0625 34.7695 37.3867 28.4883 37.3867L24.9961 37.3828Z" fill="url(#paint3_radial_25_3001)"/>
<path d="M37.1485 32.4492C35.4766 29.9102 39.1836 28.9609 39.1836 28.9609L39.1875 28.9648C38.543 29.7656 38.25 30.4648 38.629 31.1563C39.1016 32.0195 40.5079 32.1445 40.5079 32.1445C40.5079 32.1445 38.5899 33.8477 37.1485 32.4492Z" fill="url(#paint4_radial_25_3001)"/>
<path d="M41.6484 18.1875C43.3086 22.2305 41.5625 26.3945 39.9258 28.1523C39.7031 28.3945 38.75 29.3281 38.5312 30.0742C38.5312 30.0742 34.8047 24.875 33.6914 21.8203C33.4688 21.2031 33.2617 20.5703 33.2344 19.9141C33.2148 19.4219 33.2891 18.8359 33.5742 18.418C33.9219 17.9063 41.4492 17.7539 41.4492 17.7539C41.4492 17.7578 41.6484 18.1875 41.6484 18.1875Z" fill="url(#paint5_radial_25_3001)"/>
<path d="M8.35928 18.1875C6.69912 22.2305 8.44522 26.3945 10.0819 28.1523C10.3085 28.3945 11.2577 29.3281 11.4765 30.0742C11.4765 30.0742 15.203 24.875 16.3163 21.8203C16.5429 21.2031 16.746 20.5703 16.7733 19.9141C16.7929 19.4219 16.7187 18.8359 16.4335 18.418C16.0858 17.9063 15.6796 18.043 15.0898 18.043C13.9648 18.043 9.03897 17.7539 8.65616 17.7539C8.66006 17.7578 8.35928 18.1875 8.35928 18.1875Z" fill="url(#paint6_radial_25_3001)"/>
<path d="M25.0117 37.3828V33.6953L13.8516 32.8125L12.8359 34.0625C12.8359 34.0625 15.2383 37.3867 21.5195 37.3867L25.0117 37.3828Z" fill="url(#paint7_radial_25_3001)"/>
<path d="M12.8594 32.4492C14.5312 29.9102 10.8242 28.9609 10.8242 28.9609L10.8203 28.9648C11.4648 29.7656 11.7578 30.4648 11.3789 31.1563C10.9062 32.0195 9.5 32.1445 9.5 32.1445C9.5 32.1445 11.418 33.8477 12.8594 32.4492Z" fill="url(#paint8_radial_25_3001)"/>
<path d="M35.6758 19.6641H14.3242C12.0234 19.6641 10.1406 21.668 10.1406 24.1211C10.1406 26.5742 12.0234 28.5781 14.3242 28.5781H35.6719C37.9727 28.5781 39.8555 26.5703 39.8555 24.1211C39.8594 21.6719 37.9766 19.6641 35.6758 19.6641Z" fill="#EDC391"/>
<path d="M25 4.28906C18.2031 4.28906 11.9062 11.5586 11.9062 22.0234C11.9062 32.4297 18.3945 37.5742 25 37.5742C31.6055 37.5742 38.0937 32.4297 38.0937 22.0234C38.0937 11.5586 31.7969 4.28906 25 4.28906Z" fill="#F9DDBD"/>
<path d="M21.4063 19.4219C21.0431 18.9414 20.2071 18.2461 18.5821 18.2461C16.9571 18.2461 16.1173 18.9453 15.7579 19.4219C15.5977 19.6328 15.6368 19.8789 15.7501 20.0273C15.8517 20.1641 16.1563 20.293 16.4923 20.1797C16.8282 20.0664 17.4845 19.7266 18.5821 19.7188C19.6798 19.7266 20.336 20.0664 20.672 20.1797C21.0079 20.293 21.3126 20.168 21.4142 20.0273C21.5235 19.8828 21.5665 19.6367 21.4063 19.4219ZM34.2462 19.4219C33.8829 18.9414 33.047 18.2461 31.422 18.2461C29.797 18.2461 28.9571 18.9453 28.5977 19.4219C28.4376 19.6328 28.4767 19.8789 28.5899 20.0273C28.6915 20.1641 28.9962 20.293 29.3321 20.1797C29.6681 20.0664 30.3243 19.7266 31.422 19.7188C32.5196 19.7266 33.1759 20.0664 33.5118 20.1797C33.8477 20.293 34.1524 20.168 34.254 20.0273C34.3634 19.8828 34.4063 19.6367 34.2462 19.4219Z" fill="#454140"/>
<path d="M18.5781 24.9297C19.6417 24.9297 20.5039 24.0378 20.5039 22.9375C20.5039 21.8372 19.6417 20.9453 18.5781 20.9453C17.5145 20.9453 16.6523 21.8372 16.6523 22.9375C16.6523 24.0378 17.5145 24.9297 18.5781 24.9297Z" fill="#312D2D"/>
<path d="M31.4219 24.9297C32.4855 24.9297 33.3477 24.0378 33.3477 22.9375C33.3477 21.8372 32.4855 20.9453 31.4219 20.9453C30.3583 20.9453 29.4961 21.8372 29.4961 22.9375C29.4961 24.0378 30.3583 24.9297 31.4219 24.9297Z" fill="#312D2D"/>
<path d="M28.2891 29.707C27.0469 30.4453 22.9649 30.4453 21.7227 29.707C21.0078 29.2812 20.2774 29.9336 20.5742 30.582C20.8672 31.2187 23.0899 32.6992 25.0157 32.6992C26.9414 32.6992 29.1367 31.2187 29.4297 30.582C29.7227 29.9336 29.0039 29.2812 28.2891 29.707Z" fill="#444444"/>
<path d="M26.5078 26.5469C26.4648 26.5313 26.4258 26.5195 26.3828 26.5156H23.6172C23.5742 26.5195 23.5313 26.5313 23.4922 26.5469C23.2422 26.6484 23.1055 26.9062 23.2227 27.1836C23.3398 27.4609 23.8906 28.2344 25 28.2344C26.1094 28.2344 26.6602 27.457 26.7773 27.1836C26.8945 26.9102 26.7578 26.6484 26.5078 26.5469Z" fill="#DBA689"/>
<path d="M40.6523 9.77344C39.6991 8.33203 37.5624 6.39844 35.6444 6.26953C35.3358 4.42578 33.3632 2.86328 31.453 2.25781C26.2851 0.621095 22.9218 2.45703 21.1171 3.44141C20.7421 3.64453 18.3163 4.99219 16.621 4.02734C15.5585 3.42188 15.578 1.78516 15.578 1.78516C15.578 1.78516 12.2499 3.05469 13.3866 6.58985C12.2421 6.63672 10.7421 7.12109 9.94913 8.72656C9.00382 10.6406 9.33976 12.2383 9.61319 13.0039C8.62882 13.8398 7.39054 15.6172 8.23819 17.9258C8.87882 19.6641 11.4296 20.4648 11.4296 20.4648C11.1874 24.6602 12.3202 26.6953 12.3202 26.6953C12.3202 26.6953 14.1523 19.4883 13.9999 18.3867C13.9999 18.3867 17.0312 17.7852 20.4726 15.8164C22.7968 14.4844 24.3866 12.9258 26.9999 12.3359C30.9765 11.4414 31.8632 14.3203 31.8632 14.3203C31.8632 14.3203 35.5429 13.6133 36.6523 18.7227C37.1093 20.8242 37.4062 24.3086 37.6562 26.4453C37.6327 26.2578 38.9218 23.9727 39.164 21.6289C39.2265 21.0234 40.8593 20.2227 41.5624 17.6211C42.496 14.1523 41.3437 10.8164 40.6523 9.77344Z" fill="#312D2D"/>
<path d="M39.1484 21.6445C39.2109 21.0391 40.8438 20.2383 41.5469 17.6367C41.6211 17.3594 41.6836 17.0781 41.7422 16.7969C42.3125 13.6367 41.2891 10.7344 40.6523 9.77344C39.7695 8.44141 37.8789 6.69141 36.0859 6.33203C35.9297 6.3125 35.7773 6.29297 35.6328 6.28516C35.6328 6.28516 35.7617 7.125 35.4219 7.79297C34.9844 8.66016 34.0898 8.86719 34.0898 8.86719C38.7656 13.543 38.4336 17.4609 39.1484 21.6445Z" fill="url(#paint9_radial_25_3001)"/>
<path d="M22.2462 2.85156C21.8165 3.05859 21.4415 3.26563 21.1134 3.44141C20.7384 3.64453 18.3126 4.99219 16.6173 4.02734C15.5743 3.43359 15.5743 1.84766 15.5743 1.79297C15.0938 2.40625 13.6407 6.78516 17.8907 7.07813C19.7227 7.20313 20.8517 5.60547 21.5235 4.25391C21.7657 3.75781 22.1446 3.04297 22.2462 2.85156Z" fill="url(#paint10_radial_25_3001)"/>
<path d="M30.9218 2.10157C33.7812 2.875 35.3086 4.39453 35.6406 6.27344C35.7421 6.85157 35.9414 12.1641 25.7851 6.11719C22.0078 3.86719 23.039 2.46094 23.4804 2.30078C25.207 1.67578 27.7187 1.23438 30.9218 2.10157Z" fill="url(#paint11_radial_25_3001)"/>
<path d="M15.5625 1.79297C15.5586 1.79688 15.5508 1.79687 15.5391 1.80469H15.5352C15.1719 1.95703 12.3164 3.28125 13.3829 6.59375L16.4219 7.08203C13.7305 4.35547 15.5743 1.78906 15.5743 1.78906C15.5743 1.78906 15.5664 1.78906 15.5625 1.79297Z" fill="url(#paint12_radial_25_3001)"/>
<path d="M15.2617 6.89062L13.3828 6.58984C13.3086 6.58984 13.0586 6.61328 12.9219 6.63281C11.8633 6.78125 10.6172 7.32812 9.9414 8.72656C9.21484 10.2344 9.23437 11.5273 9.43359 12.3906C9.49218 12.6797 9.60937 13.0078 9.60937 13.0078C9.60937 13.0078 10.5391 12.125 12.7539 12.0664L15.2617 6.89062Z" fill="url(#paint13_radial_25_3001)"/>
<path d="M9.51957 13.082C8.59379 13.9023 7.34769 15.7344 8.26566 18.0078C8.95707 19.7227 11.4258 20.4648 11.4258 20.4648C11.4258 20.4727 11.918 20.6211 12.1719 20.6211L12.75 12.0664C11.5664 12.0664 10.4297 12.4219 9.69535 12.9336C9.70707 12.9453 9.51566 13.0703 9.51957 13.082Z" fill="url(#paint14_radial_25_3001)"/>
<path d="M2.9805 48.4297H7.99222C8.42972 48.3945 8.77738 47.9687 8.77738 47.4453V47.1914C8.77738 45.793 8.14847 44.5703 7.20706 43.8906C7.20706 43.9492 7.21097 44.0078 7.21097 44.0664C7.21097 45.668 6.43753 46.9648 5.48831 46.9648C4.5391 46.9648 3.76566 45.668 3.76566 44.0664C3.76566 44.0078 3.76956 43.9492 3.76956 43.8906C2.82816 44.5742 2.19925 45.793 2.19925 47.1914V47.4453C2.19535 47.9727 2.543 48.3945 2.9805 48.4297Z" fill="url(#paint15_linear_25_3001)"/>
<path d="M5.48823 46.9687C9.00386 46.9687 7.21089 45.6719 7.21089 44.0703C7.21089 44.0117 7.20698 43.9531 7.20698 43.8945C6.70698 43.5313 6.11714 43.3164 5.48823 43.3164C4.85932 43.3164 4.26948 43.5313 3.76948 43.8945C3.76557 43.9531 3.76557 44.0117 3.76557 44.0703C3.76167 45.6719 1.95307 46.9687 5.48823 46.9687Z" fill="#E14301"/>
<path d="M10.9297 41.7187C10.8867 40.6094 10.0586 38.3203 8.97655 38.1289C8.94451 38.1247 8.91371 38.1139 8.88612 38.097C8.85854 38.0802 8.83478 38.0578 8.81639 38.0312C8.64451 37.7695 8.09373 37.0664 7.08592 37.6211C6.71092 37.8281 6.57811 38.0117 6.64061 38.2773C6.59373 38.332 6.5078 38.3984 6.3828 38.3476C5.97655 37.8945 5.47655 37.8008 4.89451 38.2539C4.23436 38.7695 4.23436 39.1367 4.35155 39.5L4.34764 39.5039C4.34764 39.5039 4.3203 39.7578 4.12889 39.7383C3.92967 39.5664 3.69139 39.5664 3.31248 39.8398C2.29686 40.5742 2.71483 41.2695 2.8867 41.6797C2.86326 41.7187 2.8242 41.7461 2.7617 41.7422C2.62889 41.6719 2.46092 41.6719 2.23436 41.8008C1.6953 42.1094 1.77342 43.125 1.92576 43.457C2.09373 43.8203 3.01951 45.0937 3.33592 45.4531C3.41014 45.5351 3.49998 45.5937 3.59764 45.6328C3.58699 45.6295 3.57655 45.6256 3.56639 45.6211C3.84373 45.793 4.32811 46 4.80076 45.707C4.80076 45.707 5.10155 45.4883 5.12889 45.2578C5.64061 45.543 6.34764 45.0117 6.34764 45.0117C6.67967 44.7578 6.76561 44.4726 6.75389 44.2266C6.92186 44.3281 7.10545 44.3672 7.28123 44.3711C7.81248 44.3867 8.30076 44.0742 8.30076 44.0742C9.06248 43.6406 9.21483 43.1875 9.21092 42.8867C9.60545 43.1328 10.0937 42.9492 10.0937 42.9492C10.957 42.5586 10.9297 41.7187 10.9297 41.7187Z" fill="url(#paint16_linear_25_3001)"/>
<path d="M42.172 48.4297H47.1876C47.1876 48.4297 47.4063 44.6055 41.2657 44.4219C35.1212 44.2422 42.172 48.4297 42.172 48.4297Z" fill="url(#paint17_linear_25_3001)"/>
<path d="M38.8517 43.6094C38.8946 42.5 39.7228 40.2109 40.8048 40.0195C40.8712 40.0078 40.9298 39.9765 40.9649 39.9219C41.1368 39.6601 41.6876 38.957 42.6954 39.5117C43.0704 39.7187 43.2032 39.9023 43.1407 40.168C43.1876 40.2226 43.2735 40.2891 43.3985 40.2383C43.8048 39.7851 44.3048 39.6914 44.8868 40.1445C45.547 40.6601 45.547 41.0273 45.4298 41.3906L45.4337 41.3945C45.4337 41.3945 45.461 41.6484 45.6524 41.6289C45.8517 41.457 46.0899 41.457 46.4688 41.7305C47.4845 42.4648 47.0665 43.1601 46.8946 43.5703C46.9181 43.6094 46.9532 43.6367 47.0196 43.6328C47.1524 43.5625 47.3204 43.5625 47.547 43.6914C48.086 44 48.0079 45.0156 47.8556 45.3476C47.6876 45.7109 46.7657 46.9844 46.4454 47.3437C46.3712 47.4258 46.2813 47.4844 46.1837 47.5234C46.1954 47.5195 46.2071 47.5156 46.2149 47.5117C45.9376 47.6836 45.4532 47.8906 44.9806 47.5976C44.9806 47.5976 44.6798 47.3789 44.6524 47.1484C44.1407 47.4336 43.4337 46.9023 43.4337 46.9023C43.1017 46.6484 43.0157 46.3633 43.0274 46.1172C42.8595 46.2187 42.6759 46.2578 42.5001 46.2617C41.9688 46.2773 41.4806 45.9648 41.4806 45.9648C40.7188 45.5312 40.5665 45.0781 40.5704 44.7773C40.1759 45.0234 39.6876 44.8398 39.6876 44.8398C38.8243 44.4492 38.8517 43.6094 38.8517 43.6094Z" fill="url(#paint18_linear_25_3001)"/>
<path d="M45.4062 47.4844C45.3398 47.4492 45.2773 47.4102 45.2188 47.3594C45.2109 47.3516 45.1992 47.3438 45.1914 47.332C45.082 47.2109 45.0508 47.0156 45.3359 46.625C46.1172 45.5898 46.4258 44.8164 46.4258 44.8164C46.6406 44.2734 46.5625 44.1836 46.5625 44.1836C46.4883 44.0625 46.3359 44.4141 46.3359 44.4141C45.5625 45.8086 45.0312 46.418 44.8008 46.6445C44.7891 46.6524 44.7773 46.6602 44.7656 46.6641C44.7227 46.6914 44.6758 46.7188 44.625 46.7383C44.6055 46.7461 44.582 46.7539 44.5625 46.7617C44.5195 46.7773 44.4727 46.7852 44.4258 46.793C44.4023 46.7969 44.3789 46.8008 44.3516 46.8008C44.3008 46.8008 44.25 46.7969 44.1953 46.7852C44.1719 46.7813 44.1484 46.7813 44.125 46.7734C43.9971 46.7394 43.8774 46.6796 43.7734 46.5977C43.7578 46.582 43.7383 46.5664 43.7227 46.5508C43.707 46.5352 43.6875 46.5195 43.6719 46.5039C43.6523 46.4805 43.6328 46.4531 43.6133 46.4297C43.6055 46.418 43.5938 46.4063 43.5859 46.3906C43.5664 46.3594 43.5508 46.3281 43.5352 46.293C43.5312 46.2813 43.5234 46.2695 43.5195 46.2578C43.5039 46.2227 43.4961 46.1836 43.4883 46.1445L43.4766 46.1094C43.4688 46.0703 43.4687 46.0274 43.4648 45.9883C43.4648 45.9727 43.4609 45.9609 43.4609 45.9492C43.4609 45.9063 43.4688 45.8633 43.4766 45.8203C43.4805 45.8047 43.4805 45.7891 43.4844 45.7695C43.4922 45.7266 43.5117 45.6836 43.5273 45.6367C43.5352 45.6172 43.5391 45.5977 43.5469 45.582C44.4375 44.3242 44.8984 43.2266 44.8984 43.2266C45.0469 42.9219 45.1016 42.6016 45.1016 42.6016C45.0039 42.4219 44.8477 42.6836 44.8477 42.6836C43.832 44.5742 43.2305 45.332 43.2305 45.332C43.2305 45.332 42.7578 46.1563 41.7227 45.5391C41.7227 45.5391 41.2109 45.2109 41.125 44.9805C41.0508 44.7891 41.0039 44.4492 41.2656 43.9648C41.2656 43.9648 41.8867 42.6953 42.9102 41.0977C42.9102 41.0977 42.9766 40.8477 42.7461 40.9883C42.5664 41.0977 42.4375 41.3242 42.375 41.3945C42.375 41.3945 41.7695 42.2031 40.8906 43.8164C40.8906 43.8164 40.6953 44.1875 40.4688 44.3711C40.2461 44.4648 39.9648 44.4297 39.6562 44.1992C38.9883 43.6992 39.2383 43 39.6094 42.2813C39.8125 41.8906 40.2773 41.0117 40.7187 40.3086C40.7617 40.293 40.8047 40.2773 40.8477 40.2695C40.9883 40.2461 41.1016 40.1719 41.1719 40.0625C41.5234 39.5273 41.2461 39.043 40.7539 39.7891C39.5195 40 38.6445 42.4141 38.6016 43.6055C38.6016 43.6484 38.582 44.6172 39.582 45.0625C39.6133 45.0742 39.9766 45.207 40.3672 45.1172C40.4648 45.4414 40.7305 45.8203 41.3516 46.1758C41.3633 46.1836 41.9062 46.5156 42.5 46.5078C42.6094 46.5039 42.7188 46.4922 42.8203 46.4648C42.8828 46.668 43.0156 46.8906 43.2812 47.0938C43.3125 47.1172 43.9219 47.5742 44.5078 47.457C44.6211 47.6367 44.7852 47.7617 44.8281 47.793C45.0078 47.9063 45.1992 47.9648 45.3945 47.9805H45.5703C45.8203 47.9648 46.082 47.8789 46.3398 47.7188C46.3437 47.7188 46.3438 47.7148 46.3477 47.7148C46.9531 47.3008 47.8242 45.5703 47.8242 45.3945C47.8242 45.3906 46.5117 47.6719 45.4062 47.4844ZM11.1055 41.5C11.0586 40.3086 10.1836 37.8945 8.95312 37.6836C8.46484 36.9375 8.18359 37.4219 8.53516 37.957C8.60547 38.0664 8.72266 38.1367 8.85938 38.1641C8.90234 38.1719 8.94531 38.1875 8.98828 38.2031C9.42969 38.9063 9.89453 39.7891 10.0977 40.1758C10.4688 40.8906 10.7148 41.5898 10.0508 42.0938C9.74219 42.3242 9.46484 42.3594 9.23828 42.2656C9.01562 42.082 8.81641 41.7109 8.81641 41.7109C7.9375 40.0977 7.33203 39.2891 7.33203 39.2891C7.26953 39.2188 7.14453 38.9961 6.96094 38.8828C6.73047 38.7422 6.79688 38.9922 6.79688 38.9922C7.82031 40.5859 8.44141 41.8594 8.44141 41.8594C8.70703 42.3438 8.66016 42.6836 8.58203 42.875C8.49609 43.1055 7.98438 43.4336 7.98438 43.4336C6.95312 44.0508 6.47656 43.2266 6.47656 43.2266C6.47656 43.2266 5.87109 42.4688 4.85937 40.5781C4.85937 40.5781 4.69922 40.3164 4.60547 40.4961C4.60547 40.4961 4.66016 40.8164 4.80859 41.1211C4.80859 41.1211 5.26953 42.2148 6.16016 43.4766C6.16797 43.4961 6.17188 43.5156 6.17969 43.5313C6.19531 43.5742 6.21094 43.6211 6.22266 43.6641C6.22656 43.6797 6.22656 43.6953 6.23047 43.7149C6.23828 43.7578 6.24609 43.8008 6.24609 43.8438C6.24609 43.8594 6.24219 43.8711 6.24219 43.8828C6.24219 43.9258 6.23828 43.9648 6.23047 44.0039C6.22656 44.0156 6.22266 44.0273 6.22266 44.0391C6.21484 44.0781 6.20312 44.1172 6.1875 44.1523C6.18359 44.1641 6.17578 44.1758 6.17188 44.1875C6.15625 44.2188 6.14062 44.2539 6.12109 44.2852C6.11328 44.2969 6.10156 44.3086 6.09375 44.3242C6.07422 44.3516 6.05469 44.375 6.03516 44.3984C6.01953 44.4141 6 44.4297 5.98438 44.4453C5.96875 44.4609 5.95312 44.4766 5.93359 44.4922C5.89844 44.5195 5.85937 44.5469 5.82422 44.5664C5.73828 44.6133 5.65625 44.6484 5.58203 44.668C5.55859 44.6758 5.53516 44.6758 5.50781 44.6797C5.45312 44.6875 5.40234 44.6953 5.35156 44.6953C5.32812 44.6953 5.30078 44.6914 5.27734 44.6875C5.23047 44.6797 5.18359 44.6719 5.14062 44.6563C5.12109 44.6484 5.09766 44.6406 5.07812 44.6328C5.03125 44.6133 4.98438 44.5859 4.9375 44.5586C4.92578 44.5508 4.91406 44.5469 4.90234 44.5391C4.67188 44.3125 4.14062 43.7031 3.36719 42.3086C3.36719 42.3086 3.21484 41.957 3.14062 42.0781C3.14062 42.0781 3.0625 42.1719 3.27734 42.7109C3.27734 42.7109 3.58594 43.4844 4.36719 44.5195C4.65234 44.9102 4.62109 45.1055 4.51172 45.2266C4.50391 45.2344 4.49219 45.2422 4.48437 45.2539C4.42969 45.3047 4.36328 45.3438 4.29688 45.3789C3.19141 45.5703 1.875 43.2852 1.875 43.2852C1.875 43.4648 2.74609 45.1953 3.35156 45.6055C3.35547 45.6055 3.35547 45.6094 3.35938 45.6094C3.61719 45.7695 3.875 45.8555 4.12891 45.8711H4.30469C4.50391 45.8555 4.69531 45.7969 4.87109 45.6836C4.91406 45.6523 5.07812 45.5234 5.19141 45.3477C5.77734 45.4648 6.39062 45.0078 6.41797 44.9844C6.68359 44.7813 6.81641 44.5586 6.87891 44.3555C6.98047 44.3828 7.08594 44.3984 7.19922 44.3984C7.79297 44.4102 8.33594 44.0742 8.34766 44.0664C8.96875 43.7148 9.23438 43.332 9.33203 43.0078C9.72266 43.0938 10.0859 42.9648 10.1172 42.9531C11.1289 42.5117 11.1094 41.543 11.1055 41.5Z" fill="#EDBD82"/>
<path d="M42.9688 48.4297V31.707C42.9688 30.3086 41.8281 29.168 40.4297 29.168H9.57031C8.17188 29.168 7.03125 30.3086 7.03125 31.707V48.4336H42.9688V48.4297Z" fill="url(#paint19_linear_25_3001)"/>
<path d="M30.8555 48.4297C30.6172 47.6758 30.3047 46.8242 30.0391 45.918C29.5039 44.0977 29.2812 41.0586 29.1875 38.9375C29.1289 37.5977 28.0195 36.5391 26.668 36.5391H23.3281C21.9766 36.5391 20.8672 37.5937 20.8086 38.9375C20.7148 41.0586 20.4922 44.0977 19.957 45.918C19.6914 46.8242 19.3828 47.6758 19.1406 48.4297H30.8555Z" fill="url(#paint20_linear_25_3001)"/>
<defs>
<linearGradient id="paint0_linear_25_3001" x1="25" y1="3.32422" x2="25" y2="34.4035" gradientUnits="userSpaceOnUse">
<stop offset="0.003" stop-color="#424242"/>
<stop offset="0.271" stop-color="#353535"/>
<stop offset="0.764" stop-color="#131313"/>
<stop offset="1"/>
</linearGradient>
<linearGradient id="paint1_linear_25_3001" x1="25" y1="3.32422" x2="25" y2="34.4035" gradientUnits="userSpaceOnUse">
<stop offset="0.001" stop-color="#BFBEBE"/>
<stop offset="0.15" stop-color="#212121" stop-opacity="0"/>
<stop offset="0.776" stop-color="#212121" stop-opacity="0"/>
<stop offset="1" stop-color="#BFBEBE"/>
</linearGradient>
<linearGradient id="paint2_linear_25_3001" x1="1.79375" y1="18.75" x2="48.4125" y2="18.75" gradientUnits="userSpaceOnUse">
<stop offset="0.001" stop-color="#BFBEBE"/>
<stop offset="0.1" stop-color="#212121" stop-opacity="0"/>
<stop offset="0.9" stop-color="#212121" stop-opacity="0"/>
<stop offset="1" stop-color="#BFBEBE"/>
</linearGradient>
<radialGradient id="paint3_radial_25_3001" cx="0" cy="0" r="1" gradientUnits="userSpaceOnUse" gradientTransform="translate(30.6965 32.054) scale(9.14805 4.49352)">
<stop offset="0.728" stop-color="#454140" stop-opacity="0"/>
<stop offset="1" stop-color="#454140"/>
</radialGradient>
<radialGradient id="paint4_radial_25_3001" cx="0" cy="0" r="1" gradientUnits="userSpaceOnUse" gradientTransform="translate(39.7076 30.6931) rotate(154.924) scale(2.70338 2.00552)">
<stop offset="0.663" stop-color="#454140"/>
<stop offset="1" stop-color="#454140" stop-opacity="0"/>
</radialGradient>
<radialGradient id="paint5_radial_25_3001" cx="0" cy="0" r="1" gradientUnits="userSpaceOnUse" gradientTransform="translate(32.7012 23.0468) rotate(-94.2783) scale(11.8744 9.89659)">
<stop offset="0.725" stop-color="#454140" stop-opacity="0"/>
<stop offset="1" stop-color="#454140"/>
</radialGradient>
<radialGradient id="paint6_radial_25_3001" cx="0" cy="0" r="1" gradientUnits="userSpaceOnUse" gradientTransform="translate(17.3077 23.0465) rotate(-85.7217) scale(11.8744 9.89659)">
<stop offset="0.725" stop-color="#454140" stop-opacity="0"/>
<stop offset="1" stop-color="#454140"/>
</radialGradient>
<radialGradient id="paint7_radial_25_3001" cx="0" cy="0" r="1" gradientUnits="userSpaceOnUse" gradientTransform="translate(19.3121 32.054) rotate(180) scale(9.14805 4.49352)">
<stop offset="0.728" stop-color="#454140" stop-opacity="0"/>
<stop offset="1" stop-color="#454140"/>
</radialGradient>
<radialGradient id="paint8_radial_25_3001" cx="0" cy="0" r="1" gradientUnits="userSpaceOnUse" gradientTransform="translate(10.3022 30.6934) rotate(25.0761) scale(2.70338 2.00552)">
<stop offset="0.663" stop-color="#454140"/>
<stop offset="1" stop-color="#454140" stop-opacity="0"/>
</radialGradient>
<radialGradient id="paint9_radial_25_3001" cx="0" cy="0" r="1" gradientUnits="userSpaceOnUse" gradientTransform="translate(32.038 16.7815) rotate(72.0851) scale(13.9189 10.3275)">
<stop offset="0.699" stop-color="#454140" stop-opacity="0"/>
<stop offset="1" stop-color="#454140"/>
</radialGradient>
<radialGradient id="paint10_radial_25_3001" cx="0" cy="0" r="1" gradientUnits="userSpaceOnUse" gradientTransform="translate(18.4692 1.60564) rotate(28.2026) scale(3.64968 4.32746)">
<stop offset="0.58" stop-color="#454140"/>
<stop offset="1" stop-color="#454140" stop-opacity="0"/>
</radialGradient>
<radialGradient id="paint11_radial_25_3001" cx="0" cy="0" r="1" gradientUnits="userSpaceOnUse" gradientTransform="translate(26.6202 8.23222) rotate(-157.19) scale(11.404 6.40907)">
<stop offset="0.699" stop-color="#454140" stop-opacity="0"/>
<stop offset="1" stop-color="#454140"/>
</radialGradient>
<radialGradient id="paint12_radial_25_3001" cx="0" cy="0" r="1" gradientUnits="userSpaceOnUse" gradientTransform="translate(17.0036 4.93498) scale(3.34961 4.09758)">
<stop offset="0.702" stop-color="#454140" stop-opacity="0"/>
<stop offset="1" stop-color="#454140"/>
</radialGradient>
<radialGradient id="paint13_radial_25_3001" cx="0" cy="0" r="1" gradientUnits="userSpaceOnUse" gradientTransform="translate(16.542 10.8479) rotate(-164.942) scale(6.28265 5.87942)">
<stop offset="0.66" stop-color="#454140" stop-opacity="0"/>
<stop offset="1" stop-color="#454140"/>
</radialGradient>
<radialGradient id="paint14_radial_25_3001" cx="0" cy="0" r="1" gradientUnits="userSpaceOnUse" gradientTransform="translate(15.053 16.9137) rotate(7.83355) scale(6.59631 9.2689)">
<stop offset="0.598" stop-color="#454140" stop-opacity="0"/>
<stop offset="1" stop-color="#454140"/>
</radialGradient>
<linearGradient id="paint15_linear_25_3001" x1="2.1973" y1="46.1621" x2="8.7762" y2="46.1621" gradientUnits="userSpaceOnUse">
<stop stop-color="#FB8C00"/>
<stop offset="0.482" stop-color="#F67F00"/>
<stop offset="1" stop-color="#EF6C00"/>
</linearGradient>
<linearGradient id="paint16_linear_25_3001" x1="7.97967" y1="44.1082" x2="4.19803" y2="38.7266" gradientUnits="userSpaceOnUse">
<stop stop-color="#FFD29C"/>
<stop offset="0.5" stop-color="#F9DDBD"/>
</linearGradient>
<linearGradient id="paint17_linear_25_3001" x1="38.7513" y1="46.425" x2="47.1872" y2="46.425" gradientUnits="userSpaceOnUse">
<stop stop-color="#FB8C00"/>
<stop offset="0.482" stop-color="#F67F00"/>
<stop offset="1" stop-color="#EF6C00"/>
</linearGradient>
<linearGradient id="paint18_linear_25_3001" x1="41.804" y1="46" x2="45.5853" y2="40.6183" gradientUnits="userSpaceOnUse">
<stop stop-color="#FFD29C"/>
<stop offset="0.5" stop-color="#F9DDBD"/>
</linearGradient>
<linearGradient id="paint19_linear_25_3001" x1="25" y1="29.1117" x2="25" y2="55.8355" gradientUnits="userSpaceOnUse">
<stop stop-color="#4DD0E1"/>
<stop offset="1" stop-color="#00BCD4"/>
</linearGradient>
<linearGradient id="paint20_linear_25_3001" x1="24.9996" y1="36.1703" x2="24.9996" y2="51.5133" gradientUnits="userSpaceOnUse">
<stop stop-color="#00BCD4"/>
<stop offset="1" stop-color="#0097A7"/>
</linearGradient>
</defs>
</svg>
