<svg width="24" height="24" viewBox="0 0 24 24" fill="none" xmlns="http://www.w3.org/2000/svg">
<path d="M4.80039 18H11.9836C11.7112 18.36 11.5036 18.7668 11.3716 19.2H4.80039C4.16387 19.2 3.55342 18.9471 3.10333 18.4971C2.65325 18.047 2.40039 17.4365 2.40039 16.8V4.8C2.40039 4.16348 2.65325 3.55303 3.10333 3.10294C3.55342 2.65286 4.16387 2.4 4.80039 2.4H16.8004C17.4369 2.4 18.0474 2.65286 18.4974 3.10294C18.9475 3.55303 19.2004 4.16348 19.2004 4.8V11.0784C18.8092 11.2464 18.4432 11.49 18.124 11.8092L18.0004 11.9328V4.8C18.0004 4.48174 17.874 4.17652 17.6489 3.95147C17.4239 3.72643 17.1187 3.6 16.8004 3.6H4.80039C4.48213 3.6 4.17691 3.72643 3.95186 3.95147C3.72682 4.17652 3.60039 4.48174 3.60039 4.8V16.8C3.60039 17.1183 3.72682 17.4235 3.95186 17.6485C4.17691 17.8736 4.48213 18 4.80039 18ZM14.4004 6.6C14.4004 6.44087 14.4636 6.28826 14.5761 6.17574C14.6886 6.06321 14.8413 6 15.0004 6C15.1595 6 15.3121 6.06321 15.4247 6.17574C15.5372 6.28826 15.6004 6.44087 15.6004 6.6V14.3328L14.5444 15.3888C14.4515 15.2805 14.4005 15.1426 14.4004 15V6.6ZM6.00039 9C6.00039 8.84087 6.06361 8.68826 6.17613 8.57574C6.28865 8.46321 6.44126 8.4 6.60039 8.4C6.75952 8.4 6.91213 8.46321 7.02465 8.57574C7.13718 8.68826 7.20039 8.84087 7.20039 9V15C7.20039 15.1591 7.13718 15.3117 7.02465 15.4243C6.91213 15.5368 6.75952 15.6 6.60039 15.6C6.44126 15.6 6.28865 15.5368 6.17613 15.4243C6.06361 15.3117 6.00039 15.1591 6.00039 15V9ZM10.8004 10.8C10.6413 10.8 10.4886 10.8632 10.3761 10.9757C10.2636 11.0883 10.2004 11.2409 10.2004 11.4V15C10.2004 15.1591 10.2636 15.3117 10.3761 15.4243C10.4886 15.5368 10.6413 15.6 10.8004 15.6C10.9595 15.6 11.1121 15.5368 11.2247 15.4243C11.3372 15.3117 11.4004 15.1591 11.4004 15V11.4C11.4004 11.2409 11.3372 11.0883 11.2247 10.9757C11.1121 10.8632 10.9595 10.8 10.8004 10.8ZM13.1764 18.4524L18.9724 12.6564C19.3934 12.2355 19.9645 11.9991 20.5598 11.9992C21.1552 11.9993 21.7261 12.2359 22.147 12.657C22.5679 13.0781 22.8043 13.6491 22.8042 14.2444C22.8041 14.8398 22.5674 15.4107 22.1464 15.8316L16.3504 21.6264C16.0127 21.9642 15.5897 22.2039 15.1264 22.32L13.3288 22.7688C13.15 22.8133 12.9628 22.8109 12.7853 22.7617C12.6078 22.7125 12.446 22.6182 12.3157 22.488C12.1854 22.3578 12.091 22.1962 12.0416 22.0187C11.9922 21.8412 11.9896 21.654 12.034 21.4752L12.484 19.6776C12.5991 19.2139 12.839 18.7906 13.1776 18.4536L13.1764 18.4524Z" fill="#450E8B"/>
</svg>
