<svg width="20" height="20" viewBox="0 0 20 20" fill="none" xmlns="http://www.w3.org/2000/svg">
<g clip-path="url(#clip0_29_3838)">
<mask id="mask0_29_3838" style="mask-type:luminance" maskUnits="userSpaceOnUse" x="0" y="0" width="20" height="20">
<path d="M10.0001 18.3333C11.0946 18.3347 12.1787 18.1198 13.1899 17.701C14.2012 17.2821 15.1196 16.6675 15.8926 15.8925C16.6676 15.1195 17.2822 14.2011 17.7011 13.1898C18.1199 12.1786 18.3348 11.0946 18.3334 10C18.3348 8.90544 18.1199 7.82141 17.701 6.81018C17.2821 5.79894 16.6676 4.88046 15.8926 4.1075C15.1196 3.33251 14.2012 2.71791 13.1899 2.29903C12.1787 1.88015 11.0946 1.66525 10.0001 1.66666C8.90554 1.66527 7.8215 1.88019 6.81027 2.29906C5.79904 2.71794 4.88055 3.33253 4.10759 4.1075C3.33262 4.88046 2.71804 5.79894 2.29916 6.81018C1.88028 7.82141 1.66536 8.90544 1.66676 10C1.66534 11.0946 1.88024 12.1786 2.29912 13.1898C2.718 14.2011 3.3326 15.1195 4.10759 15.8925C4.88055 16.6675 5.79904 17.2821 6.81027 17.7009C7.8215 18.1198 8.90554 18.3347 10.0001 18.3333Z" fill="white" stroke="white" stroke-width="2" stroke-linejoin="round"/>
<path d="M6.66675 10L9.16675 12.5L14.1667 7.5" stroke="black" stroke-width="2" stroke-linecap="round" stroke-linejoin="round"/>
</mask>
<g mask="url(#mask0_29_3838)">
<path d="M0 0H20V20H0V0Z" fill="#450E8B"/>
</g>
</g>
<defs>
<clipPath id="clip0_29_3838">
<rect width="20" height="20" fill="white"/>
</clipPath>
</defs>
</svg>
