<svg width="20" height="20" viewBox="0 0 20 20" fill="none" xmlns="http://www.w3.org/2000/svg">
<g clip-path="url(#clip0_29_3834)">
<path d="M10.0001 18.3334C11.0946 18.3348 12.1787 18.1199 13.1899 17.701C14.2012 17.2821 15.1196 16.6675 15.8926 15.8925C16.6676 15.1196 17.2822 14.2011 17.7011 13.1899C18.1199 12.1786 18.3348 11.0946 18.3334 10C18.3348 8.90548 18.1199 7.82144 17.701 6.81021C17.2821 5.79898 16.6676 4.88049 15.8926 4.10753C15.1196 3.33254 14.2012 2.71794 13.1899 2.29906C12.1787 1.88018 11.0946 1.66528 10.0001 1.66669C8.90554 1.6653 7.8215 1.88022 6.81027 2.29909C5.79904 2.71797 4.88055 3.33256 4.10759 4.10753C3.33262 4.88049 2.71804 5.79898 2.29916 6.81021C1.88028 7.82144 1.66536 8.90548 1.66676 10C1.66534 11.0946 1.88024 12.1786 2.29912 13.1899C2.718 14.2011 3.3326 15.1196 4.10759 15.8925C4.88055 16.6675 5.79904 17.2821 6.81027 17.701C7.8215 18.1198 8.90554 18.3348 10.0001 18.3334Z" stroke="#450E8B" stroke-width="2" stroke-linejoin="round"/>
<path d="M6.66675 10L9.16675 12.5L14.1667 7.5" stroke="#450E8B" stroke-width="2" stroke-linecap="round" stroke-linejoin="round"/>
</g>
<defs>
<clipPath id="clip0_29_3834">
<rect width="20" height="20" fill="white"/>
</clipPath>
</defs>
</svg>
