<svg width="28" height="29" viewBox="0 0 28 29" fill="none" xmlns="http://www.w3.org/2000/svg">
<path fill-rule="evenodd" clip-rule="evenodd" d="M14 20C14.2652 20 14.5196 19.8946 14.7071 19.7071C14.8946 19.5195 15 19.2652 15 19V4.3693L17.24 6.98397C17.4126 7.18554 17.6581 7.31029 17.9227 7.3308C18.1872 7.3513 18.4491 7.26587 18.6507 7.0933C18.8522 6.92074 18.977 6.67517 18.9975 6.41061C19.018 6.14606 18.9326 5.8842 18.76 5.68264L14.76 1.01597C14.6661 0.906191 14.5496 0.818053 14.4184 0.75762C14.2872 0.697187 14.1444 0.665894 14 0.665894C13.8556 0.665894 13.7128 0.697187 13.5816 0.75762C13.4504 0.818053 13.3339 0.906191 13.24 1.01597L9.24 5.68264C9.15455 5.78244 9.0896 5.8981 9.04885 6.02301C9.0081 6.14791 8.99235 6.27962 9.00251 6.41061C9.01266 6.54161 9.04851 6.66932 9.10802 6.78645C9.16753 6.90359 9.24953 7.00786 9.34933 7.0933C9.44914 7.17875 9.5648 7.2437 9.6897 7.28445C9.81461 7.3252 9.94632 7.34095 10.0773 7.3308C10.2083 7.32064 10.336 7.28479 10.4531 7.22528C10.5703 7.16577 10.6746 7.08378 10.76 6.98397L13 4.37064V19C13 19.552 13.448 20 14 20Z" fill="#450E8B"/>
<path d="M19.3333 11C18.3973 11 17.9293 11 17.592 11.2253C17.447 11.3224 17.3224 11.447 17.2253 11.592C17 11.9293 17 12.3973 17 13.3333V19C17 19.7956 16.6839 20.5587 16.1213 21.1213C15.5587 21.6839 14.7956 22 14 22C13.2044 22 12.4413 21.6839 11.8787 21.1213C11.3161 20.5587 11 19.7956 11 19V13.3333C11 12.3973 11 11.9293 10.7747 11.592C10.6776 11.447 10.553 11.3224 10.408 11.2253C10.0707 11 9.60267 11 8.66667 11C4.896 11 3.00933 11 1.83867 12.172C0.666668 13.3427 0.666668 15.2267 0.666668 18.9987V20.332C0.666668 24.1053 0.666668 25.9893 1.83867 27.1613C3.00933 28.3333 4.896 28.3333 8.66667 28.3333H19.3333C23.104 28.3333 24.9907 28.3333 26.1613 27.1613C27.3333 25.9893 27.3333 24.104 27.3333 20.3333V19C27.3333 15.228 27.3333 13.3427 26.1613 12.172C24.9907 11 23.104 11 19.3333 11Z" fill="#450E8B"/>
</svg>
