<svg width="50" height="50" viewBox="0 0 50 50" fill="none" xmlns="http://www.w3.org/2000/svg">
<path d="M47.9165 22.9167V32.6458C47.9165 34.3125 47.0832 35.7708 45.8332 36.6458V37.5C45.8332 39.7917 43.9582 41.6667 41.6665 41.6667H38.4165C36.6248 41.6667 35.0415 40.5208 34.4582 38.8125L34.0207 37.5H24.3123L23.8748 38.8125C23.2915 40.5208 21.7082 41.6667 19.9165 41.6667H16.6665C14.3748 41.6667 12.4998 39.7917 12.4998 37.5V36.6458C11.2498 35.7708 10.4165 34.3125 10.4165 32.6458V22.9167H12.4998L18.2498 16.4375C19.3123 15.25 20.7498 14.5833 22.229 14.5833H36.104C37.5832 14.5833 39.0207 15.25 40.0832 16.4375L45.8332 22.9167H47.9165Z" fill="#D3D3D3"/>
<path d="M14.5832 27.0833H12.4998C11.3484 27.0833 10.4165 28.0162 10.4165 29.1667C10.4165 30.3171 11.3484 31.25 12.4998 31.25H14.5832C15.7346 31.25 16.6665 30.3171 16.6665 29.1667C16.6665 28.0162 15.7346 27.0833 14.5832 27.0833ZM37.4998 27.0833H35.4165C34.265 27.0833 33.3332 28.0162 33.3332 29.1667C33.3332 30.3171 34.265 31.25 35.4165 31.25H37.4998C38.6513 31.25 39.5832 30.3171 39.5832 29.1667C39.5832 28.0162 38.6513 27.0833 37.4998 27.0833Z" fill="#1976D2"/>
<path d="M42.0415 19.2478L42.2653 19.5H42.6024H43.7499H45.8333C46.5703 19.5 47.1666 20.0969 47.1666 20.8333C47.1666 21.5698 46.5703 22.1667 45.8333 22.1667H45.0833V22.9167V30.5623C45.0833 32.241 44.4026 33.8362 43.2223 34.9956L43.0033 35.2107L42.998 35.5176C42.9461 38.5024 40.4981 40.9167 37.4999 40.9167H34.251C31.9298 40.9167 29.8521 39.4479 29.0607 37.2463L28.8823 36.75H28.3549H21.6451H21.1193L20.9401 37.2443C20.1385 39.4546 18.0654 40.9167 15.7491 40.9167H12.4999C9.50173 40.9167 7.05375 38.5024 7.00189 35.5176L6.99656 35.2107L6.77759 34.9956C5.5972 33.836 4.91659 32.2409 4.91659 30.5623V22.9167V22.1667H4.16659C3.42958 22.1667 2.83325 21.5698 2.83325 20.8333C2.83325 20.0969 3.42958 19.5 4.16659 19.5H6.24992H7.39742H7.73461L7.95841 19.2478L13.0837 13.4717C13.0839 13.4714 13.0842 13.4711 13.0844 13.4708C14.403 11.9948 16.2211 11.1667 18.0622 11.1667H31.9376C33.7793 11.1667 35.5973 11.9952 36.9093 13.4647C36.9094 13.4649 36.9096 13.4651 36.9098 13.4653L42.0415 19.2478ZM15.0759 15.2431L15.0741 15.2451L11.2916 19.5081L10.3907 20.5234L11.7298 20.7457L16.7146 21.5732L16.7756 21.5833H16.8374H33.1624H33.2243L33.2852 21.5732L38.2698 20.7457L39.609 20.5234L38.708 19.508L34.9196 15.2391L34.9181 15.2373C34.1405 14.3665 33.0596 13.8333 31.9376 13.8333H18.0622C16.9394 13.8333 15.8588 14.3672 15.0759 15.2431ZM40.9028 33.4694L40.9032 33.4691C41.8491 32.8054 42.4166 31.7192 42.4166 30.5623V23.6448V22.76L41.5438 22.9049L33.5523 24.2316L33.5494 24.2321C33.4786 24.2441 33.4068 24.25 33.3333 24.25H16.6666C16.5931 24.25 16.5212 24.2441 16.4504 24.2321L16.4475 24.2316L8.45608 22.9049L7.58325 22.76V23.6448V30.5623C7.58325 31.7192 8.15072 32.8054 9.09661 33.4691L9.09705 33.4694C9.45462 33.72 9.66659 34.1276 9.66659 34.5621V35.4167C9.66659 36.9792 10.9359 38.25 12.4999 38.25H15.7491C16.9722 38.25 18.0509 37.4563 18.4466 36.2978L18.4482 36.2929L18.8815 34.995L18.8818 34.9941C19.0625 34.4505 19.571 34.0833 20.1455 34.0833H29.8543C30.4286 34.0833 30.9373 34.4505 31.118 34.9941L31.1182 34.9947L31.5557 36.307L31.5557 36.307L31.5577 36.3127C31.9502 37.4593 33.0306 38.25 34.2508 38.25H37.4999C39.064 38.25 40.3333 36.9792 40.3333 35.4167V34.5621C40.3333 34.1278 40.5452 33.72 40.9028 33.4694Z" stroke="#1976D2" stroke-width="1.5"/>
</svg>
