<svg width="34" height="32" viewBox="0 0 34 32" fill="none" xmlns="http://www.w3.org/2000/svg">
<path d="M19.2089 32H15.1841C15.0026 32 14.8286 31.9321 14.7003 31.8114C14.572 31.6906 14.4999 31.5268 14.4999 31.356V27.6693H7.98745C7.73733 27.669 7.49756 27.5753 7.3207 27.4089C7.14384 27.2424 7.04432 27.0167 7.04395 26.7813V23.8027C7.04409 23.6036 7.11489 23.4102 7.24511 23.2533L18.7754 9.41067H8.50453C8.25392 9.41067 8.01358 9.31697 7.83637 9.15019C7.65917 8.98341 7.55961 8.7572 7.55961 8.52133V5.21867C7.55961 4.72933 7.98319 4.33067 8.50311 4.33067H14.4956V0.644C14.4956 0.289333 14.803 0 15.1799 0H19.2046C19.5814 0 19.8889 0.289333 19.8889 0.644V4.33067H26.0131C26.533 4.33067 26.9566 4.72933 26.9566 5.21867V8.068C26.9562 8.26602 26.886 8.45832 26.7569 8.61467L15.1544 22.5893H26.0131C26.533 22.5893 26.9566 22.988 26.9566 23.4773V26.78C26.9566 27.0156 26.8573 27.2416 26.6804 27.4084C26.5035 27.5751 26.2635 27.669 26.0131 27.6693H19.8931V31.356C19.8931 31.5268 19.821 31.6906 19.6927 31.8114C19.5644 31.9321 19.3903 32 19.2089 32Z" fill="#6C1CD3"/>
</svg>
